<?xml version="1.0" encoding="UTF-8" standalone="no"?><!DOCTYPE svg PUBLIC "-//W3C//DTD SVG 1.1//EN" "http://www.w3.org/Graphics/SVG/1.1/DTD/svg11.dtd"><svg width="100%" height="100%" viewBox="0 0 2048 2732" version="1.1" xmlns="http://www.w3.org/2000/svg" xmlns:xlink="http://www.w3.org/1999/xlink" xml:space="preserve" xmlns:serif="http://www.serif.com/" style="fill-rule:evenodd;clip-rule:evenodd;stroke-linecap:round;stroke-linejoin:round;stroke-miterlimit:1.5;"><g><g id="Layer1"><path d="M1254.9,1021.42l0.76,-861.829l170.742,-153.3l-2.3,1091.7l-169.202,-76.568Z" style="fill:#fff;stroke:#fff;stroke-width:1.01px;"/><path d="M1449.56,1095.79l-1.911,-1086.76l76.999,148.225l0.041,359.025c0,0 9.319,-20.278 16.477,-31.634c21.837,-34.647 78.84,-103.006 201.837,-101.647c181,2 282.225,116.015 279,331c-3,200 -100,322 -286,320c-117.997,-1.269 -184,-62 -205,-104c-6.812,-13.624 -9,-25 -9,-24c0,2.236 -1.525,114.805 -1.525,114.805l-70.918,74.986Zm288.443,-124.791c-145.05,1.17 -212,-105 -213,-263c-0.861,-136.001 73,-265 216,-264c147,1.028 207.852,118.981 206,269c-2,162 -85,257 -209,258Z" style="fill:#fff;stroke:#fff;stroke-width:1.01px;"/></g><g id="Layer2"><path d="M1421.25,1097.74l-284.351,143.706" style="fill:none;stroke:#fff;stroke-width:2.81px;"/><path d="M1136.5,1241.87l-247.546,1071.24" style="fill:none;stroke:#fff;stroke-width:2.81px;"/><path d="M888.957,2313.11l693.684,-98.344" style="fill:none;stroke:#fff;stroke-width:2.81px;"/><path d="M888.957,2313.11l715.441,405.438" style="fill:none;stroke:#fff;stroke-width:2.81px;"/><path d="M1604.4,2718.55l-20.853,-504.111" style="fill:none;stroke:#fff;stroke-width:2.81px;"/><path d="M1583.55,2214.44l326.96,-1230.76" style="fill:none;stroke:#fff;stroke-width:2.81px;"/><path d="M1910.51,983.682l-303.416,1733.06" style="fill:none;stroke:#fff;stroke-width:2.81px;"/><path d="M199.027,2071.22l818.179,-323.693" style="fill:none;stroke:#fff;stroke-width:2.81px;"/><path d="M1017.21,1747.53l-741.091,194.861" style="fill:none;stroke:#fff;stroke-width:2.81px;"/><path d="M276.115,1942.39l-17.455,105.432" style="fill:none;stroke:#fff;stroke-width:2.81px;"/><path d="M276.115,1942.39l859.281,-698.109" style="fill:none;stroke:#fff;stroke-width:2.81px;"/><path d="M198.456,2071l-167.221,-298.67" style="fill:none;stroke:#fff;stroke-width:2.81px;"/><path d="M31.235,1772.33l1222.12,-752.88" style="fill:none;stroke:#fff;stroke-width:2.81px;"/><path d="M31.235,1772.33l332.034,98.591" style="fill:none;stroke:#fff;stroke-width:2.81px;"/><path d="M1512.89,989.64l70.631,-3.349" style="fill:none;stroke:#fff;stroke-width:2.81px;"/></g></g></svg>