<svg xmlns="http://www.w3.org/2000/svg" width="100%" height="100%" viewBox="0 0 2048 2732" fill-rule="evenodd" stroke-linecap="round" stroke-linejoin="round" stroke-miterlimit="1.5"><style><![CDATA[.A{animation:kAUWGeMX_draw 1466ms ease-in-out 0ms forwards}.B{animation:kAUWGeMX_draw 1466ms ease-in-out 45ms forwards}.C{animation:kAUWGeMX_draw 1466ms ease-in-out 91ms forwards}.D{animation:kAUWGeMX_draw 1466ms ease-in-out 137ms forwards}.E{animation:kAUWGeMX_draw 1466ms ease-in-out 183ms forwards}.F{animation:kAUWGeMX_draw 1466ms ease-in-out 229ms forwards}.G{animation:kAUWGeMX_draw 1466ms ease-in-out 275ms forwards}.H{animation:kAUWGeMX_draw 1466ms ease-in-out 320ms forwards}.I{animation:kAUWGeMX_draw 1466ms ease-in-out 366ms forwards}.J{animation:kAUWGeMX_draw 1466ms ease-in-out 412ms forwards}.K{animation:kAUWGeMX_draw 1466ms ease-in-out 458ms forwards}.L{animation:kAUWGeMX_draw 1466ms ease-in-out 504ms forwards}.M{animation:kAUWGeMX_draw 1466ms ease-in-out 550ms forwards}.N{animation:kAUWGeMX_draw 1466ms ease-in-out 595ms forwards}.O{animation:kAUWGeMX_draw 1466ms ease-in-out 641ms forwards}.P{animation:kAUWGeMX_draw 1466ms ease-in-out 687ms forwards}.Q{animation:kAUWGeMX_draw 1466ms ease-in-out 733ms forwards}@keyframes kAUWGeMX_draw{100%{stroke-dashoffset:0}} @keyframes kAUWGeMX_fade{0%{stroke-opacity:1}93.75%{stroke-opacity:1}100%{stroke-opacity:0}}.R{stroke:#000}]]></style><g transform="matrix(2.05441 0 0 2.05441 -941.037 -1304.52)" class="R"><g fill="#010001" stroke-width=".49"><path d="M1068.9 1132.17l.37-419.502 83.1-74.62-1.12 531.392-82.36-37.27z" class="A" stroke-dasharray="1153 1155" stroke-dashoffset="1154"/><path d="M1163.64 1168.37l-.93-528.99 37.48 72.15V886.29s1.5-1.347 1.94-2.234c.58-1.19.8-3.358 1.52-4.915 1.02-2.195 3.14-5.827 4.56-8.25l3.92-6.287 5.7-7.19c2.76-2.975 6.93-7.51 10.92-10.665 4.5-3.558 10.92-7.702 16.07-10.683 4.75-2.75 9.68-5.246 14.8-7.205 5.38-2.055 12.3-3.915 17.46-5.124 4.4-1.036 8.9-1.77 13.43-2.13 6.62-.53 18.25-1.376 26.32-1.05 7.42.3 16.1 1.865 22.1 3.01 4.7.9 9.33 2.243 13.84 3.86 5.55 2 13.38 4.572 19.47 8.084 6.62 3.823 14.58 10.03 20.28 14.855 5.04 4.267 9.9 8.845 13.9 14.105 4.77 6.294 10.73 16.498 14.73 23.66 3.47 6.232 6.78 12.612 9.24 19.312 2.56 6.98 4.43 14.965 6.12 22.58 1.74 7.85 3.37 17.47 4.32 24.518.8 5.89 1.23 11.834 1.36 17.775.14 6.42-.16 13.925-.5 20.743-.34 6.732-.77 13.472-1.54 20.162-.8 6.88-1.58 14.37-3.23 21.13-1.62 6.65-4.1 13.1-6.66 19.44-2.64 6.52-6.28 14.3-9.18 19.7-2.38 4.42-5.25 8.58-8.2 12.65-3.84 5.33-9.45 13.86-14.84 19.34-5.16 5.26-11.28 9.54-17.47 13.55-6.55 4.24-16.13 9.27-21.85 11.9-3.95 1.82-8.25 2.75-12.45 3.88-4.8 1.3-10.75 3.2-16.3 3.9-7.78.96-21.84 1.98-30.42 1.86-7.06-.1-14.13-1.04-21.03-2.55-7.04-1.53-14.6-4.04-21.2-6.65-6.36-2.52-12.74-5.57-18.43-9.04a107.87 107.87 0 0 1-15.71-11.75c-4.13-3.75-7.85-8.44-11.06-12.56-3-3.86-5.76-8.25-8.16-12.16-2.24-3.66-5.65-15.55-6.2-11.3-.97 7.67.35 57.3.35 57.3l-34.52 36.5zM1201 999.785c-.48-6.43-1.4-16.127-1.26-24.206.14-8.486.9-18.834 2.08-26.707 1.05-6.967 2.92-13.807 5.03-20.53 2.33-7.466 5.02-16.607 9-24.262 4.04-7.778 9.3-15.896 15.24-22.406 5.9-6.48 13.83-12.333 20.35-16.655 5.8-3.852 12.04-7.34 18.74-9.274 7.86-2.272 19.4-3.73 28.4-4.355 8.52-.59 17.6-.723 25.6.603 7.8 1.287 15.58 3.564 22.5 7.35 8.03 4.39 18.57 11.595 25.66 18.996 7.04 7.344 12.7 17.5 16.9 25.412 3.7 6.96 6.17 15.3 8.36 22.12 1.98 6.154 3.8 12.406 4.8 18.794 1.23 7.937 2.22 19.32 2.63 28.83.4 9.405.57 19.432-.16 28.235-.68 8.3-2.18 16.62-4.18 24.6-1.98 7.95-4.55 15.92-7.8 23.32-3.23 7.35-7.14 14.58-11.68 21.06-4.52 6.47-10.13 13.06-15.53 17.87-5.02 4.47-11.22 8-16.88 11.03-5.42 2.9-11.08 5.54-17.04 7.07-6.7 1.7-15.42 3.06-23.23 3.23-8.2.2-17.56-.3-25.9-2.12-8.34-1.8-16.77-4.97-24.15-8.7-7.24-3.68-14.15-8.37-20.12-13.74-5.97-5.38-11.56-12.6-15.72-18.5-3.7-5.23-6.64-10.98-9.23-16.83-2.68-6.06-5.02-13.55-6.83-19.53-1.62-5.37-3.08-11.22-4.02-16.33-.87-4.74-1.24-9.57-1.6-14.375z" class="B" stroke-dasharray="2381 2383" stroke-dashoffset="2382"/></g><g fill="none" stroke-width="1.37"><path d="M1149.86 1169.32l-138.4 69.95" class="C" stroke-dasharray="156 158" stroke-dashoffset="157"/><path d="M1011.45 1239.27L890.764 1760.9" class="D" stroke-dasharray="536 538" stroke-dashoffset="537" transform="matrix(.998419 0 0 .999602 1.40793 .700192)"/><path d="M890.764 1760.9l337.656-47.87" class="E" stroke-dasharray="342 344" stroke-dashoffset="343"/><path d="M890.764 1760.9L1239 1958.26" class="F" stroke-dasharray="401 403" stroke-dashoffset="402"/><path d="M1239 1958.26l-10.15-245.38" class="G" stroke-dasharray="246 248" stroke-dashoffset="247"/><path d="M1228.86 1712.88L1388 1113.8" class="H" stroke-dasharray="620 622" stroke-dashoffset="621"/><path d="M1388 1113.8l-147.7 843.58" class="I" stroke-dasharray="857 859" stroke-dashoffset="858"/><path d="M554.935 1643.17L953.2 1485.6" class="J" stroke-dasharray="429 431" stroke-dashoffset="430"/><path d="M953.2 1485.6l-360.732 94.85" class="K" stroke-dasharray="373 375" stroke-dashoffset="374"/><path d="M592.458 1580.46l-8.496 51.32" class="L" stroke-dasharray="53 55" stroke-dashoffset="54"/><path d="M592.458 1580.46l418.262-339.8" class="M" stroke-dasharray="539 541" stroke-dashoffset="540"/><path d="M554.657 1643.06l-81.396-145.38" class="N" stroke-dasharray="167 169" stroke-dashoffset="168"/><path d="M473.26 1497.68l594.88-366.47" class="O" stroke-dasharray="699 701" stroke-dashoffset="700"/><path d="M473.26 1497.68l161.62 48" class="P" stroke-dasharray="169 171" stroke-dashoffset="170"/><path d="M1194.47 1116.7l34.38-1.63" class="Q" stroke-dasharray="35 37" stroke-dashoffset="36"/></g></g></svg>