<?xml version="1.0" encoding="UTF-8" standalone="no"?>
<!DOCTYPE svg PUBLIC "-//W3C//DTD SVG 1.1//EN" "http://www.w3.org/Graphics/SVG/1.1/DTD/svg11.dtd">
<svg width="100%" height="100%" viewBox="0 0 2048 2732" version="1.1" xmlns="http://www.w3.org/2000/svg" xmlns:xlink="http://www.w3.org/1999/xlink" xml:space="preserve" xmlns:serif="http://www.serif.com/" style="fill-rule:evenodd;clip-rule:evenodd;stroke-linecap:round;stroke-linejoin:round;stroke-miterlimit:1.5;">
    <g transform="matrix(2.05441,0,0,2.05441,-941.037,-1304.52)">
        <g id="Layer1">
            <path d="M1068.89,1132.17L1069.26,712.668L1152.37,638.048L1151.25,1169.44L1068.89,1132.17Z" style="fill:white;stroke:white;stroke-width:0.49px;"/>
            <path d="M1163.64,1168.37L1162.71,639.381L1200.19,711.531L1200.21,886.289C1200.21,886.289 1201.72,884.942 1202.15,884.055C1202.73,882.864 1202.95,880.697 1203.67,879.14C1204.69,876.945 1206.81,873.313 1208.23,870.891C1209.47,868.757 1210.72,866.614 1212.15,864.604C1213.76,862.358 1215.77,859.654 1217.86,857.415C1220.62,854.44 1224.79,849.906 1228.78,846.75C1233.28,843.192 1239.7,839.048 1244.85,836.067C1249.6,833.316 1254.53,830.821 1259.66,828.862C1265.04,826.807 1271.97,824.947 1277.12,823.738C1281.53,822.702 1286.03,821.969 1290.55,821.608C1297.17,821.078 1308.8,820.232 1316.87,820.559C1324.29,820.859 1332.97,822.424 1338.96,823.568C1343.66,824.467 1348.29,825.811 1352.8,827.427C1358.35,829.417 1366.18,831.999 1372.27,835.511C1378.89,839.334 1386.85,845.54 1392.55,850.366C1397.59,854.633 1402.46,859.211 1406.45,864.471C1411.22,870.765 1417.18,880.969 1421.18,888.131C1424.65,894.363 1427.96,900.743 1430.42,907.443C1432.98,914.424 1434.85,922.408 1436.54,930.022C1438.28,937.871 1439.91,947.491 1440.86,954.54C1441.65,960.429 1442.09,966.374 1442.22,972.315C1442.36,978.735 1442.06,986.24 1441.72,993.058C1441.38,999.79 1440.95,1006.53 1440.18,1013.22C1439.39,1020.1 1438.6,1027.59 1436.95,1034.35C1435.33,1041 1432.86,1047.44 1430.29,1053.79C1427.65,1060.31 1424.01,1068.1 1421.11,1073.49C1418.73,1077.91 1415.86,1082.07 1412.92,1086.14C1409.08,1091.47 1403.47,1100 1398.08,1105.48C1392.92,1110.74 1386.8,1115.02 1380.61,1119.03C1374.06,1123.27 1364.48,1128.3 1358.76,1130.93C1354.81,1132.75 1350.51,1133.68 1346.31,1134.81C1341.52,1136.11 1335.56,1138.02 1330.02,1138.7C1322.24,1139.66 1308.18,1140.68 1299.6,1140.56C1292.54,1140.47 1285.47,1139.52 1278.57,1138.01C1271.53,1136.48 1263.97,1133.97 1257.36,1131.36C1251,1128.84 1244.62,1125.79 1238.93,1122.32C1233.35,1118.92 1227.68,1114.62 1223.22,1110.57C1219.09,1106.82 1215.37,1102.13 1212.16,1098.01C1209.17,1094.15 1206.4,1089.76 1204,1085.85C1201.76,1082.19 1198.35,1070.3 1197.81,1074.56C1196.84,1082.23 1198.16,1131.87 1198.16,1131.87L1163.64,1168.37ZM1200.99,999.785C1200.51,993.356 1199.6,983.658 1199.73,975.579C1199.87,967.093 1200.63,956.745 1201.81,948.872C1202.86,941.905 1204.73,935.065 1206.84,928.341C1209.17,920.875 1211.86,911.734 1215.84,904.079C1219.88,896.301 1225.15,888.183 1231.08,881.673C1236.98,875.194 1244.91,869.34 1251.43,865.018C1257.24,861.166 1263.47,857.679 1270.17,855.744C1278.03,853.472 1289.58,852.015 1298.58,851.389C1307.1,850.798 1316.17,850.666 1324.19,851.992C1331.98,853.279 1339.77,855.556 1346.7,859.343C1354.73,863.734 1365.27,870.938 1372.36,878.339C1379.4,885.683 1385.05,895.829 1389.26,903.751C1392.96,910.711 1395.43,919.051 1397.62,925.87C1399.6,932.024 1401.41,938.276 1402.41,944.664C1403.64,952.601 1404.63,963.983 1405.04,973.495C1405.45,982.9 1405.61,992.927 1404.88,1001.73C1404.2,1010.02 1402.7,1018.35 1400.7,1026.34C1398.72,1034.29 1396.15,1042.26 1392.91,1049.66C1389.68,1057.01 1385.77,1064.24 1381.23,1070.72C1376.71,1077.19 1371.1,1083.78 1365.7,1088.59C1360.68,1093.06 1354.48,1096.6 1348.82,1099.62C1343.4,1102.51 1337.74,1105.16 1331.78,1106.69C1325.07,1108.4 1316.36,1109.75 1308.55,1109.92C1300.36,1110.11 1290.99,1109.61 1282.65,1107.8C1274.31,1106 1265.88,1102.83 1258.5,1099.09C1251.26,1095.41 1244.35,1090.72 1238.38,1085.35C1232.41,1079.97 1226.82,1072.74 1222.66,1066.85C1218.97,1061.62 1216.02,1055.87 1213.43,1050.02C1210.75,1043.96 1208.41,1036.47 1206.6,1030.49C1204.98,1025.12 1203.52,1019.27 1202.58,1014.16C1201.71,1009.42 1201.34,1004.59 1200.99,999.785Z" style="fill:white;stroke:white;stroke-width:0.49px;"/>
        </g>
        <g id="Layer2">
            <path d="M1149.86,1169.32L1011.45,1239.27" style="fill:none;stroke:white;stroke-width:1.37px;"/>
            <g transform="matrix(0.998419,0,0,0.999602,1.40793,0.700192)">
                <path d="M1011.45,1239.27L890.764,1760.91" style="fill:none;stroke:white;stroke-width:1.37px;"/>
            </g>
            <path d="M890.764,1760.91L1228.42,1713.04" style="fill:none;stroke:white;stroke-width:1.37px;"/>
            <path d="M890.764,1760.91L1239.01,1958.26" style="fill:none;stroke:white;stroke-width:1.37px;"/>
            <path d="M1239.01,1958.26L1228.86,1712.88" style="fill:none;stroke:white;stroke-width:1.37px;"/>
            <path d="M1228.86,1712.88L1388.01,1113.8" style="fill:none;stroke:white;stroke-width:1.37px;"/>
            <path d="M1388.01,1113.8L1240.32,1957.38" style="fill:none;stroke:white;stroke-width:1.37px;"/>
            <path d="M554.935,1643.17L953.19,1485.61" style="fill:none;stroke:white;stroke-width:1.37px;"/>
            <path d="M953.19,1485.61L592.458,1580.46" style="fill:none;stroke:white;stroke-width:1.37px;"/>
            <path d="M592.458,1580.46L583.962,1631.78" style="fill:none;stroke:white;stroke-width:1.37px;"/>
            <path d="M592.458,1580.46L1010.72,1240.65" style="fill:none;stroke:white;stroke-width:1.37px;"/>
            <path d="M554.657,1643.06L473.261,1497.68" style="fill:none;stroke:white;stroke-width:1.37px;"/>
            <path d="M473.261,1497.68L1068.14,1131.21" style="fill:none;stroke:white;stroke-width:1.37px;"/>
            <path d="M473.261,1497.68L634.881,1545.67" style="fill:none;stroke:white;stroke-width:1.37px;"/>
            <path d="M1194.47,1116.7L1228.85,1115.07" style="fill:none;stroke:white;stroke-width:1.37px;"/>
        </g>
    </g>
</svg>
