<?xml version="1.0" encoding="UTF-8"?>
<svg fill-rule="evenodd" stroke-linecap="round" stroke-linejoin="round" stroke-miterlimit="1.5" viewBox="0 0 2048 2732" xmlns="http://www.w3.org/2000/svg">
<path d="m1254.9 1021.4 0.76-861.83 170.74-153.29-2.3 1091.7-169.2-76.568zm194.66 74.38-1.9-1086.8 77 148.22 0.04 359.02s9.32-20.278 16.477-31.634c21.826-34.646 78.829-103.01 201.83-101.65 181 2 282.22 116.02 279 331-3 200-100 322-286 320-118-1.27-184-62-205-104-6.812-13.624-9-25-9-24l-1.525 114.8-70.918 74.986zm288.44-124.8c-145.05 1.17-212-105-213-263-0.86-136 73-265 216-264 147 1.028 207.85 118.98 206 269-2 162-85 257-209 258z" fill="#fff" stroke="#fff" stroke-width="1.01"/>
<g fill="none" stroke="#fff" stroke-width="2.81">
<path d="m1421.2 1097.7-284.35 143.71m-0.4 0.424-247.55 1071.2m3e-3 0 693.68-98.344m-693.68 98.344 715.44 405.44m3e-3 0.012-20.853-504.1m3e-3 0 326.95-1230.8m0 2e-3 -303.42 1733.1m-1408.1-645.52 818.18-323.69"/>
<path d="m1017.2 1747.5-741.1 194.87m5e-3 0.01-17.455 105.43"/>
<path d="m276.12 1942.4 859.28-698.1m-936.94 826.7-167.22-298.67"/>
<path d="m31.235 1772.3 1222.1-752.88m-1222.1 752.88 332.03 98.6m1149.6-881.29 70.63-3.35"/>
</g>
</svg>
