<svg xmlns="http://www.w3.org/2000/svg" width="100%" height="100%" viewBox="0 0 2048 2732" fill-rule="evenodd" stroke-linecap="round" stroke-linejoin="round" stroke-miterlimit="1.5"><path d="M1254.9 1021.42l.76-861.83L1426.402 6.3l-2.3 1091.7-169.202-76.568zm194.66 74.38l-1.9-1086.77 77 148.225.04 359.025s9.32-20.278 16.477-31.634C1563.003 450 1620.006 381.64 1743.003 383c181 2 282.225 116.015 279 331-3 200-100 322-286 320-117.997-1.27-184-62-205-104-6.812-13.624-9-25-9-24l-1.525 114.805-70.918 74.986zM1738.003 971c-145.05 1.17-212-105-213-263-.86-136 73-265 216-264 147 1.028 207.852 118.98 206 269-2 162-85 257-209 258z" fill="#fff" stroke="#fff" stroke-width="1.01"/><g fill="none" stroke-width="2.81"><path d="M1421.25 1097.74l-284.35 143.706m-.4.424L888.954 2313.1m.003 0l693.684-98.344M888.957 2313.1l715.44 405.438m.003.012l-20.853-504.1m.003 0L1910.5 983.68m0 .002l-303.416 1733.06M199.027 2071.22l818.18-323.693" stroke="#fff"/><path d="M1017.2 1747.53L276.1 1942.4m.005.01l-17.455 105.432" stroke="#fff"/><path d="M276.115 1942.4l859.28-698.1M198.456 2071l-167.22-298.67" stroke="#fff"/><path d="M31.235 1772.33l1222.12-752.88M31.235 1772.33l332.034 98.6M1512.9 989.64l70.63-3.35" stroke="#fff"/></g></svg>