<!--?xml version="1.0" encoding="UTF-8" standalone="no"?-->

<svg width="100%" height="100%" viewBox="0 0 2048 2048" version="1.1" xmlns="http://www.w3.org/2000/svg" xmlns:xlink="http://www.w3.org/1999/xlink" xml:space="preserve" xmlns:serif="http://www.serif.com/" style="fill-rule: evenodd; clip-rule: evenodd; stroke-linecap: round; stroke-linejoin: round; stroke-miterlimit: 1.5;">

    <path d="M676.261,815.643L665.661,754.77L665.383,666.014L674.441,581.833L675.79,514.957L687.91,462.882L752.389,425.11L825.39,406.36L848.174,410.116" style="fill:none;stroke:black;stroke-width:2.11px;" class="hHvbtRQF_0"></path>
    <path d="M1025.17,462.446L968.448,380.054L879.16,332.873L806.066,364.565L752.847,424.775" style="fill:none;stroke:black;stroke-width:2.11px;" class="hHvbtRQF_1"></path>
    <path d="M1243.82,455.155L1177.91,370.267L1075.66,342.964L948.775,332.703L880.852,333.922" style="fill:none;stroke:black;stroke-width:2.11px;" class="hHvbtRQF_2"></path>
      <path d="M1075.66,342.964L989.658,270.709L919.588,267.087L830.277,288.421L777.648,316.838L880.225,333.415" style="fill:none;stroke:black;stroke-width:2.11px;" class="hHvbtRQF_3"></path>


    <path d="M777.648,316.838L720.994,385.394L693.719,438.54L688.036,463.471" style="fill:none;stroke:black;stroke-width:2.11px;" class="hHvbtRQF_4"></path>


    <path d="M1294.94,475.027L1250.56,392.829L1153.31,330.349L1073.99,341.501" style="fill:none;stroke:black;stroke-width:2.11px;" class="hHvbtRQF_5"></path>


    <path d="M1369.36,840.605L1369.89,814.615L1385.42,743.52L1396.3,687.767L1401.05,564.701L1394.55,510.109L1313.41,435.061L1251.96,394.736" style="fill:none;stroke:black;stroke-width:2.11px;" class="hHvbtRQF_6"></path>


    <path d="M1394.55,510.109L1369.25,425.206L1312.81,343.149L1231.26,291.721L1082.65,261.067L991.173,270.819" style="fill:none;stroke:black;stroke-width:2.11px;" class="hHvbtRQF_7"></path>


    <path d="M1312.81,343.149L1233.94,267.459L1115.82,224.334L989.326,216.069L908.618,240.771L828.577,290.111" style="fill:none;stroke:black;stroke-width:2.11px;" class="hHvbtRQF_8"></path>


    <path d="M1081.36,772.824L1091.52,732.685L1122.31,643.058L1175.05,560.475L1240.94,480.705L1243.8,458.132" style="fill:none;stroke:black;stroke-width:2.11px;" class="hHvbtRQF_9"></path>


    <path d="M890.568,728.407L947.742,677.564L946.147,563.089L900.189,455.803L845.533,411.699" style="fill:none;stroke:black;stroke-width:2.11px;" class="hHvbtRQF_10"></path>


    <path d="M828.817,827.675L829.98,843.362L833.22,860.341L853.12,848.335" style="stroke:black;stroke-width:2.11px;" class="hHvbtRQF_11"></path>


    <path d="M1076.16,875.348L1124.08,917.043L1165.62,935.697L1206.02,930.492L1164.4,897.411L1142.89,880.818L1110.68,860.953L1124.76,905.936L1076.16,875.348Z" style="fill:none;stroke:black;stroke-width:2.11px;" class="hHvbtRQF_12"></path>


    <path d="M1076.29,833.472L1118.27,809.133L1197.45,801.962L1207.02,818.864L1211.62,833.888L1155.4,826.015L1111.9,839.21L1076.29,833.472Z" style="fill:none;stroke:black;stroke-width:2.11px;" class="hHvbtRQF_13"></path>


    <path d="M902.886,779.878L944.383,795.26L974.836,829.223L961.373,870.165L891.955,922.272L940.324,855.238L902.886,779.878Z" style="fill:none;stroke:black;stroke-width:2.11px;" class="hHvbtRQF_14"></path>


    <path d="M782.116,850.77L812.586,830.568L850.159,818.765L916.648,838.964L928.54,851.803L877.971,875.447L839.758,878.084L808.684,866.702L782.116,850.77Z" style="fill:none;stroke:black;stroke-width:2.11px;" class="hHvbtRQF_15"></path>


    <path d="M812.586,830.568L806.05,850.625L826.956,860.503L857.396,864.234L885.379,860.686L927.648,851.424L916.336,838.507L849.813,818.865L812.586,830.568Z" style="fill:none;stroke:black;stroke-width:2.11px;" class="hHvbtRQF_16"></path>


    <path d="M774.747,839.669L792.145,821.434L817.704,808.957L855.767,802.833L893.355,805.154L921.462,817.261L928.165,851.434L916.013,838.967L849.501,818.634L811.872,831.989L781.81,850.619L774.747,839.669Z" style="fill:none;stroke:black;stroke-width:2.11px;" class="hHvbtRQF_17"></path>


    <path d="M828.481,826.094L849.501,818.634L884.074,830.471L886.319,846.017L880.536,855.065L873.947,862.169L857.086,863.735L837.923,862.098L833.086,860.914L838.301,853.704L843.821,847.504L834.817,834.795L828.481,826.094Z" style="fill:none;stroke:black;stroke-width:2.11px;" class="hHvbtRQF_18"></path>


    <path d="M931.979,834.45L945.606,795.247L986.39,782.001L980.415,756.34L890.608,728.918L902.739,779.538L945.606,795.247L902.739,779.538L855.001,775.753L807.318,775.854L755.416,745.554L801.554,718.765L890.608,728.918L801.554,718.765L755.416,745.554L890.608,728.918L920.39,738.011" style="fill:none;stroke:black;stroke-width:2.11px;" class="hHvbtRQF_19"></path>


    <path d="M982.536,1044.3L959.315,1029.12L941.307,1039.34L930.564,1051.15L949.982,1068.24L963.486,1052.92L982.536,1044.3Z" style="fill:none;stroke:black;stroke-width:2.11px;" class="hHvbtRQF_20"></path>


    <path d="M1056.69,1044.78L1071.39,1036.88L1095.12,1042.92L1098.32,1060.64L1086.3,1067.48L1068.69,1064.69L1070.34,1056.54L1056.69,1044.78Z" style="fill:none;stroke:black;stroke-width:2.11px;" class="hHvbtRQF_21"></path>


    <path d="M949.688,1068.38L927.042,1059.54L915.007,1043.01L915.683,1016.01L923.775,994.717L955.364,976.559L958.412,1029.93L941.424,1038.89L931.108,1051.13L949.688,1068.38Z" style="fill:none;stroke:black;stroke-width:2.11px;" class="hHvbtRQF_22"></path>


    <path d="M923.775,994.717L880.785,1014.86L864.604,1040.77L844.076,1091.59L843.384,1121.58L882.615,1084.02L903.377,1044.15L916.017,1016.26L923.775,994.717Z" style="fill:none;stroke:black;stroke-width:2.11px;" class="hHvbtRQF_23"></path>


    <path d="M982.946,1044.86L1002.65,1063.15L1027.94,1063.31L1056.55,1045.25" style="fill:none;stroke:black;stroke-width:2.11px;" class="hHvbtRQF_24"></path>


    <path d="M1097.9,1060.81L1106.91,1061.42L1118.41,1045.38L1125.16,1022.47L1097.17,983.997L1094.39,1042.6L1097.9,1060.81Z" style="fill:none;stroke:black;stroke-width:2.11px;" class="hHvbtRQF_25"></path>


    <path d="M1118.41,1045.38L1139.94,1076.87L1172.97,1110.02L1174.89,1062.52L1155.5,1026.37L1098.07,984.235L1125.27,1022.71L1118.41,1045.38Z" style="fill:none;stroke:black;stroke-width:2.11px;" class="hHvbtRQF_26"></path>


    <path d="M981.26,1043.21L997.306,1019.86L992.979,980.458L955.51,977.237L957.906,1029.18L981.26,1043.21Z" style="fill:none;stroke:black;stroke-width:2.11px;" class="hHvbtRQF_27"></path>


    <path d="M843.829,1121.89L815.31,1174.43L808.069,1216.73L745.08,1162.71L707.872,1105.57L694.212,1029.4L684.032,966.879L723.377,908.04L770.582,864.415L783.926,850.089" style="fill:none;stroke:black;stroke-width:2.11px;" class="hHvbtRQF_28"></path>


    <path d="M684.032,966.879L674.104,925.387L674.914,877.77L677.371,816.578L744.825,789.87L805.393,775.946L791.72,821.115" style="fill:none;stroke:black;stroke-width:2.11px;" class="hHvbtRQF_29"></path>


    <path d="M674.914,877.77L661.49,852.848L647.851,832.761L645.34,854.563L650.967,891.21L657.923,906.418L674.914,877.77Z" style="fill:none;stroke:black;stroke-width:2.11px;" class="hHvbtRQF_30"></path>


    <path d="M676.192,817.636L658.626,802.427L647.308,832.544" style="fill:none;stroke:black;stroke-width:2.11px;" class="hHvbtRQF_31"></path>


    <path d="M658.626,802.427L643.269,810.927L633.155,829.546L641.213,887.58L654.328,920.156L657.503,944.766L655.32,965.371L660.418,1011.24L670.83,1033.03L674.574,1004.66L655.32,965.371" style="fill:none;stroke:black;stroke-width:2.11px;" class="hHvbtRQF_32"></path>


    <path d="M674.574,1004.66L666.991,957.537L673.825,925.935" style="fill:none;stroke:black;stroke-width:2.11px;" class="hHvbtRQF_33"></path>


    <path d="M676.321,816.897L675.387,767.384L680.028,688.412L695.24,619.964L712.551,559.834L740.097,511.323L780.251,449.887L848.278,409.59L911.429,420.292L975.974,449.258L1027.38,462.747L1090.61,462.567L1139.29,462.49L1195.1,460.246L1244.14,456.982L1295.1,476.973L1320.86,519.985L1331.62,575.843L1349.47,632.796L1366.03,689.141L1364.51,756.122L1354.82,817.678L1357.36,862.357L1293.5,789.37" style="fill:none;stroke:black;stroke-width:2.11px;" class="hHvbtRQF_34"></path>


    <path d="M1357.36,862.357L1369.37,842.395L1386.15,835.172L1404.11,848.326L1410.63,864.748L1399.97,871.998L1398.37,862.561L1383.7,867.54L1357.36,862.357Z" style="fill:none;stroke:black;stroke-width:2.11px;" class="hHvbtRQF_35"></path>


    <path d="M1383.7,867.54L1381,900.796L1383.18,921.269L1390.67,944.352L1389.17,971.411L1398.55,916.022L1395.9,890.514L1401.12,872.393" style="fill:none;stroke:black;stroke-width:2.11px;" class="hHvbtRQF_36"></path>


    <path d="M1357.66,861.103L1355.93,933.041L1353.23,979.705L1345.01,1022.05L1336.77,1063.75L1331.26,1092L1314.8,1132.43L1287.26,1168.16L1264.86,1193.46L1220.63,1201.56L1200.02,1154.05L1189.6,1119.8L1173.77,1108.97" style="fill:none;stroke:black;stroke-width:2.11px;" class="hHvbtRQF_37"></path>


    <path d="M1348.65,1003.29L1358.68,1025.37L1355.54,1059.29L1361.47,1064.92L1382.28,1023.71L1398.89,974.281L1389.82,972.958" style="fill:none;stroke:black;stroke-width:2.11px;" class="hHvbtRQF_38"></path>


    <path d="M1410.49,865.193L1406.77,927.408L1403.25,953.034L1399.45,975.024" style="fill:none;stroke:black;stroke-width:2.11px;" class="hHvbtRQF_39"></path>


    <path d="M1358.82,1023.12L1366.11,1002.25L1379.85,987.805L1390,972.478L1374.19,946.627L1358.15,921.091" style="fill:none;stroke:black;stroke-width:2.11px;" class="hHvbtRQF_40"></path>


    <path d="M857.88,1109.94L888.01,1099.71L926.815,1087.07L949.89,1068.06L1002.31,1063.33L1034.29,1076.31L1073.9,1074.65L1085.72,1067.83" style="fill:none;stroke:black;stroke-width:2.11px;" class="hHvbtRQF_41"></path>


    <path d="M1073.9,1074.65L1096.01,1077.45L1122.03,1098.71L1150.28,1111.78L1173.56,1110.59" style="fill:none;stroke:black;stroke-width:2.11px;" class="hHvbtRQF_42"></path>


    <path d="M1219.31,1199.71L1128.82,1188.49L1081.76,1169.43L1041.7,1171.25L993.098,1169.9L947.995,1168.33L910.83,1182.95L917.725,1195.05" style="fill:none;stroke:black;stroke-width:2.11px;" class="hHvbtRQF_43"></path>


    <path d="M1361.59,1064.4L1365.43,1111.81L1367.64,1157.1L1344.38,1258.08L1305.28,1330.21L1297.17,1400.07L1265.85,1443L1211.74,1485.44L1250.25,1337.4L1305.28,1330.21" style="fill:none;stroke:black;stroke-width:2.11px;" class="hHvbtRQF_44"></path>


    <path d="M1250.25,1337.4L1263.59,1272.43L1244.93,1227.42L1264.84,1194.25" style="fill:none;stroke:black;stroke-width:2.11px;" class="hHvbtRQF_45"></path>


    <path d="M1244.93,1227.42L1212.81,1233.26L1164.63,1226.55L1124.76,1222.55L1102.87,1243.96L1058.74,1233.16L1025.55,1230.1L983.264,1227.12L950.592,1234.66L924.427,1234.94L908.928,1211.99L918.073,1195.44" style="fill:none;stroke:black;stroke-width:2.11px;" class="hHvbtRQF_46"></path>


    <path d="M908.928,1211.99L937.227,1216.96L982.718,1227.83" style="fill:none;stroke:black;stroke-width:2.11px;" class="hHvbtRQF_47"></path>


    <path d="M1052.37,1232.05L1072.57,1220.61L1107.91,1216.87L1123.32,1211.82L1101.03,1192.73L1049.32,1187.7L1010.97,1189.84L987.356,1190.36L961.307,1190.8L932.729,1185.27L911.921,1183.31" style="fill:none;stroke:black;stroke-width:2.11px;" class="hHvbtRQF_48"></path>


    <path d="M808.696,1216.73L846.845,1199.25L882.129,1189.05L910.8,1182.71" style="fill:none;stroke:black;stroke-width:2.11px;" class="hHvbtRQF_49"></path>


    <path d="M1224.31,1338.21L1234.72,1395.39" style="fill:none;stroke:black;stroke-width:2.11px;" class="hHvbtRQF_50"></path>


    <path d="M1104.08,1245.04L1124.05,1294.09L1143.08,1347.71L1152.63,1400.85L1194.95,1363.44L1224.47,1338.01" style="fill:none;stroke:black;stroke-width:2.11px;" class="hHvbtRQF_51"></path>


    <path d="M671.417,1033.5L661.456,1071.6L670.163,1130L680.281,1194.31L697.942,1271.11L807.337,1217.45" style="fill:none;stroke:black;stroke-width:2.11px;" class="hHvbtRQF_52"></path>


    <path d="M697.942,1271.11L728.104,1340.54L786.686,1426.54L844.467,1295.73L807.486,1216.68" style="fill:none;stroke:black;stroke-width:2.11px;" class="hHvbtRQF_53"></path>


    <path d="M924.863,1234.53L844.467,1295.73" style="fill:none;stroke:black;stroke-width:2.11px;" class="hHvbtRQF_54"></path>


    <path d="M924.863,1234.53L944.533,1328.09L1011.52,1340.78L1103.29,1244.87" style="fill:none;stroke:black;stroke-width:2.11px;" class="hHvbtRQF_55"></path>


    <path d="M1011.52,1340.78L1046.99,1380.83L1087.58,1412.43L1117.44,1450.39L1151.47,1401.79" style="fill:none;stroke:black;stroke-width:2.11px;" class="hHvbtRQF_56"></path>


    <path d="M944.315,1328.99L911.766,1390.22L919.398,1460.62L866.083,1482.59L786.7,1427.24" style="fill:none;stroke:black;stroke-width:2.11px;" class="hHvbtRQF_57"></path>


    <path d="M1117.8,1451.53L1009.4,1534.38L937.176,1528.14L920.343,1460.2" style="fill:none;stroke:black;stroke-width:2.11px;" class="hHvbtRQF_58"></path>


    <path d="M727.637,1341.51L775.704,1467.77L854.146,1564.22L940.539,1601.92L938.053,1528.27" style="fill:none;stroke:black;stroke-width:2.11px;" class="hHvbtRQF_59"></path>


    <path d="M1211.5,1486.03L1122.21,1572.01L1118.15,1451.58" style="fill:none;stroke:black;stroke-width:2.11px;" class="hHvbtRQF_60"></path>


    <path d="M1009.99,1536.47L1122.21,1572.01L1022.23,1604.77L940.831,1602.67" style="fill:none;stroke:black;stroke-width:2.11px;" class="hHvbtRQF_61"></path>


    <path d="M1224.36,1338.31L1235.25,1270.58L1213.5,1234.14" style="fill:none;stroke:black;stroke-width:2.11px;" class="hHvbtRQF_62"></path>


    <path d="M1110,860.502L1136.93,846.533L1186.08,839.891L1256.87,876.66L1198.72,895.978L1143.13,880.076L1110,860.502Z" style="fill:none;stroke:black;stroke-width:2.11px;" class="hHvbtRQF_63"></path>


    <path d="M1111.91,839.371L1155.66,825.926L1201.14,831.07L1248.97,850.865L1268.38,874.822L1256.18,876.796L1185.95,840.287L1136.84,846.563L1111.12,860.694L1111.91,839.371Z" style="fill:none;stroke:black;stroke-width:2.11px;" class="hHvbtRQF_64"></path>


    <path d="M1242.96,869.926L1214.25,880.346L1192.16,882.702L1159.39,874.255L1111.78,860.01L1142.9,880.464L1198.25,896.076L1255.07,876.418L1242.96,869.926Z" style="fill:none;stroke:black;stroke-width:2.11px;" class="hHvbtRQF_65"></path>


    <path d="M1197.18,801.82L1207.79,819.045L1212.53,835.565L1155.77,825.784L1112.33,839.344L1109.78,860.238L1125.15,906.698L1076.54,874.905L1075.18,833.153L1114.51,808.769L1197.18,801.82Z" style="fill:none;stroke:black;stroke-width:2.11px;" class="hHvbtRQF_66"></path>


    <path d="M1049.15,799.15L1077.2,808.934L1114.72,809.755L1190.1,757.486L1117.82,762.661L1081.23,772.6L1049.15,799.15Z" style="fill:none;stroke:black;stroke-width:2.11px;" class="hHvbtRQF_67"></path>


    <path d="M1196.39,801.849L1237.99,799.146L1293.56,788.623L1262.14,765.584L1209.54,756.695L1189.12,757.817L1112.87,808.86L1196.39,801.849Z" style="fill:none;stroke:black;stroke-width:2.11px;" class="hHvbtRQF_68"></path>


    <path d="M1163.14,844.003L1154.73,859.394L1159.44,873.725L1191.91,882.999L1205.06,881.167L1202.54,873.503L1201.87,865.561L1213.65,856.045L1186.47,841.088" style="fill:none;stroke:black;stroke-width:2.11px;" class="hHvbtRQF_69"></path>


    <path d="M1186.47,841.088L1213.65,856.045L1212.19,870.062L1204.44,880.218L1192.43,883.088L1159.9,874.688L1155.41,859.763L1163.17,844.361L1186.47,841.088Z" style="stroke:black;stroke-width:2.11px;" class="hHvbtRQF_70"></path>


    <path d="M884.496,830.373L886.61,845.221L873.953,862.398L834.893,860.482L844.117,847.302L829.48,827.324L849.485,818.773L884.496,830.373Z" style="stroke:black;stroke-width:2.11px;" class="hHvbtRQF_71"></path>


    <path d="M992.557,980.294L1003.66,934.17L1007.67,863.623L1005.85,815.604L986.109,783.114" style="fill:none;stroke:black;stroke-width:2.11px;" class="hHvbtRQF_72"></path>


    <path d="M1057.86,1044.13L1042.7,1012.72L1042.33,958.546L1022.07,921.004L1008.21,865.49" style="fill:none;stroke:black;stroke-width:2.11px;" class="hHvbtRQF_73"></path>


    <path d="M1042.33,958.546L1037.28,908.871L1036.59,858.161L1044.28,815L1048.99,799.563" style="fill:none;stroke:black;stroke-width:2.11px;" class="hHvbtRQF_74"></path>

<style data-made-with="vivus-instant">.hHvbtRQF_0{stroke-dasharray:529 531;stroke-dashoffset:530;animation:hHvbtRQF_draw 2000ms linear 0ms forwards;}.hHvbtRQF_1{stroke-dasharray:362 364;stroke-dashoffset:363;animation:hHvbtRQF_draw 2000ms linear 13ms forwards;}.hHvbtRQF_2{stroke-dasharray:409 411;stroke-dashoffset:410;animation:hHvbtRQF_draw 2000ms linear 27ms forwards;}.hHvbtRQF_3{stroke-dasharray:439 441;stroke-dashoffset:440;animation:hHvbtRQF_draw 2000ms linear 40ms forwards;}.hHvbtRQF_4{stroke-dasharray:175 177;stroke-dashoffset:176;animation:hHvbtRQF_draw 2000ms linear 54ms forwards;}.hHvbtRQF_5{stroke-dasharray:290 292;stroke-dashoffset:291;animation:hHvbtRQF_draw 2000ms linear 67ms forwards;}.hHvbtRQF_6{stroke-dasharray:518 520;stroke-dashoffset:519;animation:hHvbtRQF_draw 2000ms linear 81ms forwards;}.hHvbtRQF_7{stroke-dasharray:529 531;stroke-dashoffset:530;animation:hHvbtRQF_draw 2000ms linear 94ms forwards;}.hHvbtRQF_8{stroke-dasharray:541 543;stroke-dashoffset:542;animation:hHvbtRQF_draw 2000ms linear 108ms forwards;}.hHvbtRQF_9{stroke-dasharray:361 363;stroke-dashoffset:362;animation:hHvbtRQF_draw 2000ms linear 121ms forwards;}.hHvbtRQF_10{stroke-dasharray:378 380;stroke-dashoffset:379;animation:hHvbtRQF_draw 2000ms linear 135ms forwards;}.hHvbtRQF_11{stroke-dasharray:57 59;stroke-dashoffset:58;animation:hHvbtRQF_draw 2000ms linear 148ms forwards;}.hHvbtRQF_12{stroke-dasharray:373 375;stroke-dashoffset:374;animation:hHvbtRQF_draw 2000ms linear 162ms forwards;}.hHvbtRQF_13{stroke-dasharray:302 304;stroke-dashoffset:303;animation:hHvbtRQF_draw 2000ms linear 175ms forwards;}.hHvbtRQF_14{stroke-dasharray:387 389;stroke-dashoffset:388;animation:hHvbtRQF_draw 2000ms linear 189ms forwards;}.hHvbtRQF_15{stroke-dasharray:322 324;stroke-dashoffset:323;animation:hHvbtRQF_draw 2000ms linear 202ms forwards;}.hHvbtRQF_16{stroke-dasharray:272 274;stroke-dashoffset:273;animation:hHvbtRQF_draw 2000ms linear 216ms forwards;}.hHvbtRQF_17{stroke-dasharray:371 373;stroke-dashoffset:372;animation:hHvbtRQF_draw 2000ms linear 229ms forwards;}.hHvbtRQF_18{stroke-dasharray:180 182;stroke-dashoffset:181;animation:hHvbtRQF_draw 2000ms linear 243ms forwards;}.hHvbtRQF_19{stroke-dasharray:957 959;stroke-dashoffset:958;animation:hHvbtRQF_draw 2000ms linear 256ms forwards;}.hHvbtRQF_20{stroke-dasharray:132 134;stroke-dashoffset:133;animation:hHvbtRQF_draw 2000ms linear 270ms forwards;}.hHvbtRQF_21{stroke-dasharray:118 120;stroke-dashoffset:119;animation:hHvbtRQF_draw 2000ms linear 283ms forwards;}.hHvbtRQF_22{stroke-dasharray:246 248;stroke-dashoffset:247;animation:hHvbtRQF_draw 2000ms linear 297ms forwards;}.hHvbtRQF_23{stroke-dasharray:316 318;stroke-dashoffset:317;animation:hHvbtRQF_draw 2000ms linear 310ms forwards;}.hHvbtRQF_24{stroke-dasharray:87 89;stroke-dashoffset:88;animation:hHvbtRQF_draw 2000ms linear 324ms forwards;}.hHvbtRQF_25{stroke-dasharray:178 180;stroke-dashoffset:179;animation:hHvbtRQF_draw 2000ms linear 337ms forwards;}.hHvbtRQF_26{stroke-dasharray:316 318;stroke-dashoffset:317;animation:hHvbtRQF_draw 2000ms linear 351ms forwards;}.hHvbtRQF_27{stroke-dasharray:185 187;stroke-dashoffset:186;animation:hHvbtRQF_draw 2000ms linear 364ms forwards;}.hHvbtRQF_28{stroke-dasharray:550 552;stroke-dashoffset:551;animation:hHvbtRQF_draw 2000ms linear 378ms forwards;}.hHvbtRQF_29{stroke-dasharray:334 336;stroke-dashoffset:335;animation:hHvbtRQF_draw 2000ms linear 391ms forwards;}.hHvbtRQF_30{stroke-dasharray:162 164;stroke-dashoffset:163;animation:hHvbtRQF_draw 2000ms linear 405ms forwards;}.hHvbtRQF_31{stroke-dasharray:56 58;stroke-dashoffset:57;animation:hHvbtRQF_draw 2000ms linear 418ms forwards;}.hHvbtRQF_32{stroke-dasharray:321 323;stroke-dashoffset:322;animation:hHvbtRQF_draw 2000ms linear 432ms forwards;}.hHvbtRQF_33{stroke-dasharray:81 83;stroke-dashoffset:82;animation:hHvbtRQF_draw 2000ms linear 445ms forwards;}.hHvbtRQF_34{stroke-dasharray:1426 1428;stroke-dashoffset:1427;animation:hHvbtRQF_draw 2000ms linear 459ms forwards;}.hHvbtRQF_35{stroke-dasharray:147 149;stroke-dashoffset:148;animation:hHvbtRQF_draw 2000ms linear 472ms forwards;}.hHvbtRQF_36{stroke-dasharray:207 209;stroke-dashoffset:208;animation:hHvbtRQF_draw 2000ms linear 486ms forwards;}.hHvbtRQF_37{stroke-dasharray:508 510;stroke-dashoffset:509;animation:hHvbtRQF_draw 2000ms linear 500ms forwards;}.hHvbtRQF_38{stroke-dasharray:174 176;stroke-dashoffset:175;animation:hHvbtRQF_draw 2000ms linear 513ms forwards;}.hHvbtRQF_39{stroke-dasharray:111 113;stroke-dashoffset:112;animation:hHvbtRQF_draw 2000ms linear 527ms forwards;}.hHvbtRQF_40{stroke-dasharray:121 123;stroke-dashoffset:122;animation:hHvbtRQF_draw 2000ms linear 540ms forwards;}.hHvbtRQF_41{stroke-dasharray:243 245;stroke-dashoffset:244;animation:hHvbtRQF_draw 2000ms linear 554ms forwards;}.hHvbtRQF_42{stroke-dasharray:111 113;stroke-dashoffset:112;animation:hHvbtRQF_draw 2000ms linear 567ms forwards;}.hHvbtRQF_43{stroke-dasharray:330 332;stroke-dashoffset:331;animation:hHvbtRQF_draw 2000ms linear 581ms forwards;}.hHvbtRQF_44{stroke-dasharray:680 682;stroke-dashoffset:681;animation:hHvbtRQF_draw 2000ms linear 594ms forwards;}.hHvbtRQF_45{stroke-dasharray:154 156;stroke-dashoffset:155;animation:hHvbtRQF_draw 2000ms linear 608ms forwards;}.hHvbtRQF_46{stroke-dasharray:380 382;stroke-dashoffset:381;animation:hHvbtRQF_draw 2000ms linear 621ms forwards;}.hHvbtRQF_47{stroke-dasharray:76 78;stroke-dashoffset:77;animation:hHvbtRQF_draw 2000ms linear 635ms forwards;}.hHvbtRQF_48{stroke-dasharray:295 297;stroke-dashoffset:296;animation:hHvbtRQF_draw 2000ms linear 648ms forwards;}.hHvbtRQF_49{stroke-dasharray:109 111;stroke-dashoffset:110;animation:hHvbtRQF_draw 2000ms linear 662ms forwards;}.hHvbtRQF_50{stroke-dasharray:59 61;stroke-dashoffset:60;animation:hHvbtRQF_draw 2000ms linear 675ms forwards;}.hHvbtRQF_51{stroke-dasharray:260 262;stroke-dashoffset:261;animation:hHvbtRQF_draw 2000ms linear 689ms forwards;}.hHvbtRQF_52{stroke-dasharray:365 367;stroke-dashoffset:366;animation:hHvbtRQF_draw 2000ms linear 702ms forwards;}.hHvbtRQF_53{stroke-dasharray:411 413;stroke-dashoffset:412;animation:hHvbtRQF_draw 2000ms linear 716ms forwards;}.hHvbtRQF_54{stroke-dasharray:102 104;stroke-dashoffset:103;animation:hHvbtRQF_draw 2000ms linear 729ms forwards;}.hHvbtRQF_55{stroke-dasharray:297 299;stroke-dashoffset:298;animation:hHvbtRQF_draw 2000ms linear 743ms forwards;}.hHvbtRQF_56{stroke-dasharray:213 215;stroke-dashoffset:214;animation:hHvbtRQF_draw 2000ms linear 756ms forwards;}.hHvbtRQF_57{stroke-dasharray:295 297;stroke-dashoffset:296;animation:hHvbtRQF_draw 2000ms linear 770ms forwards;}.hHvbtRQF_58{stroke-dasharray:279 281;stroke-dashoffset:280;animation:hHvbtRQF_draw 2000ms linear 783ms forwards;}.hHvbtRQF_59{stroke-dasharray:428 430;stroke-dashoffset:429;animation:hHvbtRQF_draw 2000ms linear 797ms forwards;}.hHvbtRQF_60{stroke-dasharray:245 247;stroke-dashoffset:246;animation:hHvbtRQF_draw 2000ms linear 810ms forwards;}.hHvbtRQF_61{stroke-dasharray:305 307;stroke-dashoffset:306;animation:hHvbtRQF_draw 2000ms linear 824ms forwards;}.hHvbtRQF_62{stroke-dasharray:112 114;stroke-dashoffset:113;animation:hHvbtRQF_draw 2000ms linear 837ms forwards;}.hHvbtRQF_63{stroke-dasharray:318 320;stroke-dashoffset:319;animation:hHvbtRQF_draw 2000ms linear 851ms forwards;}.hHvbtRQF_64{stroke-dasharray:366 368;stroke-dashoffset:367;animation:hHvbtRQF_draw 2000ms linear 864ms forwards;}.hHvbtRQF_65{stroke-dasharray:305 307;stroke-dashoffset:306;animation:hHvbtRQF_draw 2000ms linear 878ms forwards;}.hHvbtRQF_66{stroke-dasharray:440 442;stroke-dashoffset:441;animation:hHvbtRQF_draw 2000ms linear 891ms forwards;}.hHvbtRQF_67{stroke-dasharray:311 313;stroke-dashoffset:312;animation:hHvbtRQF_draw 2000ms linear 905ms forwards;}.hHvbtRQF_68{stroke-dasharray:387 389;stroke-dashoffset:388;animation:hHvbtRQF_draw 2000ms linear 918ms forwards;}.hHvbtRQF_69{stroke-dasharray:142 144;stroke-dashoffset:143;animation:hHvbtRQF_draw 2000ms linear 932ms forwards;}.hHvbtRQF_70{stroke-dasharray:161 163;stroke-dashoffset:162;animation:hHvbtRQF_draw 2000ms linear 945ms forwards;}.hHvbtRQF_71{stroke-dasharray:175 177;stroke-dashoffset:176;animation:hHvbtRQF_draw 2000ms linear 959ms forwards;}.hHvbtRQF_72{stroke-dasharray:205 207;stroke-dashoffset:206;animation:hHvbtRQF_draw 2000ms linear 972ms forwards;}.hHvbtRQF_73{stroke-dasharray:189 191;stroke-dashoffset:190;animation:hHvbtRQF_draw 2000ms linear 986ms forwards;}.hHvbtRQF_74{stroke-dasharray:161 163;stroke-dashoffset:162;animation:hHvbtRQF_draw 2000ms linear 1000ms forwards;}@keyframes hHvbtRQF_draw{100%{stroke-dashoffset:0;}}@keyframes hHvbtRQF_fade{0%{stroke-opacity:1;}94.44444444444444%{stroke-opacity:1;}100%{stroke-opacity:0;}}</style></svg>
