<!--?xml version="1.0" encoding="UTF-8" standalone="no"?-->
<svg width="100%" opacity = "0.5" height="100%" viewBox="0 0 360 1280" version="1.1" 
    xmlns="http://www.w3.org/2000/svg" 
    xmlns:xlink="http://www.w3.org/1999/xlink" xml:space="preserve" 
    xmlns:serif="http://www.serif.com/" style="fill-rule: evenodd; clip-rule: evenodd; stroke-linecap: round; stroke-linejoin: round; stroke-miterlimit: 1.5;">
    <g>
        <path d="M138,555l-16,-184l-125,207.755l86.182,36.152l54.818,-59.907l-141,23.755l86.182,36.152l38.818,-243.907" style="fill:none;stroke:#000;stroke-opacity:0.67;stroke-width:0.3px;" class="FYYZImAo_0"></path>
        <path d="M311.118,856.074l43.882,-49.074l-112.871,18.924l68.989,30.15Z" style="fill:none;stroke:#000;stroke-opacity:0.3;stroke-width:0.3px;" class="FYYZImAo_1"></path>
        <path d="M291.706,1037.37l-42.706,-163.371l79.621,73.067l18.379,56.933l-55.294,33.371l36.915,-90.304l-79.621,-73.067l98,130l-55.398,262.148l-96.16,-82.613l66.947,-101.65l29.317,-44.514l-22.941,119.891l-73.323,26.273l73.323,-26.273l22.837,108.886l-22.837,-108.886l78.235,-153.262l-55.294,33.371" style="fill:none;stroke:#000;stroke-opacity:0.48;stroke-width:0.3px;" class="FYYZImAo_2"></path>
        <path d="M347,1004l-55.398,262.148l55.398,-262.148l-76.982,150.348" style="fill:none;stroke:#000;stroke-opacity:0.52;stroke-width:0.3px;" class="FYYZImAo_3"></path>
        <g>
            <path d="M12.826,5l140.574,90.794l-67.414,123.025l-81.631,-86.429l8.471,-127.39Z" style="fill:none;stroke:#000;stroke-width:0.3px;" class="FYYZImAo_4"></path>
            <path d="M85.845,218.819l-33.086,-96.695l-40.075,-117.124l-8.329,127.283l46.251,-64.701l102.653,28.212l-102.653,-28.212l-37.922,-62.582" style="fill:none;stroke:#000;stroke-opacity:0.45;stroke-width:0.3px;" class="FYYZImAo_5"></path>
            <path d="M36,362l76,-160l-110,95.36l45,-11.36l-11,76l-34,-64.64" style="fill:none;stroke:#000;stroke-opacity:0.49;stroke-width:0.3px;" class="FYYZImAo_6"></path>
            <path d="M47,286l65,-84" style="fill:none;stroke:#000;stroke-opacity:0.58;stroke-width:0.3px;" class="FYYZImAo_7"></path>
            <path d="M0,460l154,-209l-16,304l-138,-95Z" style="fill:none;stroke:#000;stroke-opacity:0.57;stroke-width:0.3px;" class="FYYZImAo_8"></path>
            <path d="M257.684,2l84.235,182.645l10.057,-145.545l-82.018,123.38l-12.274,-160.48Z" style="fill:none;stroke:#3a3a3a;stroke-width:0.3px;" class="FYYZImAo_9"></path>
            <path d="M307.347,50.103l-49.663,-48.103l49.663,48.103Z" style="fill:none;stroke:#3a3a3a;stroke-width:0.3px;" class="FYYZImAo_10"></path>
            <path d="M269.958,162.48l37.389,-112.377l-30.833,18.456l-6.556,93.921Z" style="fill:none;stroke:#000;stroke-opacity:0.69;stroke-width:0.3px;" class="FYYZImAo_11"></path>
            <path d="M307.287,50.117l44.689,-11.017" style="fill:none;stroke:#3a3a3a;stroke-width:0.3px;" class="FYYZImAo_12"></path>
            <path d="M307.347,50.103l34.582,134.238" style="fill:none;stroke:#000;stroke-opacity:0.67;stroke-width:0.3px;" class="FYYZImAo_13"></path>
            <path d="M362.548,212.199l-59.527,184.027l-58.009,-128.258l13.568,-6.437l103.968,-49.332Z" style="fill:none;stroke:#000;stroke-opacity:0.56;stroke-width:0.3px;" class="FYYZImAo_14"></path>
            <path d="M279.363,185.74l83.119,26.44l-82.445,-26.226l-0.674,-0.214Z" style="fill:none;stroke:#000;stroke-opacity:0.61;stroke-width:0.3px;" class="FYYZImAo_15"></path>
            <path d="M245.012,267.968l34.351,-82.228l23.658,210.486" style="fill:none;stroke:#000;stroke-opacity:0.57;stroke-width:0.3px;" class="FYYZImAo_16"></path>
            <path d="M234.294,298.886l128.254,-86.687l-128.254,86.687l68.727,97.34" style="fill:none;stroke:#000;stroke-opacity:0.53;stroke-width:0.3px;" class="FYYZImAo_17"></path>
            <path d="M234.294,298.886l10.718,-30.918" style="fill:none;stroke:#3a3a3a;stroke-width:0.3px;" class="FYYZImAo_18"></path>
        </g>
        <path d="M14,1256l54,-165l-58,-53l4,218Z" style="fill:none;stroke:#000;stroke-opacity:0.51;stroke-width:0.3px;" class="FYYZImAo_19"></path>
        <path d="M175.465,1219.02l-16.465,-196.015l-106,256l36,-169l86.465,109.015l-122.465,59.985" style="fill:none;stroke:#000;stroke-opacity:0.52;stroke-width:0.3px;" class="FYYZImAo_20"></path>
        <path d="M89,1110l70,-86" style="fill:none;stroke:#000;stroke-opacity:0.42;stroke-width:0.3px;" class="FYYZImAo_21"></path>
        <path d="M9.943,1038.21l65.057,-414.21l45.044,106.98l97.319,231.13l-207.42,76.1Z" style="fill:none;stroke:#000;stroke-opacity:0.63;stroke-width:0.3px;" class="FYYZImAo_22"></path>
        <path d="M86,918l131.042,44.378l-131.042,-44.378Z" style="fill:none;stroke:#000;stroke-opacity:0.31;stroke-width:0.3px;" class="FYYZImAo_23"></path>
        <path d="M10,1038l76,-120" style="fill:none;stroke:#000;stroke-opacity:0.51;stroke-width:0.3px;" class="FYYZImAo_24"></path>
        <path d="M217.042,962.378l-1.62,-6.682l-73.021,-301.314l40.64,-89.715" style="fill:none;stroke:#000;stroke-opacity:0.69;stroke-width:0.3px;" class="FYYZImAo_25"></path>
        <path d="M75,624l11,294" style="fill:none;stroke:#000;stroke-opacity:0.52;stroke-width:0.3px;" class="FYYZImAo_26"></path>
        <path d="M202.714,355.554l172.414,162.955l-43.023,-189.522l-53.389,217.474l-73.817,-185.418l-2.185,-5.489Z" style="fill:none;stroke:#000;stroke-opacity:0.45;stroke-width:0.3px;" class="FYYZImAo_27"></path>
        <path d="M281.72,377.228l-79.006,-21.674l79.006,21.674Z" style="fill:none;stroke:#000;stroke-opacity:0.52;stroke-width:0.3px;" class="FYYZImAo_28"></path>
        <path d="M278.716,546.461l3.004,-169.233l-30.685,46.883l27.681,122.35Z" style="fill:none;stroke:#000;stroke-opacity:0.5;stroke-width:0.3px;" class="FYYZImAo_29"></path>
        <path d="M281.651,377.292l28.801,-27.574l21.653,-20.731" style="fill:none;stroke:#000;stroke-opacity:0.51;stroke-width:0.3px;" class="FYYZImAo_30"></path>
        <path d="M281.72,377.228l93.304,140.894" style="fill:none;stroke:#000;stroke-opacity:0.59;stroke-width:0.3px;" class="FYYZImAo_31"></path>
        <path d="M242.129,825.924l105.871,-212.924" style="fill:none;stroke:#000;stroke-opacity:0.67;stroke-width:0.3px;" class="FYYZImAo_32"></path>
        <path d="M142.401,654.382l-67.401,-30.382" style="fill:none;stroke:#000;stroke-opacity:0.6;stroke-width:0.3px;" class="FYYZImAo_33"></path>
        <path d="M75,624l108.041,-59.333l34.001,397.711" style="fill:none;stroke:#000;stroke-opacity:0.53;stroke-width:0.3px;" class="FYYZImAo_34"></path>
    </g>
    <path d="M50,67l36,152" style="fill:none;stroke:#000;stroke-opacity:0.46;stroke-width:0.35px;" class="FYYZImAo_35"></path>
    <path d="M154,251l-105,102l-48,106l48,-106l89,202" style="fill:none;stroke:#000;stroke-opacity:0.46;stroke-width:0.35px;" class="FYYZImAo_36"></path>
    <path d="M348,613l7,194" style="fill:none;stroke:#000;stroke-opacity:0.46;stroke-width:0.35px;" class="FYYZImAo_37"></path>
    <path d="M311,856l37,-243" style="fill:none;stroke:#000;stroke-opacity:0.46;stroke-width:0.35px;" class="FYYZImAo_38"></path>
    <path d="M68,1091l-33,1l-21,164" style="fill:none;stroke:#000;stroke-opacity:0.42;stroke-width:0.35px;" class="FYYZImAo_39"></path>
    <path d="M35,1092l-25,-54" style="fill:none;stroke:#000;stroke-opacity:0.42;stroke-width:0.35px;" class="FYYZImAo_40"></path>
    <path d="M348,613l-105,-79l-45,9l37,52l113,18Z" style="fill:none;stroke:#000;stroke-opacity:0.42;stroke-width:0.35px;" class="FYYZImAo_41"></path>
    <path d="M260,584l-17,-50l17,50Z" style="fill:none;stroke:#000;stroke-opacity:0.42;stroke-width:0.35px;" class="FYYZImAo_42"></path>
    <path d="M235,595l25,-11l88,29" style="fill:none;stroke:#000;stroke-opacity:0.42;stroke-width:0.35px;" class="FYYZImAo_43"></path>
    <path d="M348,613l-117,28l-14,49l63,3l68,-80l-69.754,41" style="fill:none;stroke:#000;stroke-opacity:0.42;stroke-width:0.35px;" class="FYYZImAo_44"></path>
    <path d="M280,693l-2,-39l-47,-13" style="fill:none;stroke:#000;stroke-opacity:0.42;stroke-width:0.35px;" class="FYYZImAo_45"></path>
    <style data-made-with="vivus-instant">.FYYZImAo_0{stroke-dasharray:1086 1088;stroke-dashoffset:1087;animation:FYYZImAo_draw 2000ms linear 0ms forwards;}.FYYZImAo_1{stroke-dasharray:256 258;stroke-dashoffset:257;animation:FYYZImAo_draw 2000ms linear 22ms forwards;}.FYYZImAo_2{stroke-dasharray:2077 2079;stroke-dashoffset:2078;animation:FYYZImAo_draw 2000ms linear 44ms forwards;}.FYYZImAo_3{stroke-dasharray:705 707;stroke-dashoffset:706;animation:FYYZImAo_draw 2000ms linear 66ms forwards;}.FYYZImAo_4{stroke-dasharray:555 557;stroke-dashoffset:556;animation:FYYZImAo_draw 2000ms linear 88ms forwards;}.FYYZImAo_5{stroke-dasharray:720 722;stroke-dashoffset:721;animation:FYYZImAo_draw 2000ms linear 111ms forwards;}.FYYZImAo_6{stroke-dasharray:519 521;stroke-dashoffset:520;animation:FYYZImAo_draw 2000ms linear 133ms forwards;}.FYYZImAo_7{stroke-dasharray:107 109;stroke-dashoffset:108;animation:FYYZImAo_draw 2000ms linear 155ms forwards;}.FYYZImAo_8{stroke-dasharray:732 734;stroke-dashoffset:733;animation:FYYZImAo_draw 2000ms linear 177ms forwards;}.FYYZImAo_9{stroke-dasharray:657 659;stroke-dashoffset:658;animation:FYYZImAo_draw 2000ms linear 200ms forwards;}.FYYZImAo_10{stroke-dasharray:139 141;stroke-dashoffset:140;animation:FYYZImAo_draw 2000ms linear 222ms forwards;}.FYYZImAo_11{stroke-dasharray:249 251;stroke-dashoffset:250;animation:FYYZImAo_draw 2000ms linear 244ms forwards;}.FYYZImAo_12{stroke-dasharray:47 49;stroke-dashoffset:48;animation:FYYZImAo_draw 2000ms linear 266ms forwards;}.FYYZImAo_13{stroke-dasharray:139 141;stroke-dashoffset:140;animation:FYYZImAo_draw 2000ms linear 288ms forwards;}.FYYZImAo_14{stroke-dasharray:465 467;stroke-dashoffset:466;animation:FYYZImAo_draw 2000ms linear 311ms forwards;}.FYYZImAo_15{stroke-dasharray:175 177;stroke-dashoffset:176;animation:FYYZImAo_draw 2000ms linear 333ms forwards;}.FYYZImAo_16{stroke-dasharray:301 303;stroke-dashoffset:302;animation:FYYZImAo_draw 2000ms linear 355ms forwards;}.FYYZImAo_17{stroke-dasharray:429 431;stroke-dashoffset:430;animation:FYYZImAo_draw 2000ms linear 377ms forwards;}.FYYZImAo_18{stroke-dasharray:33 35;stroke-dashoffset:34;animation:FYYZImAo_draw 2000ms linear 400ms forwards;}.FYYZImAo_19{stroke-dasharray:471 473;stroke-dashoffset:472;animation:FYYZImAo_draw 2000ms linear 422ms forwards;}.FYYZImAo_20{stroke-dasharray:923 925;stroke-dashoffset:924;animation:FYYZImAo_draw 2000ms linear 444ms forwards;}.FYYZImAo_21{stroke-dasharray:111 113;stroke-dashoffset:112;animation:FYYZImAo_draw 2000ms linear 466ms forwards;}.FYYZImAo_22{stroke-dasharray:1008 1010;stroke-dashoffset:1009;animation:FYYZImAo_draw 2000ms linear 488ms forwards;}.FYYZImAo_23{stroke-dasharray:277 279;stroke-dashoffset:278;animation:FYYZImAo_draw 2000ms linear 511ms forwards;}.FYYZImAo_24{stroke-dasharray:143 145;stroke-dashoffset:144;animation:FYYZImAo_draw 2000ms linear 533ms forwards;}.FYYZImAo_25{stroke-dasharray:416 418;stroke-dashoffset:417;animation:FYYZImAo_draw 2000ms linear 555ms forwards;}.FYYZImAo_26{stroke-dasharray:295 297;stroke-dashoffset:296;animation:FYYZImAo_draw 2000ms linear 577ms forwards;}.FYYZImAo_27{stroke-dasharray:861 863;stroke-dashoffset:862;animation:FYYZImAo_draw 2000ms linear 600ms forwards;}.FYYZImAo_28{stroke-dasharray:164 166;stroke-dashoffset:165;animation:FYYZImAo_draw 2000ms linear 622ms forwards;}.FYYZImAo_29{stroke-dasharray:351 353;stroke-dashoffset:352;animation:FYYZImAo_draw 2000ms linear 644ms forwards;}.FYYZImAo_30{stroke-dasharray:70 72;stroke-dashoffset:71;animation:FYYZImAo_draw 2000ms linear 666ms forwards;}.FYYZImAo_31{stroke-dasharray:169 171;stroke-dashoffset:170;animation:FYYZImAo_draw 2000ms linear 688ms forwards;}.FYYZImAo_32{stroke-dasharray:238 240;stroke-dashoffset:239;animation:FYYZImAo_draw 2000ms linear 711ms forwards;}.FYYZImAo_33{stroke-dasharray:74 76;stroke-dashoffset:75;animation:FYYZImAo_draw 2000ms linear 733ms forwards;}.FYYZImAo_34{stroke-dasharray:523 525;stroke-dashoffset:524;animation:FYYZImAo_draw 2000ms linear 755ms forwards;}.FYYZImAo_35{stroke-dasharray:157 159;stroke-dashoffset:158;animation:FYYZImAo_draw 2000ms linear 777ms forwards;}.FYYZImAo_36{stroke-dasharray:600 602;stroke-dashoffset:601;animation:FYYZImAo_draw 2000ms linear 800ms forwards;}.FYYZImAo_37{stroke-dasharray:195 197;stroke-dashoffset:196;animation:FYYZImAo_draw 2000ms linear 822ms forwards;}.FYYZImAo_38{stroke-dasharray:246 248;stroke-dashoffset:247;animation:FYYZImAo_draw 2000ms linear 844ms forwards;}.FYYZImAo_39{stroke-dasharray:199 201;stroke-dashoffset:200;animation:FYYZImAo_draw 2000ms linear 866ms forwards;}.FYYZImAo_40{stroke-dasharray:60 62;stroke-dashoffset:61;animation:FYYZImAo_draw 2000ms linear 888ms forwards;}.FYYZImAo_41{stroke-dasharray:356 358;stroke-dashoffset:357;animation:FYYZImAo_draw 2000ms linear 911ms forwards;}.FYYZImAo_42{stroke-dasharray:106 108;stroke-dashoffset:107;animation:FYYZImAo_draw 2000ms linear 933ms forwards;}.FYYZImAo_43{stroke-dasharray:120 122;stroke-dashoffset:121;animation:FYYZImAo_draw 2000ms linear 955ms forwards;}.FYYZImAo_44{stroke-dasharray:421 423;stroke-dashoffset:422;animation:FYYZImAo_draw 2000ms linear 977ms forwards;}.FYYZImAo_45{stroke-dasharray:88 90;stroke-dashoffset:89;animation:FYYZImAo_draw 2000ms linear 1000ms forwards;}@keyframes FYYZImAo_draw{100%{stroke-dashoffset:0;}}@keyframes FYYZImAo_fade{0%{stroke-opacity:1;}94.44444444444444%{stroke-opacity:1;}100%{stroke-opacity:0;}}</style>
</svg>