<?xml version="1.0" encoding="UTF-8" standalone="no"?>
<!DOCTYPE svg PUBLIC "-//W3C//DTD SVG 1.1//EN" "http://www.w3.org/Graphics/SVG/1.1/DTD/svg11.dtd">
<svg opacity="0.2" width="100%" height="100%" viewBox="0 0 750 1624" version="1.1" xmlns="http://www.w3.org/2000/svg" xmlns:xlink="http://www.w3.org/1999/xlink" xml:space="preserve" xmlns:serif="http://www.serif.com/" style="fill-rule:evenodd;clip-rule:evenodd;stroke-linecap:round;stroke-linejoin:round;stroke-miterlimit:1.5;">
    <path d="M874.686,278.018L587.695,495.905" style="fill:none;stroke:black;stroke-width:1px;"/>
    <path d="M903.232,430.012L585.522,546.294" style="fill:none;stroke:black;stroke-width:1px;"/>
    <g transform="matrix(0.732466,0,0,1.00995,156.647,-5.43672)">
        <path d="M585.522,546.294L588.245,496.734" style="fill:none;stroke:black;stroke-width:1.13px;"/>
    </g>
    <g transform="matrix(1.01749,0,0,1.02079,-10.9925,-11.0282)">
        <path d="M628.399,530.58L588.245,496.734" style="fill:none;stroke:black;stroke-width:0.98px;"/>
    </g>
    <path d="M587.543,496.031L758.421,276.544" style="fill:none;stroke:black;stroke-width:1px;"/>
    <path d="M851.056,763.217L560.013,671.163" style="fill:none;stroke:black;stroke-width:1px;"/>
    <path d="M560.013,671.163L596.096,743.951" style="fill:none;stroke:black;stroke-width:1px;"/>
    <path d="M216.305,407.705L-56.764,307.917" style="fill:none;stroke:black;stroke-width:1px;"/>
    <g transform="matrix(1.79109,0,0,1.03833,-171.118,-15.6281)">
        <path d="M216.305,407.705L263.73,487.666" style="fill:none;stroke:black;stroke-width:0.68px;"/>
    </g>
    <path d="M-16.697,1012.41L244.429,916.768" style="fill:none;stroke:black;stroke-width:1px;"/>
    <path d="M244.429,916.768L214.974,880.322" style="fill:none;stroke:black;stroke-width:1px;"/>
    <path d="M214.974,880.322L-11.009,873.998" style="fill:none;stroke:black;stroke-width:1px;"/>
    <path d="M214.974,880.322L228.86,856.625" style="fill:none;stroke:black;stroke-width:1px;"/>
    <path d="M228.86,856.625L-36.124,747.921" style="fill:none;stroke:black;stroke-width:1px;"/>
    <path d="M228.86,856.625L276.593,879.666" style="fill:none;stroke:black;stroke-width:1px;"/>
    <path d="M276.593,879.666L244.277,916.915" style="fill:none;stroke:black;stroke-width:1px;"/>
    <path d="M792.179,94.87L552.396,227.822" style="fill:none;stroke:black;stroke-width:1px;"/>
    <path d="M552.396,227.822L516.758,283.301" style="fill:none;stroke:black;stroke-width:1px;"/>
    <path d="M516.758,283.301L591.245,298.678" style="fill:none;stroke:black;stroke-width:1px;"/>
    <path d="M591.245,298.678L602.406,255.982" style="fill:none;stroke:black;stroke-width:1px;"/>
    <path d="M602.406,255.982L552.211,227.751" style="fill:none;stroke:black;stroke-width:1px;"/>
    <path d="M602.406,255.982L777.841,175.213" style="fill:none;stroke:black;stroke-width:1px;"/>
    <path d="M591.301,298.481L778.875,288.224" style="fill:none;stroke:black;stroke-width:1px;"/>
    <path d="M801.417,1128.98L567.761,1052.66" style="fill:none;stroke:black;stroke-width:1px;"/>
    <path d="M567.761,1052.66L536.835,1071.91" style="fill:none;stroke:black;stroke-width:1px;"/>
    <path d="M536.835,1071.91L591.578,1138.38" style="fill:none;stroke:black;stroke-width:1px;"/>
    <path d="M591.578,1138.38L777.552,1248.55" style="fill:none;stroke:black;stroke-width:1px;"/>
    <path d="M591.578,1138.38L660.038,1133" style="fill:none;stroke:black;stroke-width:1px;"/>
    <path d="M660.038,1133L568.267,1053.18" style="fill:none;stroke:black;stroke-width:1px;"/>
    <path d="M660.038,1133L772.897,1179.11" style="fill:none;stroke:black;stroke-width:1px;"/>
    <path d="M-81.354,1407.95L174.36,1195.09" style="fill:none;stroke:black;stroke-width:1px;"/>
    <path d="M174.36,1195.09L197.416,1141.21" style="fill:none;stroke:black;stroke-width:1px;"/>
    <path d="M197.416,1141.21L-33.164,1188.65" style="fill:none;stroke:black;stroke-width:1px;"/>
    <path d="M197.416,1141.21L239.072,1219.42" style="fill:none;stroke:black;stroke-width:1px;"/>
    <path d="M239.072,1219.42L168.925,1258.59" style="fill:none;stroke:black;stroke-width:1px;"/>
    <path d="M168.925,1258.59L173.867,1195.53" style="fill:none;stroke:black;stroke-width:1px;"/>
    <path d="M168.925,1258.59L-15.939,1479.12" style="fill:none;stroke:black;stroke-width:1px;"/>
    <path d="M239.059,1219.35L67.003,1637.7" style="fill:none;stroke:black;stroke-width:1px;"/>
    <path d="M641.986,1672.39L551.678,1482.88" style="fill:none;stroke:black;stroke-width:1px;"/>
    <path d="M551.678,1482.88L510.949,1511.87" style="fill:none;stroke:black;stroke-width:1px;"/>
    <path d="M510.949,1511.87L458.758,1463.21" style="fill:none;stroke:black;stroke-width:1px;"/>
    <path d="M458.758,1463.21L325.076,1657.66" style="fill:none;stroke:black;stroke-width:1px;"/>
    <path d="M458.758,1463.21L506.358,1425.94" style="fill:none;stroke:black;stroke-width:1px;"/>
    <path d="M506.358,1425.94L552.054,1483.47" style="fill:none;stroke:black;stroke-width:1px;"/>
    <path d="M511.203,1511.88L504.445,1662.18" style="fill:none;stroke:black;stroke-width:1px;"/>
    <path d="M-15.461,306.77L221.999,290.799" style="fill:none;stroke:black;stroke-width:1px;"/>
    <path d="M221.999,290.799L212.198,217.985" style="fill:none;stroke:black;stroke-width:1px;"/>
    <path d="M212.198,217.985L333.908,174.279" style="fill:none;stroke:black;stroke-width:1px;"/>
    <path d="M333.908,174.279L-13.619,67.272" style="fill:none;stroke:black;stroke-width:1px;"/>
    <path d="M333.908,174.279L267.376,238.957" style="fill:none;stroke:black;stroke-width:1px;"/>
    <path d="M267.376,238.957L297.068,282.273" style="fill:none;stroke:black;stroke-width:1px;"/>
    <g transform="matrix(0.997148,0,0,1.1083,0.847237,-30.5708)">
        <path d="M297.068,282.273L221.855,290.07" style="fill:none;stroke:black;stroke-width:0.95px;"/>
    </g>
    <path d="M267.638,239.351L213.015,217.96" style="fill:none;stroke:black;stroke-width:1px;"/>
    <path d="M213.015,217.96L-6.254,189.093" style="fill:none;stroke:black;stroke-width:1px;"/>
    <path d="M333.465,174.424L332.435,228.453" style="fill:none;stroke:black;stroke-width:1px;"/>
    <path d="M332.435,228.453L296.973,282.932" style="fill:none;stroke:black;stroke-width:1px;"/>
    <g transform="matrix(1.68341,0,0,0.829975,-143.282,85.9425)">
        <path d="M263.73,487.666L209.655,505.469" style="fill:none;stroke:black;stroke-width:0.75px;"/>
    </g>
    <path d="M209.655,505.469L216.283,407.942" style="fill:none;stroke:black;stroke-width:1px;"/>
    <path d="M209.655,505.469L-20.281,456.672" style="fill:none;stroke:black;stroke-width:1px;"/>
    <g transform="matrix(1.22195,0,0,0.133046,-46.5323,438.219)">
        <path d="M209.655,505.469L-19.333,566.004" style="fill:none;stroke:black;stroke-width:1.15px;"/>
    </g>
    <path d="M596.096,743.951L792.614,861.918" style="fill:none;stroke:black;stroke-width:1px;"/>
</svg>
