<?xml version="1.0" encoding="UTF-8" standalone="no"?><!DOCTYPE svg PUBLIC "-//W3C//DTD SVG 1.1//EN" "http://www.w3.org/Graphics/SVG/1.1/DTD/svg11.dtd"><svg width="100%" height="100%" viewBox="0 0 1366 2048" version="1.1" xmlns="http://www.w3.org/2000/svg" xmlns:xlink="http://www.w3.org/1999/xlink" xml:space="preserve" xmlns:serif="http://www.serif.com/" style="fill-rule:evenodd;clip-rule:evenodd;stroke-linecap:round;stroke-linejoin:round;stroke-miterlimit:1.5;"><g><path d="M184.276,786.824l2.442,297.534l223.847,-319.939l-135.123,-50.186l-91.166,72.591l226.289,-22.405l-135.123,-50.186l-88.724,370.125" style="fill:none;stroke:#000;stroke-opacity:0.67;stroke-width:0.2px;"/><path d="M275.442,714.233l-91.166,72.591l226.289,-22.405l-135.123,-50.186Z" style="fill:none;stroke:#000;stroke-opacity:0.3;stroke-width:0.65px;"/><path d="M326.703,437.198l245.179,196.028l-324.908,-59.589l-157.686,92.745l237.415,-229.184l-79.729,136.439l324.908,59.589l-482.594,33.156l253.584,-580.163l185.509,132.222l-140.257,152.134l-61.421,66.623l53.998,-182.628l147.68,-36.129l-147.68,36.129l-37.829,-168.351l37.829,168.351l-291.413,411.812l237.415,-229.184" style="fill:none;stroke:#000;stroke-opacity:0.48;stroke-width:0.4px;"/><path d="M89.288,666.382l253.584,-580.163l-253.584,580.163l288.717,-407.412" style="fill:none;stroke:#000;stroke-opacity:0.52;stroke-width:0.5px;"/><path d="M441.049,1278.99l111.357,-82.493l-96.258,292.043l-15.099,-209.55l-45.839,-71.877l157.196,-10.616l-157.196,10.616l60.938,281.427" style="fill:none;stroke:#000;stroke-width:0.2px;"/><path d="M441.049,1278.99l15.099,209.55l96.051,-291.261l-157.1,9.858l61.049,281.403" style="fill:none;stroke:#000;stroke-opacity:0.51;stroke-width:0.65px;"/><g><path d="M1037.34,1181.92l-389.086,480.478l-197.95,-5.445l587.036,-475.033Z" style="fill:none;stroke:#3a3a3a;stroke-width:0.65px;"/><path d="M648.25,1662.4l30.783,14.413l227.307,106.426l130.996,-601.195" style="fill:none;stroke:#000;stroke-opacity:0.75;stroke-width:0.65px;"/><path d="M906.284,1783.38l-455.834,-126.362" style="fill:none;stroke:#000;stroke-opacity:0.67;stroke-width:0.65px;"/><path d="M998.05,1955.78l-273.285,-147.302l142.677,-184.901l156.346,137.248l-25.738,194.955Z" style="fill:none;stroke:#000;stroke-width:0.6px;"/><path d="M867.442,1623.58l59.065,150.232l71.543,181.971l25.449,-194.8l-96.513,96.629l-202.221,-49.131l202.221,49.131l71.064,98.171" style="fill:none;stroke:#000;stroke-width:0.55px;"/><path d="M680.984,1255.96l-38.176,327.337l234.857,-305.116l-173.176,97.522l-23.505,-119.743l196.681,22.221" style="fill:none;stroke:#000;stroke-opacity:0.49;stroke-width:0.55px;"/><path d="M704.489,1375.7l-61.681,207.594" style="fill:none;stroke:#000;stroke-opacity:0.58;stroke-width:0.65px;"/><path d="M1025.28,1453.33l-408.777,389.206l-32.56,-442.716l441.337,53.51Z" style="fill:none;stroke:#000;stroke-width:0.65px;"/><path d="M776.046,1580.85l-192.102,-181.03l192.102,181.03Z" style="fill:none;stroke:#000;stroke-width:0.6px;"/><path d="M1025.13,1453.59l-249.081,127.258" style="fill:none;stroke:#3a3a3a;stroke-width:0.6px;"/><path d="M776.046,1580.85l-159.542,261.686l-173.38,-13.442l140.82,-429.274l-42.412,364.83l74.972,77.886" style="fill:none;stroke:#000;stroke-opacity:0.67;stroke-width:0.5px;"/><path d="M541.617,1764.56l-98.493,64.526" style="fill:none;stroke:#000;stroke-opacity:0.67;stroke-width:0.55px;"/><path d="M322.848,2027.6l-154.812,-285.009l-30.158,222.72l171.752,-184.614l13.218,246.903Z" style="fill:none;stroke:#3a3a3a;stroke-width:1px;"/><path d="M227.417,1950.97l95.431,76.628l-95.431,-76.628Z" style="fill:none;stroke:#3a3a3a;stroke-width:1px;"/><path d="M309.63,1780.69l-82.213,170.275l62.619,-26.558l19.594,-143.717Z" style="fill:none;stroke:#000;stroke-opacity:0.69;stroke-width:0.35px;"/><path d="M227.538,1950.95l-89.66,14.357" style="fill:none;stroke:#3a3a3a;stroke-width:1px;"/><path d="M227.417,1950.97l-59.421,-207.915" style="fill:none;stroke:#000;stroke-opacity:0.67;stroke-width:0.5px;"/><path d="M128.924,1699.14l128.064,-306.803l0.547,-1.485l109.074,229.423l-27.437,9.104l-210.248,69.761Z" style="fill:none;stroke:#000;stroke-opacity:0.56;stroke-width:0.65px;"/><path d="M292.544,1744.47l-163.488,-45.298l162.162,44.931l1.326,0.367Z" style="fill:none;stroke:#000;stroke-width:0.65px;"/><path d="M366.609,1620.28l-74.065,124.196l-35.009,-352.723" style="fill:none;stroke:#3a3a3a;stroke-width:1px;"/><path d="M390.085,1573.45l-261.161,125.688l261.161,-125.688l-132.55,-182.6" style="fill:none;stroke:#3a3a3a;stroke-width:0.65px;"/><path d="M390.085,1573.45l-23.476,46.823" style="fill:none;stroke:#3a3a3a;stroke-width:1px;"/><path d="M1120.97,1219.68l23.265,688.907l-141.083,-562.342l85.731,132.172l32.087,-258.737Z" style="fill:none;stroke:#000;stroke-opacity:0.63;stroke-width:0.65px;"/><path d="M1003.15,1346.04l117.818,-126.362" style="fill:none;stroke:#3a3a3a;stroke-width:1px;"/><path d="M1088.62,1476.89l55.351,430.17" style="fill:none;stroke:#000;stroke-width:0.6px;"/><path d="M873.725,1959.93l-161.17,22.404l15.782,-41.257l136.434,-356.649l8.954,375.502Z" style="fill:none;stroke:#000;stroke-opacity:0.65;stroke-width:0.65px;"/><path d="M922.564,2000.26l-57.793,-415.83l8.954,375.502" style="fill:none;stroke:#000;stroke-opacity:0.62;stroke-width:0.6px;"/><path d="M922.564,2000.26l-48.839,-40.328" style="fill:none;stroke:#000;stroke-opacity:0.61;stroke-width:0.6px;"/><path d="M922.564,2000.26l-210.009,-17.924" style="fill:none;stroke:#3a3a3a;stroke-width:1px;"/></g><path d="M922.812,17l-244.309,825.871l-247.289,111.374l491.598,-937.245Z" style="fill:none;stroke:#000;stroke-width:0.55px;"/><path d="M678.503,842.871l378.402,-4.661l-134.033,-821.06" style="fill:none;stroke:#000;stroke-width:0.5px;"/><path d="M1056.91,838.424l-625.476,115.814" style="fill:none;stroke:#000;stroke-opacity:0.4;stroke-width:0.5px;"/><path d="M1255.16,996.705l-410.205,-18.974l85.301,-313.61l260.751,76.32l64.153,256.264Z" style="fill:none;stroke:#000;stroke-width:0.5px;"/><path d="M930.254,664.121l324.904,332.584l-64.434,-255.899l-71.701,176.987l-274.07,59.938l274.07,-59.938l136.135,78.912" style="fill:none;stroke:#000;stroke-opacity:0.26;stroke-width:0.5px;"/><path d="M518.903,321.096l34.733,130.249l79.208,297.021l140.037,-517.157l-165.996,223.83l-87.982,-133.943l253.978,-89.887" style="fill:none;stroke:#000;stroke-opacity:0.52;stroke-width:0.5px;"/><path d="M606.885,455.039l25.959,293.327" style="fill:none;stroke:#000;stroke-width:0.5px;"/><path d="M1041.5,359.571l-313.564,724.833l-257.95,-527.9l571.514,-196.933Z" style="fill:none;stroke:#000;stroke-width:0.6px;"/><path d="M796.282,665.849l-326.296,-109.345l326.296,109.345Z" style="fill:none;stroke:#000;stroke-opacity:0.31;stroke-width:0.5px;"/><path d="M1041.44,359.986l-245.042,305.853" style="fill:none;stroke:#000;stroke-opacity:0.51;stroke-width:0.5px;"/><path d="M469.986,556.504l2.757,10.344l124.225,466.427l-87.097,135.324" style="fill:none;stroke:#000;stroke-opacity:0.69;stroke-width:0.4px;"/><path d="M728.02,1084.36l68.376,-418.519" style="fill:none;stroke:#000;stroke-opacity:0.52;stroke-width:0.5px;"/><path d="M456.151,1488.3l-331.584,-259.824l72.356,293.211l121.369,-330.602l137.859,297.215Z" style="fill:none;stroke:#000;stroke-width:0.65px;"/><path d="M300.51,1450.54l155.641,37.753l-155.641,-37.753Z" style="fill:none;stroke:#000;stroke-opacity:0.52;stroke-width:0.5px;"/><path d="M318.292,1191.08l-17.782,259.462l64.307,-70.178l-46.525,-189.284Z" style="fill:none;stroke:#000;stroke-opacity:0.5;stroke-width:0.5px;"/><path d="M300.651,1450.45l-59.211,40.662l-44.517,30.572" style="fill:none;stroke:#000;stroke-opacity:0.51;stroke-width:0.3px;"/><path d="M300.51,1450.54l-175.763,-221.472" style="fill:none;stroke:#000;stroke-opacity:0.59;stroke-width:0.5px;"/><path d="M54.851,1198.12l7.242,-455.525l-0.055,-2.162l247.707,218.425l-254.894,239.262Z" style="fill:none;stroke:#000;stroke-opacity:0.3;stroke-width:0.5px;"/><path d="M62.038,740.43l-7.187,457.687" style="fill:none;stroke:#000;stroke-opacity:0.3;stroke-width:0.65px;"/><path d="M279.35,1156.52l-224.32,41.565l222.502,-41.228l1.818,-0.337Z" style="fill:none;stroke:#000;stroke-width:0.5px;"/><path d="M309.745,958.855l-30.395,197.66l-216.871,-414.978" style="fill:none;stroke:#000;stroke-width:0.5px;"/><path d="M315.708,886.989l-260.857,311.128l260.857,-311.128l-253.67,-146.559" style="fill:none;stroke:#000;stroke-opacity:0.37;stroke-width:0.5px;"/><path d="M315.708,886.989l-5.963,71.866" style="fill:none;stroke:#000;stroke-width:0.5px;"/><path d="M970.759,154.182l367.829,837.411l-451.122,-610.72l170.994,112.177l-87.701,-338.868Z" style="fill:none;stroke:#000;stroke-width:0.6px;"/><path d="M887.466,380.873l83.293,-226.691" style="fill:none;stroke:#000;stroke-width:0.6px;"/><path d="M1058.46,493.05l280.128,498.543" style="fill:none;stroke:#000;stroke-width:0.5px;"/><path d="M1103.57,1076.01l-188.133,123.843l-7.754,-582.514l195.887,458.671Z" style="fill:none;stroke:#000;stroke-width:0.5px;"/><path d="M1183.77,1096.71l-276.088,-479.366l195.887,458.671" style="fill:none;stroke:#000;stroke-width:0.5px;"/><path d="M1183.77,1096.71l-80.201,-20.695" style="fill:none;stroke:#000;stroke-width:0.5px;"/><path d="M1183.77,1096.71l-268.334,103.148" style="fill:none;stroke:#000;stroke-width:0.5px;"/><path d="M89.853,665.839l236.871,-228.528l52.095,-177.445l-52.095,177.445l-11.396,448.99" style="fill:none;stroke:#000;stroke-opacity:0.52;stroke-width:0.5px;"/><path d="M62.991,741.118l251.523,145.183" style="fill:none;stroke:#000;stroke-width:0.65px;"/><path d="M410.565,764.419l-223.847,319.939" style="fill:none;stroke:#000;stroke-opacity:0.67;stroke-width:0.65px;"/><path d="M186.718,1084.36l-0.814,-106.646l17.907,34.055l-17.093,72.591Z" style="fill:none;stroke:#000;stroke-opacity:0.67;stroke-width:0.65px;"/><path d="M184.276,786.824l0,24.197" style="fill:none;stroke:#000;stroke-opacity:0.67;stroke-width:0.65px;"/><path d="M596.968,1033.28l131.052,51.083" style="fill:none;stroke:#000;stroke-opacity:0.6;stroke-width:0.35px;"/><path d="M728.02,1084.36l-218.149,84.241l-39.885,-612.095" style="fill:none;stroke:#000;stroke-width:0.65px;"/></g></svg>