<?xml version="1.0" encoding="UTF-8" standalone="no"?><!DOCTYPE svg PUBLIC "-//W3C//DTD SVG 1.1//EN" "http://www.w3.org/Graphics/SVG/1.1/DTD/svg11.dtd"><svg width="100%" height="100%" viewBox="0 0 1366 2048" version="1.1" xmlns="http://www.w3.org/2000/svg" xmlns:xlink="http://www.w3.org/1999/xlink" xml:space="preserve" xmlns:serif="http://www.serif.com/" style="fill-rule:evenodd;clip-rule:evenodd;stroke-linecap:round;stroke-linejoin:round;stroke-miterlimit:1.5;"><g><g><path d="M301.446,1869.29l15.836,-78.697l-76.827,72.079l32.898,20.736l28.093,-14.118l-60.991,-6.618l32.898,20.736l43.929,-92.815" style="fill:none;stroke:#000;stroke-opacity:0.67;stroke-width:0.2px;"/><path d="M273.353,1883.41l28.093,-14.118l-60.991,-6.618l32.898,20.736Z" style="fill:none;stroke:#000;stroke-opacity:0.3;stroke-width:0.65px;"/><path d="M244.473,1953.72l-53.88,-65.34l82.489,33.731l46.773,-15.755l-75.382,47.364l28.609,-31.609l-82.489,-33.731l129.262,17.976l-99.092,139.143l-41.659,-45.188l45.461,-32.401l19.908,-14.19l-24.373,45.231l-40.996,1.36l40.996,-1.36l0.663,46.548l-0.663,-46.548l99.755,-92.595l-75.382,47.364" style="fill:none;stroke:#000;stroke-opacity:0.48;stroke-width:0.4px;"/><path d="M319.855,1906.36l-99.092,139.143l99.092,-139.143l-98.8,91.583" style="fill:none;stroke:#000;stroke-opacity:0.52;stroke-width:0.5px;"/><path d="M260.908,1725.12l-33.973,15.614l41.593,-71.78l-7.62,56.166l8.122,21.518l-42.095,-5.904l42.095,5.904l-0.502,-77.684" style="fill:none;stroke:#000;stroke-width:0.2px;"/><path d="M260.908,1725.12l7.62,-56.166l-41.495,71.585l42.028,6.098l-0.533,-77.683" style="fill:none;stroke:#000;stroke-opacity:0.51;stroke-width:0.65px;"/><g><path d="M98.086,1717.72l129.349,-105.316l51.966,12.403l-181.315,92.913Z" style="fill:none;stroke:#3a3a3a;stroke-width:0.65px;"/><path d="M227.435,1612.4l-7.33,-5.51l-54.124,-40.692l-67.889,151.485" style="fill:none;stroke:#000;stroke-opacity:0.75;stroke-width:0.65px;"/><path d="M166.004,1566.17l113.361,58.613" style="fill:none;stroke:#000;stroke-opacity:0.67;stroke-width:0.65px;"/><path d="M151.323,1515.56l64,54.031l-47.915,40.919l-33.679,-44.899l17.594,-50.051Z" style="fill:none;stroke:#000;stroke-width:0.6px;"/><path d="M167.408,1610.51l-7.274,-42.939l-8.811,-52.011l-17.509,50.026l30.835,-20.168l50.674,24.173l-50.674,-24.173l-13.326,-29.858" style="fill:none;stroke:#000;stroke-width:0.55px;"/><path d="M196.279,1717.91l28.211,-84.316l-78.913,67.555l51.128,-16.158l-0.426,32.919l-50.702,-16.761" style="fill:none;stroke:#000;stroke-opacity:0.49;stroke-width:0.55px;"/><path d="M196.705,1684.99l27.785,-51.397" style="fill:none;stroke:#000;stroke-opacity:0.58;stroke-width:0.65px;"/><path d="M116.302,1646.73l129.493,-80.125l-15.925,118.699l-113.568,-38.574Z" style="fill:none;stroke:#000;stroke-width:0.65px;"/><path d="M189.174,1626.86l40.696,58.44l-40.696,-58.44Z" style="fill:none;stroke:#000;stroke-width:0.6px;"/><path d="M116.357,1646.66l72.817,-19.805" style="fill:none;stroke:#3a3a3a;stroke-width:0.6px;"/><path d="M189.174,1626.86l56.621,-60.259l45.035,13.153l-60.96,105.546l31.407,-93.981l-15.482,-24.718" style="fill:none;stroke:#000;stroke-opacity:0.67;stroke-width:0.5px;"/><path d="M261.25,1591.34l29.58,-11.582" style="fill:none;stroke:#000;stroke-opacity:0.67;stroke-width:0.55px;"/><path d="M333.584,1534l25.09,83.83l20.299,-57.137l-55.575,39.232l10.186,-65.925Z" style="fill:none;stroke:#3a3a3a;stroke-width:1px;"/><path d="M354.537,1559.52l-20.953,-25.519l20.953,25.519Z" style="fill:none;stroke:#3a3a3a;stroke-width:1px;"/><path d="M323.398,1599.92l31.139,-40.406l-18.005,3.544l-13.134,36.862Z" style="fill:none;stroke:#000;stroke-opacity:0.69;stroke-width:0.35px;"/><path d="M354.504,1559.52l24.469,1.176" style="fill:none;stroke:#3a3a3a;stroke-width:1px;"/><path d="M354.537,1559.52l4.173,58.19" style="fill:none;stroke:#000;stroke-opacity:0.67;stroke-width:0.5px;"/><path d="M366.594,1631.47l-50.808,73.916l-0.226,0.362l-16.093,-66.62l7.749,-0.884l59.378,-6.774Z" style="fill:none;stroke:#000;stroke-opacity:0.56;stroke-width:0.65px;"/><path d="M325.903,1610.44l40.659,21.016l-40.33,-20.846l-0.329,-0.17Z" style="fill:none;stroke:#000;stroke-width:0.65px;"/><path d="M299.467,1639.13l26.436,-28.69l-10.294,95.073" style="fill:none;stroke:#3a3a3a;stroke-width:1px;"/><path d="M290.675,1650.19l75.919,-18.721l-75.919,18.721l24.885,55.557" style="fill:none;stroke:#3a3a3a;stroke-width:0.65px;"/><path d="M290.675,1650.19l8.792,-11.063" style="fill:none;stroke:#3a3a3a;stroke-width:1px;"/><path d="M78.095,1703.12l32.016,-183.19l6.104,156.297l-15.316,-39.648l-22.804,66.541Z" style="fill:none;stroke:#000;stroke-opacity:0.63;stroke-width:0.65px;"/><path d="M116.203,1676.28l-38.108,26.839" style="fill:none;stroke:#3a3a3a;stroke-width:1px;"/><path d="M100.883,1637l9.213,-116.649" style="fill:none;stroke:#000;stroke-width:0.6px;"/><path d="M184.38,1521.35l43.797,3.011l-6.452,10.02l-55.78,86.613l18.435,-99.644Z" style="fill:none;stroke:#000;stroke-opacity:0.65;stroke-width:0.65px;"/><path d="M173.719,1508l-7.774,112.998l18.435,-99.644" style="fill:none;stroke:#000;stroke-opacity:0.62;stroke-width:0.6px;"/><path d="M173.719,1508l10.661,13.354" style="fill:none;stroke:#000;stroke-opacity:0.61;stroke-width:0.6px;"/><path d="M173.719,1508l54.458,16.365" style="fill:none;stroke:#3a3a3a;stroke-width:1px;"/></g><path d="M63.8,2031.65l110.253,-204.533l71.464,-15.71l-181.717,220.243Z" style="fill:none;stroke:#000;stroke-width:0.55px;"/><path d="M174.053,1827.12l-100.173,-19.729l-10.088,224.219" style="fill:none;stroke:#000;stroke-width:0.5px;"/><path d="M73.891,1807.33l171.568,4.066" style="fill:none;stroke:#000;stroke-opacity:0.4;stroke-width:0.5px;"/><path d="M30.312,1754.56l107.261,27.731l-39.894,78.082l-64.622,-34.594l-2.745,-71.219Z" style="fill:none;stroke:#000;stroke-width:0.5px;"/><path d="M97.679,1860.37l-67.367,-105.813l2.839,71.138l28.736,-42.761l75.686,-0.646l-75.686,0.646l-31.575,-28.377" style="fill:none;stroke:#000;stroke-opacity:0.26;stroke-width:0.5px;"/><path d="M187.293,1973.73l-1.957,-36.315l-4.462,-82.813l-65.621,128.794l56.228,-49.906l15.812,40.24l-72.04,9.666" style="fill:none;stroke:#000;stroke-opacity:0.52;stroke-width:0.5px;"/><path d="M171.481,1933.49l9.393,-78.888" style="fill:none;stroke:#000;stroke-width:0.5px;"/><path d="M51.436,1934.62l122.943,-174.019l38.87,153.676l-161.813,20.343Z" style="fill:none;stroke:#000;stroke-width:0.6px;"/><path d="M133.149,1867.34l80.1,46.945l-80.1,-46.945Z" style="fill:none;stroke:#000;stroke-opacity:0.31;stroke-width:0.5px;"/><path d="M51.476,1934.52l81.642,-67.185" style="fill:none;stroke:#000;stroke-opacity:0.51;stroke-width:0.5px;"/><path d="M213.249,1914.28l-0.155,-2.884l-6.966,-130.038l30.493,-30.907" style="fill:none;stroke:#000;stroke-opacity:0.69;stroke-width:0.4px;"/><path d="M174.354,1760.61l-41.236,106.72" style="fill:none;stroke:#000;stroke-opacity:0.52;stroke-width:0.5px;"/><path d="M268.514,1669.02l73.16,86.972l-2.864,-81.428l-50.358,80.57l-19.938,-86.114Z" style="fill:none;stroke:#000;stroke-width:0.65px;"/><path d="M307.518,1687.61l-39.004,-18.59l39.004,18.59Z" style="fill:none;stroke:#000;stroke-opacity:0.52;stroke-width:0.5px;"/><path d="M288.452,1755.13l19.066,-67.524l-20.867,14.968l1.801,52.556Z" style="fill:none;stroke:#000;stroke-opacity:0.5;stroke-width:0.5px;"/><path d="M307.476,1687.62l17.887,-7.457l13.447,-5.606" style="fill:none;stroke:#000;stroke-opacity:0.51;stroke-width:0.3px;"/><path d="M307.518,1687.61l34.142,68.214" style="fill:none;stroke:#000;stroke-opacity:0.59;stroke-width:0.5px;"/><path d="M358.401,1767.86l-27.144,119.877l-0.105,0.574l-53.307,-71.394l80.556,-49.057Z" style="fill:none;stroke:#000;stroke-opacity:0.3;stroke-width:0.5px;"/><path d="M331.152,1888.31l27.249,-120.451" style="fill:none;stroke:#000;stroke-opacity:0.3;stroke-width:0.65px;"/><path d="M296.819,1766.41l61.533,1.45l-61.034,-1.438l-0.499,-0.012Z" style="fill:none;stroke:#000;stroke-width:0.5px;"/><path d="M277.845,1816.92l18.974,-50.507l34.278,121.584" style="fill:none;stroke:#000;stroke-width:0.5px;"/><path d="M272.29,1835.57l86.111,-67.702l-86.111,67.702l58.862,52.749" style="fill:none;stroke:#000;stroke-opacity:0.37;stroke-width:0.5px;"/><path d="M272.29,1835.57l5.555,-18.645" style="fill:none;stroke:#000;stroke-width:0.5px;"/><path d="M58.738,1992.77l-50.738,-241.486l85.288,186.244l-38.937,-39.091l4.387,94.333Z" style="fill:none;stroke:#000;stroke-width:0.6px;"/><path d="M93.288,1937.53l-34.55,55.242" style="fill:none;stroke:#000;stroke-width:0.6px;"/><path d="M54.351,1898.44l-46.351,-147.153" style="fill:none;stroke:#000;stroke-width:0.5px;"/><path d="M74.73,1742.02l56.535,-22.28l-30.218,154.239l-26.317,-131.959Z" style="fill:none;stroke:#000;stroke-width:0.5px;"/><path d="M54.7,1732.11l46.347,141.866l-26.317,-131.959" style="fill:none;stroke:#000;stroke-width:0.5px;"/><path d="M54.7,1732.11l20.03,9.907" style="fill:none;stroke:#000;stroke-width:0.5px;"/><path d="M54.7,1732.11l76.565,-12.373" style="fill:none;stroke:#000;stroke-width:0.5px;"/><path d="M319.676,1906.47l-75.202,47.22l-23.584,43.968l23.584,-43.968l27.878,-117.921" style="fill:none;stroke:#000;stroke-opacity:0.52;stroke-width:0.5px;"/><path d="M330.938,1888.08l-58.371,-52.266" style="fill:none;stroke:#000;stroke-width:0.65px;"/><path d="M240.455,1862.67l76.827,-72.079" style="fill:none;stroke:#000;stroke-opacity:0.67;stroke-width:0.65px;"/><path d="M317.282,1790.6l-5.693,28.205l-2.842,-9.984l8.535,-18.221Z" style="fill:none;stroke:#000;stroke-opacity:0.67;stroke-width:0.65px;"/><path d="M301.446,1869.29l1.34,-6.389" style="fill:none;stroke:#000;stroke-opacity:0.67;stroke-width:0.65px;"/><path d="M206.128,1781.36l-31.774,-20.747" style="fill:none;stroke:#000;stroke-opacity:0.6;stroke-width:0.35px;"/><path d="M174.354,1760.61l62.267,-10.16l-23.372,163.829" style="fill:none;stroke:#000;stroke-width:0.65px;"/></g><g><path d="M869.247,1437.32l-13.824,130.094l113.795,-128.556l-56.513,-28.686l-43.458,27.148l99.971,1.538l-56.513,-28.686l-57.282,157.242" style="fill:none;stroke:#000;stroke-opacity:0.67;stroke-width:0.2px;"/><path d="M912.705,1410.17l-43.458,27.148l99.971,1.538l-56.513,-28.686Z" style="fill:none;stroke:#000;stroke-opacity:0.3;stroke-width:0.65px;"/><path d="M948.961,1291.72l97.292,97.902l-138.948,-42.291l-73.524,32.622l115.18,-88.233l-41.656,55.611l138.948,42.291l-212.472,-9.669l139.809,-240.742l74.419,67.043l-68.883,59.437l-30.165,26.029l32.728,-77.075l66.32,-8.391l-66.32,8.391l-8.099,-75.434l8.099,75.434l-147.908,165.308l115.18,-88.233" style="fill:none;stroke:#000;stroke-opacity:0.48;stroke-width:0.4px;"/><path d="M833.781,1379.95l139.809,-240.742l-139.809,240.742l146.51,-163.521" style="fill:none;stroke:#000;stroke-opacity:0.52;stroke-width:0.5px;"/><path d="M956.783,1665.16l52.772,-30.462l-56.664,122.756l3.892,-92.294l-16.427,-33.692l69.199,3.23l-69.199,-3.23l12.535,125.986" style="fill:none;stroke:#000;stroke-width:0.2px;"/><path d="M956.783,1665.16l-3.892,92.294l56.535,-122.425l-69.12,-3.556l12.585,125.981" style="fill:none;stroke:#000;stroke-opacity:0.51;stroke-width:0.65px;"/><g><path d="M1222.12,1652.61l-194.011,190.415l-86.198,-12.285l280.209,-178.13Z" style="fill:none;stroke:#3a3a3a;stroke-width:0.65px;"/><path d="M1028.11,1843.02l12.726,7.837l93.968,57.866l87.311,-256.065" style="fill:none;stroke:#000;stroke-opacity:0.75;stroke-width:0.65px;"/><path d="M1134.77,1908.78l-192.798,-78.012" style="fill:none;stroke:#000;stroke-opacity:0.67;stroke-width:0.65px;"/><path d="M1166.23,1988.68l-112.008,-78.023l71.58,-73.63l61.428,67.779l-21,83.874Z" style="fill:none;stroke:#000;stroke-width:0.6px;"/><path d="M1125.8,1837.03l18.283,68.582l22.145,83.071l20.866,-83.821l-46.996,37.38l-85.878,-31.582l85.878,31.582l26.13,46.441" style="fill:none;stroke:#000;stroke-width:0.55px;"/><path d="M1062.75,1667.11l-33.058,141.08l117.862,-121.53l-80.529,33.934l-4.275,-53.484l84.804,19.55" style="fill:none;stroke:#000;stroke-opacity:0.49;stroke-width:0.55px;"/><path d="M1067.02,1720.6l-37.333,87.596" style="fill:none;stroke:#000;stroke-opacity:0.58;stroke-width:0.65px;"/><path d="M1203.27,1770.56l-198.045,149.559l7.934,-195.021l190.111,45.462Z" style="fill:none;stroke:#000;stroke-width:0.65px;"/><path d="M1088.01,1813.79l-74.856,-88.693l74.856,88.693Z" style="fill:none;stroke:#000;stroke-width:0.6px;"/><path d="M1203.19,1770.67l-115.175,43.125" style="fill:none;stroke:#3a3a3a;stroke-width:0.6px;"/><path d="M1088.01,1813.79l-82.79,106.328l-75.065,-14.549l82.999,-180.472l-36.786,157.246l28.852,37.775" style="fill:none;stroke:#000;stroke-opacity:0.67;stroke-width:0.5px;"/><path d="M976.412,1882.31l-46.254,23.257" style="fill:none;stroke:#000;stroke-opacity:0.67;stroke-width:0.55px;"/><path d="M867.683,1986.27l-53.363,-132.249l-24.32,95.782l84.266,-72.05l-6.583,108.517Z" style="fill:none;stroke:#3a3a3a;stroke-width:1px;"/><path d="M829.831,1948.02l37.852,38.25l-37.852,-38.25Z" style="fill:none;stroke:#3a3a3a;stroke-width:1px;"/><path d="M874.266,1877.75l-44.435,70.267l28.683,-8.467l15.752,-61.8Z" style="fill:none;stroke:#000;stroke-opacity:0.69;stroke-width:0.35px;"/><path d="M829.885,1948.02l-39.885,1.784" style="fill:none;stroke:#3a3a3a;stroke-width:1px;"/><path d="M829.831,1948.02l-15.552,-93.797" style="fill:none;stroke:#000;stroke-opacity:0.67;stroke-width:0.5px;"/><path d="M799.409,1833.08l71.297,-127.611l0.313,-0.622l36.166,105.678l-12.441,2.604l-95.335,19.951Z" style="fill:none;stroke:#000;stroke-opacity:0.56;stroke-width:0.65px;"/><path d="M868.615,1861.07l-69.15,-27.969l68.589,27.743l0.561,0.226Z" style="fill:none;stroke:#000;stroke-width:0.65px;"/><path d="M907.185,1810.53l-38.57,50.546l2.359,-155.832" style="fill:none;stroke:#3a3a3a;stroke-width:1px;"/><path d="M919.783,1791.25l-120.374,41.833l120.374,-41.833l-48.764,-86.4" style="fill:none;stroke:#3a3a3a;stroke-width:0.65px;"/><path d="M919.783,1791.25l-12.598,19.278" style="fill:none;stroke:#3a3a3a;stroke-width:1px;"/><path d="M1256.76,1673.29l-24.315,302.1l-33.486,-252.709l30.836,62.028l26.965,-111.419Z" style="fill:none;stroke:#000;stroke-opacity:0.63;stroke-width:0.65px;"/><path d="M1198.97,1722.59l57.791,-49.303" style="fill:none;stroke:#3a3a3a;stroke-width:1px;"/><path d="M1229.76,1784.02l2.651,190.682" style="fill:none;stroke:#000;stroke-width:0.6px;"/><path d="M1111.71,1984.28l-71.526,1.721l8.959,-17.233l77.448,-148.968l-14.881,164.48Z" style="fill:none;stroke:#000;stroke-opacity:0.65;stroke-width:0.65px;"/><path d="M1131.03,2004.34l-4.435,-184.541l-14.881,164.48" style="fill:none;stroke:#000;stroke-opacity:0.62;stroke-width:0.6px;"/><path d="M1131.03,2004.34l-19.316,-20.061" style="fill:none;stroke:#000;stroke-opacity:0.61;stroke-width:0.6px;"/><path d="M1131.03,2004.34l-90.842,-18.34" style="fill:none;stroke:#3a3a3a;stroke-width:1px;"/></g><path d="M1230.39,1138l-148.054,348.539l-113.597,36.276l261.651,-384.815Z" style="fill:none;stroke:#000;stroke-width:0.55px;"/><path d="M1082.34,1486.54l165.531,16.902l-17.459,-365.372" style="fill:none;stroke:#000;stroke-width:0.5px;"/><path d="M1247.86,1503.54l-279.023,19.288" style="fill:none;stroke:#000;stroke-opacity:0.4;stroke-width:0.5px;"/><path d="M1326.54,1582.6l-178.241,-28.818l52.957,-132.726l110.085,46.389l15.199,115.155Z" style="fill:none;stroke:#000;stroke-width:0.5px;"/><path d="M1201.25,1421.06l125.284,161.544l-15.34,-115.01l-40.179,73.725l-122.722,12.467l122.722,-12.467l55.519,41.285" style="fill:none;stroke:#000;stroke-opacity:0.26;stroke-width:0.5px;"/><path d="M1038.73,1250.62l8.654,58.635l19.735,133.713l87.055,-218.902l-83.714,89.468l-31.73,-62.914l115.444,-26.554" style="fill:none;stroke:#000;stroke-opacity:0.52;stroke-width:0.5px;"/><path d="M1070.46,1313.54l-3.341,129.434" style="fill:none;stroke:#000;stroke-width:0.5px;"/><path d="M1265.09,1293.59l-173.25,300.937l-86.261,-243.513l259.511,-57.424Z" style="fill:none;stroke:#000;stroke-width:0.6px;"/><path d="M1142.64,1415.11l-137.064,-64.095l137.064,64.095Z" style="fill:none;stroke:#000;stroke-opacity:0.31;stroke-width:0.5px;"/><path d="M1265.04,1293.76l-122.349,121.342" style="fill:none;stroke:#000;stroke-opacity:0.51;stroke-width:0.5px;"/><path d="M1005.58,1351.01l0.687,4.656l30.922,209.967l-44.819,54.755" style="fill:none;stroke:#000;stroke-opacity:0.69;stroke-width:0.4px;"/><path d="M1091.88,1594.51l50.814,-179.401" style="fill:none;stroke:#000;stroke-opacity:0.52;stroke-width:0.5px;"/><path d="M952.905,1757.35l-131.844,-130.094l16.934,131.705l69.563,-138.343l45.347,136.732Z" style="fill:none;stroke:#000;stroke-width:0.65px;"/><path d="M886.805,1733.07l66.1,24.281l-66.1,-24.281Z" style="fill:none;stroke:#000;stroke-opacity:0.52;stroke-width:0.5px;"/><path d="M907.558,1620.62l-20.753,112.451l31.603,-27.438l-10.85,-85.013Z" style="fill:none;stroke:#000;stroke-opacity:0.5;stroke-width:0.5px;"/><path d="M886.871,1733.04l-27.9,14.799l-20.976,11.127" style="fill:none;stroke:#000;stroke-opacity:0.51;stroke-width:0.3px;"/><path d="M886.805,1733.07l-65.695,-105.542" style="fill:none;stroke:#000;stroke-opacity:0.59;stroke-width:0.5px;"/><path d="M792.127,1610.51l25.96,-198.625l0.085,-0.947l97.274,107.812l-123.319,91.76Z" style="fill:none;stroke:#000;stroke-opacity:0.3;stroke-width:0.5px;"/><path d="M818.172,1410.94l-26.045,199.572" style="fill:none;stroke:#000;stroke-opacity:0.3;stroke-width:0.65px;"/><path d="M892.277,1603.57l-100.071,6.93l99.259,-6.874l0.812,-0.056Z" style="fill:none;stroke:#000;stroke-width:0.5px;"/><path d="M915.446,1518.75l-23.169,84.823l-73.968,-192.129" style="fill:none;stroke:#000;stroke-width:0.5px;"/><path d="M921.648,1487.65l-129.521,122.855l129.521,-122.855l-103.476,-76.717" style="fill:none;stroke:#000;stroke-opacity:0.37;stroke-width:0.5px;"/><path d="M921.648,1487.65l-6.202,31.095" style="fill:none;stroke:#000;stroke-width:0.5px;"/><path d="M1244.47,1200.33l118.77,384.216l-166.5,-289.359l69.082,57.56l-21.352,-152.417Z" style="fill:none;stroke:#000;stroke-width:0.6px;"/><path d="M1196.74,1295.18l47.73,-94.857" style="fill:none;stroke:#000;stroke-width:0.6px;"/><path d="M1265.82,1352.74l97.418,231.799" style="fill:none;stroke:#000;stroke-width:0.5px;"/><path d="M1256.35,1609.66l-88.38,44.683l25.766,-254.849l62.614,210.166Z" style="fill:none;stroke:#000;stroke-width:0.5px;"/><path d="M1290.35,1622.71l-96.613,-223.22l62.614,210.166" style="fill:none;stroke:#000;stroke-width:0.5px;"/><path d="M1290.35,1622.71l-33.999,-13.054" style="fill:none;stroke:#000;stroke-width:0.5px;"/><path d="M1290.35,1622.71l-122.379,31.629" style="fill:none;stroke:#000;stroke-width:0.5px;"/><path d="M834.055,1379.75l114.91,-87.973l31.637,-74.906l-31.637,74.906l-27.449,195.562" style="fill:none;stroke:#000;stroke-opacity:0.52;stroke-width:0.5px;"/><path d="M818.554,1411.29l102.607,76.008" style="fill:none;stroke:#000;stroke-width:0.65px;"/><path d="M969.218,1438.86l-113.795,128.556" style="fill:none;stroke:#000;stroke-opacity:0.67;stroke-width:0.65px;"/><path d="M855.423,1567.42l4.982,-46.627l6.118,15.773l-11.1,30.854Z" style="fill:none;stroke:#000;stroke-opacity:0.67;stroke-width:0.65px;"/><path d="M869.247,1437.32l-1.211,10.57" style="fill:none;stroke:#000;stroke-opacity:0.67;stroke-width:0.65px;"/><path d="M1037.19,1565.63l54.691,28.874" style="fill:none;stroke:#000;stroke-opacity:0.6;stroke-width:0.35px;"/><path d="M1091.88,1594.51l-99.51,25.881l13.21,-269.378" style="fill:none;stroke:#000;stroke-width:0.65px;"/></g><g><path d="M1040.36,782.128l-46.278,80.287l110.581,-50.609l-28.37,-34.791l-35.933,5.113l64.303,29.678l-28.37,-34.791l-82.211,85.4" style="fill:none;stroke:#000;stroke-opacity:0.67;stroke-width:0.2px;"/><path d="M1076.29,777.015l-35.933,5.113l64.303,29.678l-28.37,-34.791Z" style="fill:none;stroke:#000;stroke-opacity:0.3;stroke-width:0.65px;"/><path d="M1133.75,710.704l34.921,91.317l-77.853,-67.253l-56.976,0.033l99.908,-24.097l-42.932,24.064l77.853,67.253l-134.829,-67.22l159.614,-115.801l28.961,64.77l-61.663,18.731l-27.004,8.203l43.309,-40.527l45.358,13.593l-45.358,-13.593l16.397,-51.177l-16.397,51.177l-143.217,64.624l99.908,-24.097" style="fill:none;stroke:#000;stroke-opacity:0.48;stroke-width:0.4px;"/><path d="M1033.85,734.801l159.614,-115.801l-159.614,115.801l141.799,-63.867" style="fill:none;stroke:#000;stroke-opacity:0.52;stroke-width:0.5px;"/><path d="M1031.68,954.801l42.917,-4.588l-71.917,63.243l29,-58.655l-0.972,-26.533l43.889,21.945l-43.889,-21.945l-28.028,85.188" style="fill:none;stroke:#000;stroke-width:0.2px;"/><path d="M1031.68,954.801l-29,58.655l71.738,-63.066l-43.743,-22.133l-27.995,85.199" style="fill:none;stroke:#000;stroke-opacity:0.51;stroke-width:0.65px;"/><g><path d="M1207.12,1022.79l-180.279,67.656l-52.3,-32.687l232.579,-34.969Z" style="fill:none;stroke:#3a3a3a;stroke-width:0.65px;"/><path d="M1026.84,1090.45l5.993,8.727l44.255,64.435l130.011,-140.785" style="fill:none;stroke:#000;stroke-opacity:0.75;stroke-width:0.65px;"/><path d="M1077.05,1163.64l-102.48,-105.838" style="fill:none;stroke:#000;stroke-opacity:0.67;stroke-width:0.65px;"/><path d="M1074.5,1224.41l-50.155,-82.665l67.482,-27.149l20.337,61.519l-37.664,48.295Z" style="fill:none;stroke:#000;stroke-width:0.6px;"/><path d="M1091.83,1114.6l-7.836,49.661l-9.491,60.153l37.562,-48.298l-41.161,10.725l-46.556,-45.092l46.556,45.092l3.599,37.573" style="fill:none;stroke:#000;stroke-width:0.55px;"/><path d="M1099.74,986.463l-61.886,81.883l111.199,-44.891l-61.889,-1.128l12.576,-35.864l49.313,36.992" style="fill:none;stroke:#000;stroke-opacity:0.49;stroke-width:0.55px;"/><path d="M1087.17,1022.33l-49.31,46.019" style="fill:none;stroke:#000;stroke-opacity:0.58;stroke-width:0.65px;"/><path d="M1161.07,1093.78l-171.17,40.04l61.091,-124.026l110.079,83.986Z" style="fill:none;stroke:#000;stroke-width:0.65px;"/><path d="M1074.02,1088.71l-23.032,-78.917l23.032,78.917Z" style="fill:none;stroke:#000;stroke-width:0.6px;"/><path d="M1160.99,1093.82l-86.964,-5.115" style="fill:none;stroke:#3a3a3a;stroke-width:0.6px;"/><path d="M1074.02,1088.71l-84.123,45.109l-44.44,-30.959l105.531,-93.067l-68.938,91.284l7.847,32.742" style="fill:none;stroke:#000;stroke-opacity:0.67;stroke-width:0.5px;"/><path d="M982.088,1101.06l-36.628,1.792" style="fill:none;stroke:#000;stroke-opacity:0.67;stroke-width:0.55px;"/><path d="M881.848,1137.19l3.383,-100.958l-43.231,55.054l75.245,-22.486l-35.397,68.39Z" style="fill:none;stroke:#3a3a3a;stroke-width:1px;"/><path d="M868.307,1101.56l13.541,35.631l-13.541,-35.631Z" style="fill:none;stroke:#3a3a3a;stroke-width:1px;"/><path d="M917.245,1068.8l-48.938,32.759l21.006,2.745l27.932,-35.504Z" style="fill:none;stroke:#000;stroke-opacity:0.69;stroke-width:0.35px;"/><path d="M868.343,1101.58l-26.343,-10.287" style="fill:none;stroke:#3a3a3a;stroke-width:1px;"/><path d="M868.307,1101.56l16.84,-65.208" style="fill:none;stroke:#000;stroke-opacity:0.67;stroke-width:0.5px;"/><path d="M881.581,1018.4l82.786,-62.19l0.381,-0.313l-6.898,78.817l-8.804,-1.884l-67.465,-14.43Z" style="fill:none;stroke:#000;stroke-opacity:0.56;stroke-width:0.65px;"/><path d="M918.37,1056.38l-36.759,-37.953l36.461,37.645l0.298,0.308Z" style="fill:none;stroke:#000;stroke-width:0.65px;"/><path d="M957.85,1034.71l-39.48,21.669l46.237,-100.245" style="fill:none;stroke:#3a3a3a;stroke-width:1px;"/><path d="M971.541,1025.84l-89.96,-7.443l89.96,7.443l-6.793,-69.946" style="fill:none;stroke:#3a3a3a;stroke-width:0.65px;"/><path d="M971.541,1025.84l-13.691,8.871" style="fill:none;stroke:#3a3a3a;stroke-width:1px;"/><path d="M1223.62,1046.12l-102.421,188.673l50.817,-173.269l2.174,49.018l49.43,-64.422Z" style="fill:none;stroke:#000;stroke-opacity:0.63;stroke-width:0.65px;"/><path d="M1172.05,1061.47l51.572,-15.349" style="fill:none;stroke:#3a3a3a;stroke-width:1px;"/><path d="M1174.36,1110.09l-52.991,124.252" style="fill:none;stroke:#000;stroke-width:0.6px;"/><path d="M1040.46,1205.92l-46.816,-19.406l10.747,-8.59l92.897,-74.256l-56.828,102.252Z" style="fill:none;stroke:#000;stroke-opacity:0.65;stroke-width:0.65px;"/><path d="M1047.21,1224.45l50.074,-120.786l-56.828,102.252" style="fill:none;stroke:#000;stroke-opacity:0.62;stroke-width:0.6px;"/><path d="M1047.21,1224.45l-6.754,-18.534" style="fill:none;stroke:#000;stroke-opacity:0.61;stroke-width:0.6px;"/><path d="M1047.21,1224.45l-53.57,-37.94" style="fill:none;stroke:#3a3a3a;stroke-width:1px;"/></g><path d="M1360.12,691.892l-195.882,183.247l-83.977,-9.098l279.859,-174.149Z" style="fill:none;stroke:#000;stroke-width:0.55px;"/><path d="M1164.24,875.139l102.354,58.438l93.52,-241.635" style="fill:none;stroke:#000;stroke-width:0.5px;"/><path d="M1266.56,933.635l-186.238,-67.562" style="fill:none;stroke:#000;stroke-opacity:0.4;stroke-width:0.5px;"/><path d="M1294.83,1007.41l-107.166,-69.802l72.376,-70.763l57.985,61.626l-23.195,78.939Z" style="fill:none;stroke:#000;stroke-width:0.5px;"/><path d="M1260.04,866.848l34.79,140.565l23.062,-78.885l-47.173,36.219l-83.055,-27.136l83.055,27.136l24.111,42.666" style="fill:none;stroke:#000;stroke-opacity:0.26;stroke-width:0.5px;"/><path d="M1203.68,709.843l-11.218,40.457l-25.581,92.258l119.183,-116.791l-79.885,33.924l-2.499,-49.848l82.384,15.924" style="fill:none;stroke:#000;stroke-opacity:0.52;stroke-width:0.5px;"/><path d="M1206.18,759.691l-39.298,82.867" style="fill:none;stroke:#000;stroke-width:0.5px;"/><path d="M1337.95,802.61l-198.542,145.19l13.999,-182.455l184.543,37.265Z" style="fill:none;stroke:#000;stroke-width:0.6px;"/><path d="M1223.79,846.179l-70.378,-80.834l70.378,80.834Z" style="fill:none;stroke:#000;stroke-opacity:0.31;stroke-width:0.5px;"/><path d="M1337.87,802.712l-114.051,43.482" style="fill:none;stroke:#000;stroke-opacity:0.51;stroke-width:0.5px;"/><path d="M1153.41,765.345l-0.891,3.212l-40.214,144.853l-44.736,22.602" style="fill:none;stroke:#000;stroke-opacity:0.69;stroke-width:0.4px;"/><path d="M1139.44,947.801l84.379,-101.607" style="fill:none;stroke:#000;stroke-opacity:0.52;stroke-width:0.5px;"/><path d="M1002.72,1013.39l-48.061,-122.079l-26.821,90.154l84.743,-69.637l-9.861,101.562Z" style="fill:none;stroke:#000;stroke-width:0.65px;"/><path d="M966.874,978.702l35.842,34.69l-35.842,-34.69Z" style="fill:none;stroke:#000;stroke-opacity:0.52;stroke-width:0.5px;"/><path d="M1012.58,911.83l-45.703,66.872l28.339,-8.702l17.364,-58.17Z" style="fill:none;stroke:#000;stroke-opacity:0.5;stroke-width:0.5px;"/><path d="M966.927,978.699l-22.315,1.58l-16.778,1.188" style="fill:none;stroke:#000;stroke-opacity:0.51;stroke-width:0.3px;"/><path d="M966.874,978.702l-12.266,-87.2" style="fill:none;stroke:#000;stroke-opacity:0.59;stroke-width:0.5px;"/><path d="M940.721,872.164l73.799,-121.187l0.326,-0.59l32.067,97.731l-106.192,24.046Z" style="fill:none;stroke:#000;stroke-opacity:0.3;stroke-width:0.5px;"/><path d="M1014.85,750.387l-74.125,121.777" style="fill:none;stroke:#000;stroke-opacity:0.3;stroke-width:0.65px;"/><path d="M1007.57,896.405l-66.797,-24.223l66.256,24.026l0.541,0.197Z" style="fill:none;stroke:#000;stroke-width:0.5px;"/><path d="M1046.91,848.118l-39.342,48.287l7.219,-145.651" style="fill:none;stroke:#000;stroke-width:0.5px;"/><path d="M1059.85,829.759l-119.129,42.405l119.129,-42.405l-45.004,-79.372" style="fill:none;stroke:#000;stroke-opacity:0.37;stroke-width:0.5px;"/><path d="M1059.85,829.759l-12.937,18.359" style="fill:none;stroke:#000;stroke-width:0.5px;"/><path d="M1351.36,736.295l-33.315,282.905l-24.812,-235.167l28.225,57.098l29.902,-104.836Z" style="fill:none;stroke:#000;stroke-width:0.6px;"/><path d="M1293.23,784.033l58.127,-47.738" style="fill:none;stroke:#000;stroke-width:0.6px;"/><path d="M1321.45,841.131l-3.413,178.069" style="fill:none;stroke:#000;stroke-width:0.5px;"/><path d="M1241.61,1004.8l-70.058,3.582l89.804,-157.655l-19.746,154.073Z" style="fill:none;stroke:#000;stroke-width:0.5px;"/><path d="M1259.88,1023.01l1.473,-172.282l-19.746,154.073" style="fill:none;stroke:#000;stroke-width:0.5px;"/><path d="M1259.88,1023.01l-18.273,-18.209" style="fill:none;stroke:#000;stroke-width:0.5px;"/><path d="M1259.88,1023.01l-88.331,-14.627" style="fill:none;stroke:#000;stroke-width:0.5px;"/><path d="M1034.08,734.744l99.659,-24.006l41.981,-39.435l-41.981,39.435l-73.884,118.777" style="fill:none;stroke:#000;stroke-opacity:0.52;stroke-width:0.5px;"/><path d="M1014.99,750.723l44.644,78.663" style="fill:none;stroke:#000;stroke-width:0.65px;"/><path d="M1104.66,811.806l-110.581,50.609" style="fill:none;stroke:#000;stroke-opacity:0.67;stroke-width:0.65px;"/><path d="M994.077,862.415l16.604,-28.768l-0.562,11.97l-16.042,16.798Z" style="fill:none;stroke:#000;stroke-opacity:0.67;stroke-width:0.65px;"/><path d="M1040.36,782.128l-3.817,6.498" style="fill:none;stroke:#000;stroke-opacity:0.67;stroke-width:0.65px;"/><path d="M1112.31,913.41l27.136,34.391" style="fill:none;stroke:#000;stroke-opacity:0.6;stroke-width:0.35px;"/><path d="M1139.44,947.801l-71.872,-11.789l85.841,-170.667" style="fill:none;stroke:#000;stroke-width:0.65px;"/></g><g><path d="M448.122,499.614l-5.215,-114.972l-81.933,126.88l52.95,17.46l34.198,-29.368l-87.148,11.908l52.95,17.46l28.983,-144.34" style="fill:none;stroke:#000;stroke-opacity:0.67;stroke-width:0.2px;"/><path d="M413.924,528.982l34.198,-29.368l-87.148,11.908l52.95,17.46Z" style="fill:none;stroke:#000;stroke-opacity:0.3;stroke-width:0.65px;"/><path d="M398.086,636.801l-97.583,-72.253l126.443,18.371l59.62,-38.113l-88.48,91.995l28.86,-53.882l-126.443,-18.371l186.063,-19.742l-89.692,227.893l-73.603,-48.446l52.03,-60.818l22.785,-26.634l-18.25,71.368l-56.565,16.084l56.565,-16.084l17.038,64.53l-17.038,-64.53l106.73,-163.363l-88.48,91.995" style="fill:none;stroke:#000;stroke-opacity:0.48;stroke-width:0.4px;"/><path d="M486.566,544.806l-89.692,227.893l89.692,-227.893l-105.752,161.623" style="fill:none;stroke:#000;stroke-opacity:0.52;stroke-width:0.5px;"/><path d="M341.806,313.061l-41.86,33.484l33.016,-114.266l8.844,80.782l18.75,27.125l-60.61,6.359l60.61,-6.359l-27.594,-107.907" style="fill:none;stroke:#000;stroke-width:0.2px;"/><path d="M341.806,313.061l-8.844,-80.782l-32.947,113.961l60.583,-6.065l-27.636,-107.896" style="fill:none;stroke:#000;stroke-opacity:0.51;stroke-width:0.65px;"/><g><path d="M112.713,359.139l143.499,-191.306l76.593,-0.737l-220.092,192.043Z" style="fill:none;stroke:#3a3a3a;stroke-width:0.65px;"/><path d="M256.212,167.833l-12.105,-5.129l-89.39,-37.875l-42.006,234.263" style="fill:none;stroke:#000;stroke-opacity:0.75;stroke-width:0.65px;"/><path d="M154.736,124.771l178.01,42.302" style="fill:none;stroke:#000;stroke-opacity:0.67;stroke-width:0.65px;"/><path d="M116.791,59.452l107.749,53.015l-52.496,73.518l-62.403,-50.807l7.15,-75.726Z" style="fill:none;stroke:#000;stroke-width:0.6px;"/><path d="M172.044,185.985l-24.987,-57.222l-30.266,-69.311l-7.041,75.662l35.919,-38.736l78.871,16.089l-78.871,-16.089l-28.878,-36.926" style="fill:none;stroke:#000;stroke-width:0.55px;"/><path d="M249.393,325.407l10.058,-127.075l-86.401,121.309l65.539,-40.181l10.804,45.947l-76.343,-5.766" style="fill:none;stroke:#000;stroke-opacity:0.49;stroke-width:0.55px;"/><path d="M238.589,279.46l20.862,-81.128" style="fill:none;stroke:#000;stroke-opacity:0.58;stroke-width:0.65px;"/><path d="M113.477,254.059l152.421,-156.31l18.939,170.659l-171.36,-14.349Z" style="fill:none;stroke:#000;stroke-width:0.65px;"/><path d="M207.985,201.19l76.852,67.218l-76.852,-67.218Z" style="fill:none;stroke:#000;stroke-width:0.6px;"/><path d="M113.533,253.955l94.452,-52.765" style="fill:none;stroke:#3a3a3a;stroke-width:0.6px;"/><path d="M207.985,201.19l57.913,-103.441l67.21,2.708l-48.271,167.951l11.158,-141.629l-30.097,-29.03" style="fill:none;stroke:#000;stroke-opacity:0.67;stroke-width:0.5px;"/><path d="M295.963,126.812l37.145,-26.355" style="fill:none;stroke:#000;stroke-opacity:0.67;stroke-width:0.55px;"/><path d="M376.75,22l63.931,107.944l8.46,-86.522l-63.738,73.825l-8.653,-95.247Z" style="fill:none;stroke:#3a3a3a;stroke-width:1px;"/><path d="M414.737,50.25l-37.987,-28.25l37.987,28.25Z" style="fill:none;stroke:#3a3a3a;stroke-width:1px;"/><path d="M385.403,117.247l29.334,-66.997l-23.823,11.164l-5.511,55.833Z" style="fill:none;stroke:#000;stroke-opacity:0.69;stroke-width:0.35px;"/><path d="M414.691,50.258l34.45,-6.836" style="fill:none;stroke:#3a3a3a;stroke-width:1px;"/><path d="M414.737,50.25l25.953,79.513" style="fill:none;stroke:#000;stroke-opacity:0.67;stroke-width:0.5px;"/><path d="M456.423,146.177l-45.098,120.428l-0.19,0.582l-45.454,-87.115l10.475,-3.913l80.267,-29.982Z" style="fill:none;stroke:#000;stroke-opacity:0.56;stroke-width:0.65px;"/><path d="M392.527,131.003l63.845,15.163l-63.327,-15.04l-0.518,-0.123Z" style="fill:none;stroke:#000;stroke-width:0.65px;"/><path d="M365.681,180.072l26.846,-49.069l18.595,135.837" style="fill:none;stroke:#3a3a3a;stroke-width:1px;"/><path d="M357.279,198.508l99.144,-52.331l-99.144,52.331l53.856,68.679" style="fill:none;stroke:#3a3a3a;stroke-width:0.65px;"/><path d="M357.279,198.508l8.402,-18.436" style="fill:none;stroke:#3a3a3a;stroke-width:1px;"/><path d="M79.845,345.743l-18.881,-265.953l62.605,215.34l-35.035,-49.858l-8.689,100.471Z" style="fill:none;stroke:#000;stroke-opacity:0.63;stroke-width:0.65px;"/><path d="M123.572,295.209l-43.727,50.534" style="fill:none;stroke:#3a3a3a;stroke-width:1px;"/><path d="M88.657,245.86l-27.569,-165.481" style="fill:none;stroke:#000;stroke-width:0.6px;"/><path d="M164.788,56.062l61.976,-10.974l-5.508,16.174l-47.618,139.816l-8.85,-145.016Z" style="fill:none;stroke:#000;stroke-opacity:0.65;stroke-width:0.65px;"/><path d="M145.331,41.174l28.307,159.904l-8.85,-145.016" style="fill:none;stroke:#000;stroke-opacity:0.62;stroke-width:0.6px;"/><path d="M145.331,41.174l19.457,14.888" style="fill:none;stroke:#000;stroke-opacity:0.61;stroke-width:0.6px;"/><path d="M145.331,41.174l81.433,3.914" style="fill:none;stroke:#3a3a3a;stroke-width:1px;"/></g><path d="M173.7,807.779l82.581,-322.735l93.987,-46.6l-176.568,369.335Z" style="fill:none;stroke:#000;stroke-width:0.55px;"/><path d="M256.281,485.044l-146.199,7.232l63.593,315.445" style="fill:none;stroke:#000;stroke-width:0.5px;"/><path d="M110.077,492.194l240.107,-53.744" style="fill:none;stroke:#000;stroke-opacity:0.4;stroke-width:0.5px;"/><path d="M31.175,433.858l158.831,1.446l-28.47,122.446l-101.885,-25.758l-28.476,-98.134Z" style="fill:none;stroke:#000;stroke-width:0.5px;"/><path d="M161.536,557.75l-130.361,-123.892l28.579,97.989l25.175,-69.441l105.077,-27.102l-105.077,27.102l-53.754,-28.548" style="fill:none;stroke:#000;stroke-opacity:0.26;stroke-width:0.5px;"/><path d="M325.461,684.438l-15.295,-49.848l-34.88,-113.672l-46.707,201.909l60.951,-88.901l35.931,50.512l-96.882,38.389" style="fill:none;stroke:#000;stroke-opacity:0.52;stroke-width:0.5px;"/><path d="M289.53,633.926l-14.244,-113.008" style="fill:none;stroke:#000;stroke-width:0.5px;"/><path d="M122.906,677.066l110.8,-284.674l107.284,200.35l-218.084,84.324Z" style="fill:none;stroke:#000;stroke-width:0.6px;"/><path d="M213.296,555.159l127.694,37.583l-127.694,-37.583Z" style="fill:none;stroke:#000;stroke-opacity:0.31;stroke-width:0.5px;"/><path d="M122.924,676.905l90.328,-121.74" style="fill:none;stroke:#000;stroke-opacity:0.51;stroke-width:0.5px;"/><path d="M340.99,592.742l-1.214,-3.959l-54.712,-178.508l31.724,-53.557" style="fill:none;stroke:#000;stroke-opacity:0.69;stroke-width:0.4px;"/><path d="M233.675,392.411l-20.423,162.754" style="fill:none;stroke:#000;stroke-opacity:0.52;stroke-width:0.5px;"/><path d="M332.964,232.373l131.898,95.672l-32.176,-112.298l-42.169,129.531l-57.553,-112.905Z" style="fill:none;stroke:#000;stroke-width:0.65px;"/><path d="M393.667,244.732l-60.703,-12.359l60.703,12.359Z" style="fill:none;stroke:#000;stroke-opacity:0.52;stroke-width:0.5px;"/><path d="M390.517,345.278l3.15,-100.546l-23.85,28.049l20.7,72.497Z" style="fill:none;stroke:#000;stroke-opacity:0.5;stroke-width:0.5px;"/><path d="M393.614,244.77l22.303,-16.567l16.769,-12.456" style="fill:none;stroke:#000;stroke-opacity:0.51;stroke-width:0.3px;"/><path d="M393.667,244.732l71.117,83.084" style="fill:none;stroke:#000;stroke-opacity:0.59;stroke-width:0.5px;"/><path d="M492.246,338.777l3.739,176.181l0.052,0.835l-98.883,-80.874l95.092,-96.142Z" style="fill:none;stroke:#000;stroke-opacity:0.3;stroke-width:0.5px;"/><path d="M496.037,515.793l-3.791,-177.016" style="fill:none;stroke:#000;stroke-opacity:0.3;stroke-width:0.65px;"/><path d="M406.066,358.08l86.111,-19.286l-85.413,19.13l-0.698,0.156Z" style="fill:none;stroke:#000;stroke-width:0.5px;"/><path d="M397.154,434.919l8.912,-76.839l89.785,157.291" style="fill:none;stroke:#000;stroke-width:0.5px;"/><path d="M395.881,462.783l96.365,-124.006l-96.365,124.006l100.156,53.01" style="fill:none;stroke:#000;stroke-opacity:0.37;stroke-width:0.5px;"/><path d="M395.881,462.783l1.273,-27.864" style="fill:none;stroke:#000;stroke-width:0.5px;"/><path d="M153.198,755.441l-154.198,-318.41l183.14,229.59l-67.705,-40.906l38.763,129.726Z" style="fill:none;stroke:#000;stroke-width:0.6px;"/><path d="M182.14,666.621l-28.942,88.82" style="fill:none;stroke:#000;stroke-width:0.6px;"/><path d="M114.435,625.715l-115.435,-188.684" style="fill:none;stroke:#000;stroke-width:0.5px;"/><path d="M88.63,401.027l70.943,-50.571l11.358,225.052l-82.301,-174.481Z" style="fill:none;stroke:#000;stroke-width:0.5px;"/><path d="M57.333,394.178l113.598,181.33l-82.301,-174.481" style="fill:none;stroke:#000;stroke-width:0.5px;"/><path d="M57.333,394.178l31.297,6.849" style="fill:none;stroke:#000;stroke-width:0.5px;"/><path d="M57.333,394.178l102.24,-43.722" style="fill:none;stroke:#000;stroke-width:0.5px;"/><path d="M486.356,545.024l-88.279,91.734l-17.59,69.336l17.59,-69.336l-2.039,-173.714" style="fill:none;stroke:#000;stroke-opacity:0.52;stroke-width:0.5px;"/><path d="M495.658,515.54l-99.306,-52.508" style="fill:none;stroke:#000;stroke-width:0.65px;"/><path d="M360.974,511.522l81.933,-126.88" style="fill:none;stroke:#000;stroke-opacity:0.67;stroke-width:0.65px;"/><path d="M442.907,384.642l1.846,41.211l-7.411,-12.907l5.565,-28.304Z" style="fill:none;stroke:#000;stroke-opacity:0.67;stroke-width:0.65px;"/><path d="M448.122,499.614l-0.348,-9.353" style="fill:none;stroke:#000;stroke-opacity:0.67;stroke-width:0.65px;"/><path d="M285.064,410.275l-51.389,-17.864" style="fill:none;stroke:#000;stroke-opacity:0.6;stroke-width:0.35px;"/><path d="M233.675,392.411l83.113,-35.693l24.202,236.024" style="fill:none;stroke:#000;stroke-width:0.65px;"/></g><g><path d="M1325.98,443.182l0.508,-98.703l-75.668,105.133l44.598,17.245l30.562,-23.675l-75.16,6.43l44.598,17.245l31.07,-122.378" style="fill:none;stroke:#000;stroke-opacity:0.67;stroke-width:0.2px;"/><path d="M1295.42,466.857l30.562,-23.675l-75.16,6.43l44.598,17.245Z" style="fill:none;stroke:#000;stroke-opacity:0.3;stroke-width:0.65px;"/><path d="M1277.19,558.523l-80.458,-66.109l107.509,21.206l52.716,-30.066l-79.767,74.969l27.051,-44.903l-107.509,-21.206l160.225,-8.86l-86.685,191.319l-60.948,-44.681l47.197,-49.842l20.669,-21.827l-18.72,60.34l-49.146,11.329l49.146,-11.329l11.802,56.01l-11.802,-56.01l98.487,-135.309l-79.767,74.969" style="fill:none;stroke:#000;stroke-opacity:0.48;stroke-width:0.4px;"/><path d="M1356.96,483.554l-86.685,191.319l86.685,-191.319l-97.573,133.861" style="fill:none;stroke:#000;stroke-opacity:0.52;stroke-width:0.5px;"/><path d="M1242.99,278.793l-37.303,26.869l33.223,-96.445l4.08,69.576l14.886,24.044l-52.189,2.825l52.189,-2.825l-18.966,-93.62" style="fill:none;stroke:#000;stroke-width:0.2px;"/><path d="M1242.99,278.793l-4.08,-69.576l-33.151,96.187l52.154,-2.574l-19.003,-93.613" style="fill:none;stroke:#000;stroke-opacity:0.51;stroke-width:0.65px;"/><g><path d="M1044.77,308.348l131.19,-157.652l65.637,2.683l-196.827,154.969Z" style="fill:none;stroke:#3a3a3a;stroke-width:0.65px;"/><path d="M1175.96,150.696l-10.147,-4.917l-74.927,-36.309l-46.115,198.838" style="fill:none;stroke:#000;stroke-opacity:0.75;stroke-width:0.65px;"/><path d="M1090.9,109.422l150.642,43.934" style="fill:none;stroke:#000;stroke-opacity:0.67;stroke-width:0.65px;"/><path d="M1061.23,51.831l89.997,50.072l-48.146,60.7l-51.252,-46.218l9.401,-64.554Z" style="fill:none;stroke:#000;stroke-width:0.6px;"/><path d="M1103.08,162.603l-18.926,-50.094l-22.925,-60.678l-9.304,64.503l32.441,-31.624l66.86,17.193l-66.86,-17.193l-23.137,-32.879" style="fill:none;stroke:#000;stroke-width:0.55px;"/><path d="M1163.3,285.369l14.113,-108.409l-79.255,100.167l57.875,-31.581l7.267,39.823l-65.142,-8.242" style="fill:none;stroke:#000;stroke-opacity:0.49;stroke-width:0.55px;"/><path d="M1156.03,245.546l21.38,-68.586" style="fill:none;stroke:#000;stroke-opacity:0.58;stroke-width:0.65px;"/><path d="M1049.97,218.376l137.316,-127.29l8.839,146.995l-146.155,-19.705Z" style="fill:none;stroke:#000;stroke-width:0.65px;"/><path d="M1133.21,177.181l62.919,60.9l-62.919,-60.9Z" style="fill:none;stroke:#000;stroke-width:0.6px;"/><path d="M1050.02,218.29l83.184,-41.109" style="fill:none;stroke:#3a3a3a;stroke-width:0.6px;"/><path d="M1133.21,177.181l54.08,-86.095l57.451,5.227l-48.612,141.768l15.685,-120.828l-24.524,-26.167" style="fill:none;stroke:#000;stroke-opacity:0.67;stroke-width:0.5px;"/><path d="M1211.78,117.28l32.956,-20.967" style="fill:none;stroke:#000;stroke-opacity:0.67;stroke-width:0.55px;"/><path d="M1285.51,31l50.089,95.224l10.99,-73.743l-57.789,60.476l-3.29,-81.957Z" style="fill:none;stroke:#3a3a3a;stroke-width:1px;"/><path d="M1316.83,56.84l-31.315,-25.84l31.315,25.84Z" style="fill:none;stroke:#3a3a3a;stroke-width:1px;"/><path d="M1288.8,112.957l28.025,-56.117l-20.888,8.532l-7.137,47.585Z" style="fill:none;stroke:#000;stroke-opacity:0.69;stroke-width:0.35px;"/><path d="M1316.79,56.846l29.804,-4.365" style="fill:none;stroke:#3a3a3a;stroke-width:1px;"/><path d="M1316.83,56.84l18.789,69.23" style="fill:none;stroke:#000;stroke-opacity:0.67;stroke-width:0.5px;"/><path d="M1348.38,140.809l-43.838,101.2l-0.188,0.49l-35.164,-76.583l9.141,-2.899l70.049,-22.208Z" style="fill:none;stroke:#000;stroke-opacity:0.56;stroke-width:0.65px;"/><path d="M1294.31,125.048l54.028,15.749l-53.59,-15.622l-0.438,-0.127Z" style="fill:none;stroke:#000;stroke-width:0.65px;"/><path d="M1269.19,165.916l25.118,-40.868l10.05,117.154" style="fill:none;stroke:#3a3a3a;stroke-width:1px;"/><path d="M1261.2,181.343l87.185,-40.534l-87.185,40.534l43.159,61.156" style="fill:none;stroke:#3a3a3a;stroke-width:0.65px;"/><path d="M1261.2,181.343l7.995,-15.427" style="fill:none;stroke:#3a3a3a;stroke-width:1px;"/><path d="M1017.2,295.452l-4.665,-228.615l44.306,187.155l-27.852,-44.221l-11.789,85.681Z" style="fill:none;stroke:#000;stroke-opacity:0.63;stroke-width:0.65px;"/><path d="M1056.84,254.06l-39.64,41.392" style="fill:none;stroke:#3a3a3a;stroke-width:1px;"/><path d="M1029.07,210.28l-16.455,-142.934" style="fill:none;stroke:#000;stroke-width:0.6px;"/><path d="M1102.49,51.004l53.559,-6.717l-5.418,13.615l-46.835,117.697l-1.306,-124.595Z" style="fill:none;stroke:#000;stroke-opacity:0.65;stroke-width:0.65px;"/><path d="M1086.46,37.411l17.328,138.188l-1.306,-124.595" style="fill:none;stroke:#000;stroke-opacity:0.62;stroke-width:0.6px;"/><path d="M1086.46,37.411l16.022,13.593" style="fill:none;stroke:#000;stroke-opacity:0.61;stroke-width:0.6px;"/><path d="M1086.46,37.411l69.581,6.876" style="fill:none;stroke:#3a3a3a;stroke-width:1px;"/></g><path d="M1077.6,695.264l84.696,-272.862l82.52,-35.848l-167.216,308.71Z" style="fill:none;stroke:#000;stroke-width:0.55px;"/><path d="M1162.29,422.402l-125.537,-0.13l40.821,272.941" style="fill:none;stroke:#000;stroke-width:0.5px;"/><path d="M1036.76,422.2l207.986,-35.644" style="fill:none;stroke:#000;stroke-opacity:0.4;stroke-width:0.5px;"/><path d="M971.697,368.82l135.982,8.111l-29.684,103.647l-86.154,-26.47l-20.144,-85.288Z" style="fill:none;stroke:#000;stroke-width:0.5px;"/><path d="M1078,480.578l-106.298,-111.758l20.239,85.168l24.568,-58.389l91.175,-18.668l-91.175,18.668l-44.807,-26.779" style="fill:none;stroke:#000;stroke-opacity:0.26;stroke-width:0.5px;"/><path d="M1212.92,596.183l-10.945,-43.357l-24.957,-98.874l-48.742,170.922l56.053,-73.51l28.591,44.819l-84.644,28.691" style="fill:none;stroke:#000;stroke-opacity:0.52;stroke-width:0.5px;"/><path d="M1184.33,551.364l-7.311,-97.412" style="fill:none;stroke:#000;stroke-width:0.5px;"/><path d="M1039.75,581.106l107.221,-239.04l83.224,176.249l-190.445,62.791Z" style="fill:none;stroke:#000;stroke-width:0.6px;"/><path d="M1122.44,480.599l107.749,37.716l-107.749,-37.716Z" style="fill:none;stroke:#000;stroke-opacity:0.31;stroke-width:0.5px;"/><path d="M1039.77,580.968l82.637,-100.366" style="fill:none;stroke:#000;stroke-opacity:0.51;stroke-width:0.5px;"/><path d="M1230.19,518.315l-0.868,-3.444l-39.14,-155.266l29.49,-44.501" style="fill:none;stroke:#000;stroke-opacity:0.69;stroke-width:0.4px;"/><path d="M1146.94,342.081l-24.534,138.521" style="fill:none;stroke:#000;stroke-opacity:0.52;stroke-width:0.5px;"/><path d="M1238.91,209.298l108.837,87.653l-22.702,-97.579l-41.723,109.124l-44.412,-99.198Z" style="fill:none;stroke:#000;stroke-width:0.65px;"/><path d="M1290.37,222.51l-51.46,-13.212l51.46,13.212Z" style="fill:none;stroke:#000;stroke-opacity:0.52;stroke-width:0.5px;"/><path d="M1283.32,308.496l7.048,-85.986l-21.642,22.994l14.594,62.992Z" style="fill:none;stroke:#000;stroke-opacity:0.5;stroke-width:0.5px;"/><path d="M1290.32,222.541l19.82,-13.226l14.902,-9.943" style="fill:none;stroke:#000;stroke-opacity:0.51;stroke-width:0.3px;"/><path d="M1290.37,222.51l57.32,74.242" style="fill:none;stroke:#000;stroke-opacity:0.59;stroke-width:0.5px;"/><path d="M1370.73,307.328l-4.42,151.068l0.009,0.717l-81.198,-73.55l85.609,-78.235Z" style="fill:none;stroke:#000;stroke-opacity:0.3;stroke-width:0.5px;"/><path d="M1366.32,459.113l4.411,-151.785" style="fill:none;stroke:#000;stroke-opacity:0.3;stroke-width:0.65px;"/><path d="M1296.08,320.134l74.592,-12.794l-73.987,12.69l-0.605,0.104Z" style="fill:none;stroke:#000;stroke-width:0.5px;"/><path d="M1285.12,385.563l10.958,-65.429l70.099,138.61" style="fill:none;stroke:#000;stroke-width:0.5px;"/><path d="M1282.83,409.375l87.905,-102.047l-87.905,102.047l83.494,49.738" style="fill:none;stroke:#000;stroke-opacity:0.37;stroke-width:0.5px;"/><path d="M1282.83,409.375l2.296,-23.812" style="fill:none;stroke:#000;stroke-width:0.5px;"/><path d="M1062.3,649.547l-118.3,-279.401l146.933,204.576l-56.222,-37.967l27.589,112.792Z" style="fill:none;stroke:#000;stroke-width:0.6px;"/><path d="M1090.93,574.722l-28.633,74.825" style="fill:none;stroke:#000;stroke-width:0.6px;"/><path d="M1034.71,536.755l-90.711,-166.609" style="fill:none;stroke:#000;stroke-width:0.5px;"/><path d="M1022.33,343.185l62.952,-40.246l-0.008,193.256l-62.944,-153.01Z" style="fill:none;stroke:#000;stroke-width:0.5px;"/><path d="M995.818,335.965l89.456,160.23l-62.944,-153.01" style="fill:none;stroke:#000;stroke-width:0.5px;"/><path d="M995.818,335.965l26.512,7.22" style="fill:none;stroke:#000;stroke-width:0.5px;"/><path d="M995.818,335.965l89.464,-33.026" style="fill:none;stroke:#000;stroke-width:0.5px;"/><path d="M1356.77,483.732l-79.583,74.754l-18.066,58.628l18.066,-58.628l5.769,-148.881" style="fill:none;stroke:#000;stroke-opacity:0.52;stroke-width:0.5px;"/><path d="M1366.01,458.88l-82.788,-49.271" style="fill:none;stroke:#000;stroke-width:0.65px;"/><path d="M1250.82,449.612l75.668,-105.133" style="fill:none;stroke:#000;stroke-opacity:0.67;stroke-width:0.65px;"/><path d="M1326.49,344.479l-0.203,35.378l-5.789,-11.375l5.992,-24.003Z" style="fill:none;stroke:#000;stroke-opacity:0.67;stroke-width:0.65px;"/><path d="M1325.98,443.182l0.107,-8.026" style="fill:none;stroke:#000;stroke-opacity:0.67;stroke-width:0.65px;"/><path d="M1190.18,359.605l-43.244,-17.524" style="fill:none;stroke:#000;stroke-opacity:0.6;stroke-width:0.35px;"/><path d="M1146.94,342.081l72.734,-26.977l10.518,203.211" style="fill:none;stroke:#000;stroke-width:0.65px;"/></g><g><path d="M25.281,1056.26l1.01,123.007l92.544,-132.27l-55.863,-20.748l-37.691,30.011l93.554,-9.263l-55.863,-20.748l-36.681,153.018" style="fill:none;stroke:#000;stroke-opacity:0.67;stroke-width:0.2px;"/><path d="M62.972,1026.25l-37.691,30.011l93.554,-9.263l-55.863,-20.748Z" style="fill:none;stroke:#000;stroke-opacity:0.3;stroke-width:0.65px;"/><path d="M84.164,911.72l101.363,81.043l-134.325,-24.636l-65.191,38.343l98.153,-94.75l-32.962,56.407l134.325,24.636l-199.516,13.707l104.838,-239.853l76.694,54.664l-57.986,62.896l-25.393,27.543l22.324,-75.503l61.055,-14.936l-61.055,14.936l-15.639,-69.6l15.639,69.6l-120.477,170.253l98.153,-94.75" style="fill:none;stroke:#000;stroke-opacity:0.48;stroke-width:0.4px;"/><path d="M-13.989,1006.47l104.838,-239.853l-104.838,239.853l119.363,-168.434" style="fill:none;stroke:#000;stroke-opacity:0.52;stroke-width:0.5px;"/><path d="M131.438,1259.74l46.038,-34.104l-39.796,120.737l-6.242,-86.633l-18.951,-29.715l64.989,-4.389l-64.989,4.389l25.193,116.348" style="fill:none;stroke:#000;stroke-width:0.2px;"/><path d="M131.438,1259.74l6.242,86.633l39.71,-120.414l-64.949,4.076l25.239,116.338" style="fill:none;stroke:#000;stroke-opacity:0.51;stroke-width:0.65px;"/><g><path d="M377.957,1219.61l-160.858,198.641l-81.837,-2.251l242.695,-196.39Z" style="fill:none;stroke:#3a3a3a;stroke-width:0.65px;"/><path d="M217.099,1418.25l12.727,5.959l93.974,43.999l54.157,-248.548" style="fill:none;stroke:#000;stroke-opacity:0.75;stroke-width:0.65px;"/><path d="M323.777,1468.27l-188.453,-52.241" style="fill:none;stroke:#000;stroke-opacity:0.67;stroke-width:0.65px;"/><path d="M361.715,1539.54l-112.982,-60.898l58.986,-76.443l64.637,56.741l-10.641,80.6Z" style="fill:none;stroke:#000;stroke-width:0.6px;"/><path d="M307.719,1402.2l24.419,62.109l29.577,75.232l10.521,-80.535l-39.9,39.948l-83.603,-20.311l83.603,20.311l29.379,40.587" style="fill:none;stroke:#000;stroke-width:0.55px;"/><path d="M230.633,1250.21l-15.783,135.329l97.095,-126.142l-71.595,40.318l-9.717,-49.505l81.312,9.187" style="fill:none;stroke:#000;stroke-opacity:0.49;stroke-width:0.55px;"/><path d="M240.35,1299.72l-25.5,85.824" style="fill:none;stroke:#000;stroke-opacity:0.58;stroke-width:0.65px;"/><path d="M372.973,1331.81l-168.998,160.908l-13.461,-183.03l182.459,22.122Z" style="fill:none;stroke:#000;stroke-width:0.65px;"/><path d="M269.934,1384.53l-79.42,-74.842l79.42,74.842Z" style="fill:none;stroke:#000;stroke-width:0.6px;"/><path d="M372.909,1331.92l-102.975,52.611" style="fill:none;stroke:#3a3a3a;stroke-width:0.6px;"/><path d="M269.934,1384.53l-65.959,108.188l-71.679,-5.558l58.218,-177.472l-17.534,150.83l30.995,32.2" style="fill:none;stroke:#000;stroke-opacity:0.67;stroke-width:0.5px;"/><path d="M173.015,1460.49l-40.719,26.676" style="fill:none;stroke:#000;stroke-opacity:0.67;stroke-width:0.55px;"/><path d="M82.571,1569.23l-64.003,-117.83l-12.468,92.078l71.006,-76.324l5.465,102.076Z" style="fill:none;stroke:#3a3a3a;stroke-width:1px;"/><path d="M43.117,1537.55l39.454,31.68l-39.454,-31.68Z" style="fill:none;stroke:#3a3a3a;stroke-width:1px;"/><path d="M77.106,1467.15l-33.989,70.396l25.888,-10.98l8.101,-59.416Z" style="fill:none;stroke:#000;stroke-opacity:0.69;stroke-width:0.35px;"/><path d="M43.167,1537.54l-37.067,5.935" style="fill:none;stroke:#3a3a3a;stroke-width:1px;"/><path d="M43.117,1537.55l-24.566,-85.957" style="fill:none;stroke:#000;stroke-opacity:0.67;stroke-width:0.5px;"/><path d="M2.398,1433.44l52.944,-126.84l0.227,-0.614l45.094,94.849l-11.343,3.764l-86.922,28.841Z" style="fill:none;stroke:#000;stroke-opacity:0.56;stroke-width:0.65px;"/><path d="M70.042,1452.18l-67.59,-18.727l67.042,18.575l0.548,0.152Z" style="fill:none;stroke:#000;stroke-width:0.65px;"/><path d="M100.663,1400.83l-30.621,51.346l-14.473,-145.824" style="fill:none;stroke:#3a3a3a;stroke-width:1px;"/><path d="M110.368,1381.48l-107.97,51.962l107.97,-51.962l-54.799,-75.492" style="fill:none;stroke:#3a3a3a;stroke-width:0.65px;"/><path d="M110.368,1381.48l-9.705,19.357" style="fill:none;stroke:#3a3a3a;stroke-width:1px;"/><path d="M412.532,1235.22l9.618,284.81l-58.327,-232.485l35.444,54.643l13.265,-106.968Z" style="fill:none;stroke:#000;stroke-opacity:0.63;stroke-width:0.65px;"/><path d="M363.823,1287.46l48.709,-52.241" style="fill:none;stroke:#3a3a3a;stroke-width:1px;"/><path d="M399.158,1341.55l22.884,177.842" style="fill:none;stroke:#000;stroke-width:0.6px;"/><path d="M310.316,1541.26l-66.631,9.263l6.525,-17.057l56.405,-147.448l3.701,155.242Z" style="fill:none;stroke:#000;stroke-opacity:0.65;stroke-width:0.65px;"/><path d="M330.508,1557.93l-23.893,-171.915l3.701,155.242" style="fill:none;stroke:#000;stroke-opacity:0.62;stroke-width:0.6px;"/><path d="M330.508,1557.93l-20.192,-16.673" style="fill:none;stroke:#000;stroke-opacity:0.61;stroke-width:0.6px;"/><path d="M330.508,1557.93l-86.823,-7.41" style="fill:none;stroke:#3a3a3a;stroke-width:1px;"/></g><path d="M330.61,738l-101.003,341.435l-102.235,46.045l203.238,-387.48Z" style="fill:none;stroke:#000;stroke-width:0.55px;"/><path d="M229.607,1079.43l156.441,-1.927l-55.413,-339.446" style="fill:none;stroke:#000;stroke-width:0.5px;"/><path d="M386.049,1077.6l-258.587,47.88" style="fill:none;stroke:#000;stroke-opacity:0.4;stroke-width:0.5px;"/><path d="M468.01,1143.03l-169.588,-7.845l35.265,-129.653l107.801,31.552l26.522,105.946Z" style="fill:none;stroke:#000;stroke-width:0.5px;"/><path d="M333.687,1005.54l134.323,137.498l-26.638,-105.795l-29.644,73.17l-113.306,24.78l113.306,-24.78l56.282,32.625" style="fill:none;stroke:#000;stroke-opacity:0.26;stroke-width:0.5px;"/><path d="M163.624,863.721l14.36,53.848l32.746,122.795l57.895,-213.805l-68.626,92.537l-36.375,-55.375l105.001,-37.162" style="fill:none;stroke:#000;stroke-opacity:0.52;stroke-width:0.5px;"/><path d="M199.999,919.096l10.731,121.268" style="fill:none;stroke:#000;stroke-width:0.5px;"/><path d="M379.679,879.627l-129.635,299.664l-106.643,-218.247l236.278,-81.417Z" style="fill:none;stroke:#000;stroke-width:0.6px;"/><path d="M278.3,1006.25l-134.899,-45.206l134.899,45.206Z" style="fill:none;stroke:#000;stroke-opacity:0.31;stroke-width:0.5px;"/><path d="M379.653,879.799l-101.306,126.447" style="fill:none;stroke:#000;stroke-opacity:0.51;stroke-width:0.5px;"/><path d="M143.401,961.044l1.14,4.276l51.358,192.833l-36.008,55.946" style="fill:none;stroke:#000;stroke-opacity:0.69;stroke-width:0.4px;"/><path d="M250.079,1179.27l28.268,-173.025" style="fill:none;stroke:#000;stroke-opacity:0.52;stroke-width:0.5px;"/><path d="M137.681,1346.27l-137.085,-107.418l29.914,121.221l50.177,-136.679l56.994,122.876Z" style="fill:none;stroke:#000;stroke-width:0.65px;"/><path d="M73.336,1330.66l64.345,15.608l-64.345,-15.608Z" style="fill:none;stroke:#000;stroke-opacity:0.52;stroke-width:0.5px;"/><path d="M80.687,1223.39l-7.351,107.268l26.586,-29.013l-19.235,-78.255Z" style="fill:none;stroke:#000;stroke-opacity:0.5;stroke-width:0.5px;"/><path d="M73.394,1330.62l-24.479,16.811l-18.405,12.639" style="fill:none;stroke:#000;stroke-opacity:0.51;stroke-width:0.3px;"/><path d="M73.336,1330.66l-72.665,-91.562" style="fill:none;stroke:#000;stroke-opacity:0.59;stroke-width:0.5px;"/><path d="M-28.226,1226.3l2.994,-188.325l-0.023,-0.894l102.408,90.303l-105.379,98.916Z" style="fill:none;stroke:#000;stroke-opacity:0.3;stroke-width:0.5px;"/><path d="M64.587,1209.1l-92.739,17.184l91.988,-17.045l0.751,-0.139Z" style="fill:none;stroke:#000;stroke-width:0.5px;"/><path d="M77.153,1127.39l-12.566,81.717l-89.659,-171.562" style="fill:none;stroke:#000;stroke-width:0.5px;"/><path d="M79.619,1097.67l-107.845,128.627l107.845,-128.627l-104.874,-60.592" style="fill:none;stroke:#000;stroke-opacity:0.37;stroke-width:0.5px;"/><path d="M79.619,1097.67l-2.466,29.711" style="fill:none;stroke:#000;stroke-width:0.5px;"/><path d="M350.433,794.714l152.069,346.206l-186.505,-252.486l70.693,46.377l-36.257,-140.097Z" style="fill:none;stroke:#000;stroke-width:0.6px;"/><path d="M315.997,888.434l34.436,-93.72" style="fill:none;stroke:#000;stroke-width:0.6px;"/><path d="M386.69,934.811l115.812,206.109" style="fill:none;stroke:#000;stroke-width:0.5px;"/><path d="M405.341,1175.82l-77.779,51.2l-3.206,-240.826l80.985,189.626Z" style="fill:none;stroke:#000;stroke-width:0.5px;"/><path d="M438.498,1184.38l-114.142,-198.182l80.985,189.626" style="fill:none;stroke:#000;stroke-width:0.5px;"/><path d="M438.498,1184.38l-33.157,-8.556" style="fill:none;stroke:#000;stroke-width:0.5px;"/><path d="M438.498,1184.38l-110.936,42.644" style="fill:none;stroke:#000;stroke-width:0.5px;"/><path d="M-13.755,1006.25l97.928,-94.479l21.537,-73.36l-21.537,73.36l-4.711,185.623" style="fill:none;stroke:#000;stroke-opacity:0.52;stroke-width:0.5px;"/><path d="M-24.86,1037.37l103.985,60.022" style="fill:none;stroke:#000;stroke-width:0.65px;"/><path d="M118.835,1047l-92.544,132.27" style="fill:none;stroke:#000;stroke-opacity:0.67;stroke-width:0.65px;"/><path d="M26.291,1179.27l-0.336,-44.09l7.403,14.08l-7.067,30.01Z" style="fill:none;stroke:#000;stroke-opacity:0.67;stroke-width:0.65px;"/><path d="M25.281,1056.26l0,10.003" style="fill:none;stroke:#000;stroke-opacity:0.67;stroke-width:0.65px;"/><path d="M195.899,1158.15l54.18,21.118" style="fill:none;stroke:#000;stroke-opacity:0.6;stroke-width:0.35px;"/><path d="M250.079,1179.27l-90.188,34.828l-16.49,-253.055" style="fill:none;stroke:#000;stroke-width:0.65px;"/></g></g></svg>