<?xml version="1.0" encoding="UTF-8" standalone="no"?>
<!DOCTYPE svg PUBLIC "-//W3C//DTD SVG 1.1//EN" "http://www.w3.org/Graphics/SVG/1.1/DTD/svg11.dtd">
<svg width="100%" height="100%" viewBox="0 0 2048 2732" version="1.1" xmlns="http://www.w3.org/2000/svg" xmlns:xlink="http://www.w3.org/1999/xlink" xml:space="preserve" xmlns:serif="http://www.serif.com/" style="fill-rule:evenodd;clip-rule:evenodd;stroke-linecap:round;stroke-linejoin:round;stroke-miterlimit:1.5;">
    <g transform="matrix(1.32749,0,0,1.32749,-348.735,-69.5723)">
        <path d="M871.893,1517.83L830.977,1492.7L818.705,1467.83" style="fill:none;stroke:black;stroke-width:2.26px;"/>
    </g>
    <g transform="matrix(1.32749,0,0,1.32749,-348.735,-69.5723)">
        <path d="M1164.11,1515.16L1181.59,1500.88L1178.36,1477.3" style="fill:none;stroke:black;stroke-width:2.26px;"/>
    </g>
    <g transform="matrix(1.32749,0,0,1.32749,-348.735,-69.5723)">
        <path d="M1247.92,1455.69L1293.53,1520.95L1333.72,1621.88L1323.78,1689.55L1265.76,1604.52L1260.46,1536.79L1293.53,1520.95" style="fill:none;stroke:black;stroke-width:2.26px;"/>
    </g>
    <g transform="matrix(1.32749,0,0,1.32749,-348.735,-69.5723)">
        <path d="M1265.76,1604.52L1273.39,1705.23L1232.74,1748.21C1232.74,1748.21 1235.64,1662.32 1236.73,1660.21C1237.82,1658.1 1208.01,1591.29 1208.01,1591.29L1265.76,1604.52Z" style="fill:none;stroke:black;stroke-width:2.26px;"/>
    </g>
    <g transform="matrix(1.32749,0,0,1.32749,-348.735,-69.5723)">
        <path d="M1151.73,1557.52L1139.79,1602.27L1173.71,1681.12L1211.83,1644.81L1208.1,1592.11" style="fill:none;stroke:black;stroke-width:2.26px;"/>
    </g>
    <g transform="matrix(1.32749,0,0,1.32749,-348.735,-69.5723)">
        <path d="M1180.02,1477.17L1198.2,1496.95L1224.69,1502.26L1245.63,1516.67L1247.71,1456.17" style="fill:none;stroke:black;stroke-width:2.26px;"/>
    </g>
    <g transform="matrix(1.32749,0,0,1.32749,-348.735,-69.5723)">
        <path d="M1245.63,1516.67L1243.17,1544.45L1259.88,1536.95" style="fill:none;stroke:black;stroke-width:2.26px;"/>
    </g>
    <g transform="matrix(1.32749,0,0,1.32749,-348.735,-69.5723)">
        <path d="M1082.57,909.293L1176.34,922.773L1266.16,916.92L1224.5,856.655L1176.34,922.773L1112.34,872.775L1224.5,856.655L1302.81,847.101L1366.12,859.406L1330.7,912.09L1266.16,916.92" style="fill:none;stroke:black;stroke-width:2.26px;"/>
    </g>
    <g transform="matrix(1.32749,0,0,1.32749,-348.735,-69.5723)">
        <path d="M1082.57,909.293L1098.83,995.451" style="fill:none;stroke:black;stroke-width:2.26px;"/>
    </g>
    <g transform="matrix(1.32749,0,0,1.32749,-348.735,-69.5723)">
        <path d="M1126.11,1026.52L1098.83,995.451" style="fill:none;stroke:black;stroke-width:2.26px;"/>
    </g>
    <g transform="matrix(1.32749,0,0,1.32749,-348.735,-69.5723)">
        <path d="M1126.11,1026.52L1160.95,976.632" style="fill:none;stroke:black;stroke-width:2.26px;"/>
    </g>
    <g transform="matrix(1.32749,0,0,1.32749,-348.735,-69.5723)">
        <path d="M1215.23,951.67L1160.95,976.632" style="fill:none;stroke:black;stroke-width:2.26px;"/>
    </g>
    <g transform="matrix(1.32749,0,0,1.32749,-348.735,-69.5723)">
        <path d="M1277.02,953.968L1215.23,951.67" style="fill:none;stroke:black;stroke-width:2.26px;"/>
    </g>
    <g transform="matrix(1.32749,0,0,1.32749,-348.735,-69.5723)">
        <path d="M1277.02,953.968L1324.31,963.077L1355.78,983.501L1383.13,1018.84L1375.34,1030.84L1315.06,986.528L1265.75,971.946L1229.23,973.486L1192.23,984.07" style="fill:none;stroke:black;stroke-width:2.26px;"/>
    </g>
    <g transform="matrix(1.32749,0,0,1.32749,-348.735,-69.5723)">
        <path d="M1082.83,909.201L1112.59,873.031" style="fill:none;stroke:black;stroke-width:2.26px;"/>
    </g>
    <g transform="matrix(1.32749,0,0,1.32749,-348.735,-69.5723)">
        <path d="M1332.62,912.633L1378.22,910.629L1432.61,895.451L1390.88,864.273L1366.15,859.858" style="fill:none;stroke:black;stroke-width:2.26px;"/>
    </g>
    <g transform="matrix(1.32749,0,0,1.32749,-348.735,-69.5723)">
        <path d="M1231.3,1020.55C1231.3,1020.55 1254.17,1028.05 1263.78,1028.07L1307.19,1029.29L1337.55,1023.43L1352.3,1013.78" style="fill:none;stroke:black;stroke-width:2.26px;"/>
    </g>
    <g transform="matrix(1.32749,0,0,1.32749,-348.735,-69.5723)">
        <path d="M1368.18,1027.1L1340.77,1037.9L1300.37,1048.59L1258.46,1042.31L1237.44,1036.03L1197.53,1019.41L1178.28,1000.56L1159.29,997.588L1144.21,999.849" style="fill:none;stroke:black;stroke-width:2.26px;"/>
    </g>
    <g transform="matrix(1.32749,0,0,1.32749,-348.735,-69.5723)">
        <path d="M1192.29,984.055L1178.28,1000.56" style="fill:none;stroke:black;stroke-width:2.26px;"/>
    </g>
    <g transform="matrix(1.32749,0,0,1.32749,-348.735,-69.5723)">
        <path d="M870.185,1517.37L860.707,1530.56L903.026,1557.34L949.161,1545.88L996.024,1539.86" style="fill:none;stroke:black;stroke-width:2.26px;"/>
    </g>
    <g transform="matrix(1.32749,0,0,1.32749,-348.735,-69.5723)">
        <path d="M1164.76,1515L1176.76,1519.25L1177.9,1543.76L1152.12,1557.61L1112.17,1555.82L1073.13,1547.59L1043.37,1541.34" style="fill:none;stroke:black;stroke-width:2.26px;"/>
    </g>
    <g transform="matrix(1.32749,0,0,1.32749,-348.735,-69.5723)">
        <path d="M1177.9,1543.76L1204.64,1558.68L1208.45,1592.25" style="fill:none;stroke:black;stroke-width:2.26px;"/>
    </g>
    <g transform="matrix(1.32749,0,0,1.32749,-348.735,-69.5723)">
        <path d="M1197.86,1497.75L1201.12,1514.81L1231.26,1548.46L1243.52,1544.84" style="fill:none;stroke:black;stroke-width:2.26px;"/>
    </g>
    <g transform="matrix(1.32749,0,0,1.32749,-348.735,-69.5723)">
        <path d="M903.359,1557.81L872.069,1589.14L857.045,1645.84L839.258,1584.79L861.546,1531.29" style="fill:none;stroke:black;stroke-width:2.26px;"/>
    </g>
    <g transform="matrix(1.32749,0,0,1.32749,-348.735,-69.5723)">
        <path d="M774.871,1474.11L771.555,1530.29L763.86,1573.8L781.747,1602.47L809.81,1526.09L817.229,1466.7" style="fill:none;stroke:black;stroke-width:2.26px;"/>
    </g>
    <g transform="matrix(1.32749,0,0,1.32749,-348.735,-69.5723)">
        <path d="M771.555,1530.29L790.277,1487.19L817.99,1466.8" style="fill:none;stroke:black;stroke-width:2.26px;"/>
    </g>
    <g transform="matrix(1.32749,0,0,1.32749,-348.735,-69.5723)">
        <path d="M1174.3,1681.2L1179.06,1768.1L1152.09,1839.59L1109.81,1895.46L1182.23,1863.11L1186.43,1806.85L1179.06,1768.1" style="fill:none;stroke:black;stroke-width:2.26px;"/>
    </g>
    <g transform="matrix(1.32749,0,0,1.32749,-348.735,-69.5723)">
        <path d="M1483.79,1323.67L1453.6,1399.64L1469.63,1467.61L1484.56,1548.39L1509.9,1463.86L1494.93,1385.79L1483.79,1323.67Z" style="fill:none;stroke:black;stroke-width:2.26px;"/>
    </g>
    <g transform="matrix(1.32749,0,0,1.32749,-348.735,-69.5723)">
        <path d="M1484.56,1548.39L1486.08,1607.79L1441.96,1685.49L1452.48,1579.76L1430.05,1488.25L1452.89,1401.04" style="fill:none;stroke:black;stroke-width:2.26px;"/>
    </g>
    <g transform="matrix(1.32749,0,0,1.32749,-348.735,-69.5723)">
        <path d="M1452.89,1401.04L1402.85,1469.37L1368.96,1557.65L1387.54,1625.36L1378.68,1677.53L1452.07,1579.6" style="fill:none;stroke:black;stroke-width:2.26px;"/>
    </g>
    <g transform="matrix(1.32749,0,0,1.32749,-348.735,-69.5723)">
        <path d="M1299.76,1487.44L1325.89,1531.16L1367.98,1557.51" style="fill:none;stroke:black;stroke-width:2.26px;"/>
    </g>
    <g transform="matrix(1.32749,0,0,1.32749,-348.735,-69.5723)">
        <path d="M1442.74,1685.08L1428.21,1782.01L1346.06,1855.99L1350.51,1752.86L1323.11,1688.26" style="fill:none;stroke:black;stroke-width:2.26px;"/>
    </g>
    <g transform="matrix(1.32749,0,0,1.32749,-348.735,-69.5723)">
        <path d="M1378.44,1677.58L1384.52,1722.56L1349.69,1752.26L1299.79,1849.47L1258.45,1889.12L1255.66,1773.88L1301.08,1730.56L1273.63,1705.42" style="fill:none;stroke:black;stroke-width:2.26px;"/>
    </g>
    <g transform="matrix(1.32749,0,0,1.32749,-348.735,-69.5723)">
        <path d="M1515.67,1097.16L1511.53,1177.81L1494.47,1251.6L1483.92,1323.43" style="fill:none;stroke:black;stroke-width:2.26px;"/>
    </g>
    <g transform="matrix(1.32749,0,0,1.32749,-348.735,-69.5723)">
        <path d="M1515.67,1097.16L1533.09,1176.44L1511.34,1269.77L1522.64,1354.98L1534.87,1437.13L1505.59,1530.12L1484.49,1547.43" style="fill:none;stroke:black;stroke-width:2.26px;"/>
    </g>
    <g transform="matrix(1.32749,0,0,1.32749,-348.735,-69.5723)">
        <path d="M1233.35,1748.25L1186.58,1806.62" style="fill:none;stroke:black;stroke-width:2.26px;"/>
    </g>
    <g transform="matrix(1.32749,0,0,1.32749,-348.735,-69.5723)">
        <path d="M1182.24,1863.81L1198.97,1937.68L1186.69,2000.62L1278.03,1944.51L1258.5,1889.55" style="fill:none;stroke:black;stroke-width:2.26px;"/>
    </g>
    <g transform="matrix(1.32749,0,0,1.32749,-348.735,-69.5723)">
        <path d="M1277.76,1944.93L1330.24,1892.58L1346.19,1856.23" style="fill:none;stroke:black;stroke-width:2.26px;"/>
    </g>
    <g transform="matrix(1.32749,0,0,1.32749,-348.735,-69.5723)">
        <path d="M1516.13,1303.07L1544.83,1256.11L1560.9,1206.32L1579.7,1164.34L1582.07,1139.16L1590.19,1097.9L1585.91,1054.32L1595.64,994.066L1576.42,967.861L1552.54,964.835L1528.2,990.147L1524.57,1070.65L1515.32,1097.37" style="fill:none;stroke:black;stroke-width:2.26px;"/>
    </g>
    <g transform="matrix(1.32749,0,0,1.32749,-348.735,-69.5723)">
        <path d="M1555,1019.5L1576.81,1000.98L1585.92,1053.91" style="fill:none;stroke:black;stroke-width:2.26px;"/>
    </g>
    <g transform="matrix(1.32749,0,0,1.32749,-348.735,-69.5723)">
        <path d="M1555,1019.5L1553.78,1064.99L1563.11,1098.27L1567.04,1154.48L1579.13,1165.14" style="fill:none;stroke:black;stroke-width:2.26px;"/>
    </g>
    <g transform="matrix(1.32749,0,0,1.32749,-348.735,-69.5723)">
        <path d="M858.434,1645.37L833.521,1783.07L875.509,1842.88L891.205,1705.87L959.516,1608.47L996.429,1541.47" style="fill:none;stroke:black;stroke-width:2.26px;"/>
    </g>
    <g transform="matrix(1.32749,0,0,1.32749,-348.735,-69.5723)">
        <path d="M858.434,1645.37L959.516,1608.47" style="fill:none;stroke:black;stroke-width:2.26px;"/>
    </g>
    <g transform="matrix(1.32749,0,0,1.32749,-348.735,-69.5723)">
        <path d="M959.516,1608.47L945.831,1699.32L955.109,1829.31L994.817,1915.82L1001.67,1774.83L1014.81,1657.99L997.043,1539.89" style="fill:none;stroke:black;stroke-width:2.26px;"/>
    </g>
    <g transform="matrix(1.32749,0,0,1.32749,-348.735,-69.5723)">
        <path d="M1110.17,1895.94L1060.84,1981.12L1003.14,1996.49L898.784,1879.07L876.295,1842.01" style="fill:none;stroke:black;stroke-width:2.26px;"/>
    </g>
    <g transform="matrix(1.32749,0,0,1.32749,-348.735,-69.5723)">
        <path d="M995.21,1916.36L921.855,1874.77L875.741,1842.71" style="fill:none;stroke:black;stroke-width:2.26px;"/>
    </g>
    <g transform="matrix(1.32749,0,0,1.32749,-348.735,-69.5723)">
        <path d="M1002.02,1996.55L948.013,2073.96L905.204,2011.71L917.91,1943.02L934.599,1918.35" style="fill:none;stroke:black;stroke-width:2.26px;"/>
    </g>
    <g transform="matrix(1.32749,0,0,1.32749,-348.735,-69.5723)">
        <path d="M1061.5,1980.9L1092.66,2031.29L1091.82,2079.9L1210.77,2037.61L1280.09,1943.51" style="fill:none;stroke:black;stroke-width:2.26px;"/>
    </g>
    <g transform="matrix(1.32749,0,0,1.32749,-348.735,-69.5723)">
        <path d="M1185.91,2001.38L1115.8,2012.42L1092.46,2077.73" style="fill:none;stroke:black;stroke-width:2.26px;"/>
    </g>
    <g transform="matrix(1.32749,0,0,1.32749,-348.735,-69.5723)">
        <path d="M1002.55,1997.87L1030.01,1930.92L1106.7,1827.58L1179.33,1768.71" style="fill:none;stroke:black;stroke-width:2.26px;"/>
    </g>
    <g transform="matrix(1.32749,0,0,1.32749,-348.735,-69.5723)">
        <path d="M995.568,1915.67L1030.01,1930.92" style="fill:none;stroke:black;stroke-width:2.26px;"/>
    </g>
    <g transform="matrix(1.32749,0,0,1.32749,-348.735,-69.5723)">
        <path d="M1107.27,1829.06L1078.59,1750.87L1129.97,1643.58L1140.45,1603.37" style="fill:none;stroke:black;stroke-width:2.26px;"/>
    </g>
    <g transform="matrix(1.32749,0,0,1.32749,-348.735,-69.5723)">
        <path d="M1078.59,1750.87L1066.98,1656.43L1111.77,1557.71" style="fill:none;stroke:black;stroke-width:2.26px;"/>
    </g>
    <g transform="matrix(1.32749,0,0,1.32749,-348.735,-69.5723)">
        <path d="M1016.83,1660.39L1030.7,1723.33L1078.68,1749.91" style="fill:none;stroke:black;stroke-width:2.26px;"/>
    </g>
    <g transform="matrix(1.32749,0,0,1.32749,-348.735,-69.5723)">
        <path d="M781.829,1601.64L775.702,1732.84L834.234,1782.5" style="fill:none;stroke:black;stroke-width:2.26px;"/>
    </g>
    <g transform="matrix(1.32749,0,0,1.32749,-348.735,-69.5723)">
        <path d="M775.702,1732.84L788.24,1842.7L861.891,1889.96L933.442,1918.85" style="fill:none;stroke:black;stroke-width:2.26px;"/>
    </g>
    <g transform="matrix(1.32749,0,0,1.32749,-348.735,-69.5723)">
        <path d="M861.891,1889.96L859.031,1965.39L906.218,2011.25" style="fill:none;stroke:black;stroke-width:2.26px;"/>
    </g>
    <g transform="matrix(1.32749,0,0,1.32749,-348.735,-69.5723)">
        <path d="M715.309,1492.94L675.487,1596.29L705.448,1664.93L753.532,1799.7L788.372,1843.37" style="fill:none;stroke:black;stroke-width:2.26px;"/>
    </g>
    <g transform="matrix(1.32749,0,0,1.32749,-348.735,-69.5723)">
        <path d="M769.588,1983.26L690.713,1920.39L622.992,1785.59L614.407,1615.63L675.654,1597.53" style="fill:none;stroke:black;stroke-width:2.26px;"/>
    </g>
    <g transform="matrix(1.32749,0,0,1.32749,-348.735,-69.5723)">
        <path d="M622.992,1785.59L674.235,1754.69" style="fill:none;stroke:black;stroke-width:2.26px;"/>
    </g>
    <g transform="matrix(1.32749,0,0,1.32749,-348.735,-69.5723)">
        <path d="M715.052,1494.61L657.089,1486.43L601.907,1408.85L556.556,1285.19L537.947,1191.06L517.887,1069.74" style="fill:none;stroke:black;stroke-width:2.26px;"/>
    </g>
    <g transform="matrix(1.32749,0,0,1.32749,-348.735,-69.5723)">
        <path d="M517.887,1069.74L511.424,1139.31L520.666,1189.22L502.071,1284.89L538.577,1326.96L556.789,1285.3" style="fill:none;stroke:black;stroke-width:2.26px;"/>
    </g>
    <g transform="matrix(1.32749,0,0,1.32749,-348.735,-69.5723)">
        <path d="M538.577,1326.96L541.836,1412.8L596.676,1479.69L589.227,1413.73L603.071,1408.08" style="fill:none;stroke:black;stroke-width:2.26px;"/>
    </g>
    <g transform="matrix(1.32749,0,0,1.32749,-348.735,-69.5723)">
        <path d="M596.676,1479.69L578.219,1581.08L616.765,1616.94" style="fill:none;stroke:black;stroke-width:2.26px;"/>
    </g>
    <g transform="matrix(1.32749,0,0,1.32749,-348.735,-69.5723)">
        <path d="M502.976,1286.6L503.675,1391.92L539.427,1504.66L540.591,1575.86L579.26,1714.77L623.981,1784" style="fill:none;stroke:black;stroke-width:2.26px;"/>
    </g>
    <g transform="matrix(1.32749,0,0,1.32749,-348.735,-69.5723)">
        <path d="M796.136,1118.12L738.554,1172.4L724.676,1102.32L776.666,1076.97L761.394,1020.73" style="fill:none;stroke:black;stroke-width:2.26px;"/>
    </g>
    <g transform="matrix(1.32749,0,0,1.32749,-348.735,-69.5723)">
        <path d="M776.666,1076.97L807.958,1062.31" style="fill:none;stroke:black;stroke-width:2.26px;"/>
    </g>
    <g transform="matrix(1.32749,0,0,1.32749,-348.735,-69.5723)">
        <path d="M1527.2,990.616L1539.73,940.775L1554.19,842.8L1566.33,779.638L1531.06,729.065L1527.51,826.568L1527.51,826.568" style="fill:none;stroke:black;stroke-width:2.26px;"/>
    </g>
    <g transform="matrix(1.32749,0,0,1.32749,-348.735,-69.5723)">
        <path d="M1527.51,826.568L1521.36,889.474L1515.84,968.98L1526.95,988.842" style="fill:none;stroke:black;stroke-width:2.26px;"/>
    </g>
    <g transform="matrix(1.32749,0,0,1.32749,-348.735,-69.5723)">
        <path d="M1531.17,728.611L1496.5,642.713L1471.01,547.049L1457.17,479.607L1379.49,422.724" style="fill:none;stroke:black;stroke-width:2.26px;"/>
    </g>
    <g transform="matrix(1.32749,0,0,1.32749,-348.735,-69.5723)">
        <path d="M1565.53,778.966L1579.95,646.04L1547.18,548.688L1550.04,422.917L1443.63,383.102L1498.91,487.433L1498.91,487.433" style="fill:none;stroke:black;stroke-width:2.26px;"/>
    </g>
    <g transform="matrix(1.32749,0,0,1.32749,-348.735,-69.5723)">
        <path d="M758.358,994.73L774.543,1006.31L785.094,1008.11L809.088,1005.16L826.301,988.236L832.243,967.846L825.338,948.502L785.567,942.79L766.403,944.553L754.322,968.939" style="fill:none;stroke:black;stroke-width:2.26px;"/>
    </g>
    <g transform="matrix(1.32749,0,0,1.32749,-348.735,-69.5723)">
        <path d="M1498.91,487.433L1521.28,616.831L1530.59,729.039" style="fill:none;stroke:black;stroke-width:2.26px;"/>
    </g>
    <g transform="matrix(1.32749,0,0,1.32749,-348.735,-69.5723)">
        <path d="M518.462,1071.62L527.811,974.593L531.502,852.915L526.278,749.109L557.351,660.586L558.195,603.353C558.195,603.353 602.089,515.697 603.264,509.796C604.44,503.894 648.196,439.132 650.207,435.305" style="fill:none;stroke:black;stroke-width:2.26px;"/>
    </g>
    <g transform="matrix(1.32749,0,0,1.32749,-348.735,-69.5723)">
        <path d="M518.462,1071.62L516.263,991.536L517.223,941.371L498.719,916.785L480.47,920.398L465.039,939.743L464.421,991.361L474.513,1040.06L490.173,1085.98L497.133,1130.95L493.687,1145.12L498.09,1216.99L510.434,1240.03" style="fill:none;stroke:black;stroke-width:2.26px;"/>
    </g>
    <g transform="matrix(1.32749,0,0,1.32749,-348.735,-69.5723)">
        <path d="M518.462,1071.62L502.222,995.66L479.262,957.062L464.509,991.789" style="fill:none;stroke:black;stroke-width:2.26px;"/>
    </g>
    <g transform="matrix(1.32749,0,0,1.32749,-348.735,-69.5723)">
        <path d="M517.127,940.82L509.336,892.432L509.032,824.524L501.402,760.842L509.661,660.705C509.661,660.705 561.035,603.754 560.448,603.41" style="fill:none;stroke:black;stroke-width:2.26px;"/>
    </g>
    <g transform="matrix(1.32749,0,0,1.32749,-348.735,-69.5723)">
        <path d="M1132.36,411.553L1093.89,269.965L926.107,214.253L831.603,230.798C831.603,230.798 988.151,301.875 992.487,302.392C996.823,302.91 1132.36,411.553 1132.36,411.553Z" style="fill:none;stroke:black;stroke-width:2.26px;"/>
    </g>
    <g transform="matrix(1.32749,0,0,1.32749,-348.735,-69.5723)">
        <path d="M1238.35,415.171L1210.23,280.578L1081.78,200.54L925.262,214.93" style="fill:none;stroke:black;stroke-width:2.26px;"/>
    </g>
    <g transform="matrix(1.32749,0,0,1.32749,-348.735,-69.5723)">
        <path d="M1132.18,410.382L1177.73,423.971L1238.32,415.624" style="fill:none;stroke:black;stroke-width:2.26px;"/>
    </g>
    <g transform="matrix(1.32749,0,0,1.32749,-348.735,-69.5723)">
        <path d="M1377.79,421.659L1318.24,282.101L1201.63,221.188L1125.91,228.089" style="fill:none;stroke:black;stroke-width:2.26px;"/>
    </g>
    <g transform="matrix(1.32749,0,0,1.32749,-348.735,-69.5723)">
        <path d="M1211.32,281.68L1297.03,410.039L1377.69,422.615" style="fill:none;stroke:black;stroke-width:2.26px;"/>
    </g>
    <g transform="matrix(1.32749,0,0,1.32749,-348.735,-69.5723)">
        <path d="M1238.94,416.806L1297.03,410.039" style="fill:none;stroke:black;stroke-width:2.26px;"/>
    </g>
    <g transform="matrix(1.32749,0,0,1.32749,-348.735,-69.5723)">
        <path d="M1442.41,381.204L1394.42,265.936L1268.26,188.216L1128.63,190.555L1201.57,221.443" style="fill:none;stroke:black;stroke-width:2.26px;"/>
    </g>
    <g transform="matrix(1.32749,0,0,1.32749,-348.735,-69.5723)">
        <path d="M1549.06,423.569L1513.92,307.932L1440.4,234.803L1339.55,125.651L1236.15,107.118L1393,265.396" style="fill:none;stroke:black;stroke-width:2.26px;"/>
    </g>
    <g transform="matrix(1.32749,0,0,1.32749,-348.735,-69.5723)">
        <path d="M1513.92,307.932L1433.82,268.601L1392.05,265.199" style="fill:none;stroke:black;stroke-width:2.26px;"/>
    </g>
    <g transform="matrix(1.32749,0,0,1.32749,-348.735,-69.5723)">
        <path d="M1234.94,105.821L1122.86,64.498L962.367,73.591L1079.85,121.826L1127.44,191.018" style="fill:none;stroke:black;stroke-width:2.26px;"/>
    </g>
    <g transform="matrix(1.32749,0,0,1.32749,-348.735,-69.5723)">
        <path d="M928.106,213.75L848.433,171.05L701.695,183.532L849.372,93.528L960.994,72.436" style="fill:none;stroke:black;stroke-width:2.26px;"/>
    </g>
    <g transform="matrix(1.32749,0,0,1.32749,-348.735,-69.5723)">
        <path d="M849.372,93.528L1005.66,156.536L1083.06,200.478" style="fill:none;stroke:black;stroke-width:2.26px;"/>
    </g>
    <g transform="matrix(1.32749,0,0,1.32749,-348.735,-69.5723)">
        <path d="M1079.1,123.305L972.435,116.768L941.661,130.31" style="fill:none;stroke:black;stroke-width:2.26px;"/>
    </g>
    <g transform="matrix(1.32749,0,0,1.32749,-348.735,-69.5723)">
        <path d="M1127.9,410.73L1043.93,412.965L943.106,354.557L833.283,231.939" style="fill:none;stroke:black;stroke-width:2.26px;"/>
    </g>
    <g transform="matrix(1.32749,0,0,1.32749,-348.735,-69.5723)">
        <path d="M943.106,354.557L830.186,335.76L738.313,362.563L649.419,436.906" style="fill:none;stroke:black;stroke-width:2.26px;"/>
    </g>
    <g transform="matrix(1.32749,0,0,1.32749,-348.735,-69.5723)">
        <path d="M831.281,231.155L723.401,251.038L630.751,344.569L606.127,441.028L648.821,436.498" style="fill:none;stroke:black;stroke-width:2.26px;"/>
    </g>
    <g transform="matrix(1.32749,0,0,1.32749,-348.735,-69.5723)">
        <path d="M829.819,334.985L749.06,298.592L631.191,344.731" style="fill:none;stroke:black;stroke-width:2.26px;"/>
    </g>
    <g transform="matrix(1.32749,0,0,1.32749,-348.735,-69.5723)">
        <path d="M702.002,184.672L612.382,262.651L532.233,395.849L631.516,345.415" style="fill:none;stroke:black;stroke-width:2.26px;"/>
    </g>
    <g transform="matrix(1.32749,0,0,1.32749,-348.735,-69.5723)">
        <path d="M532.233,395.849L523.818,532.253L560.536,469.221L606.122,441.771" style="fill:none;stroke:black;stroke-width:2.26px;"/>
    </g>
    <g transform="matrix(1.32749,0,0,1.32749,-348.735,-69.5723)">
        <path d="M523.818,532.253L509.401,659.34" style="fill:none;stroke:black;stroke-width:2.26px;"/>
    </g>
    <g transform="matrix(1.32749,0,0,1.32749,-348.735,-69.5723)">
        <path d="M705.448,1664.93L673.483,1754.34L729.157,1880.67L820.98,1955.36L857.333,1965.79" style="fill:none;stroke:black;stroke-width:2.26px;"/>
    </g>
    <g transform="matrix(1.32749,0,0,1.32749,-348.607,-68.4836)">
        <path d="M729.157,1880.67L769.315,1983.16L860.944,2062.79L931.335,2093.05L947.645,2073.84" style="fill:none;stroke:black;stroke-width:2.26px;"/>
    </g>
    <g transform="matrix(1.32749,0,0,1.32749,-348.607,-68.4836)">
        <path d="M1092.26,2080.19L1024.26,2104.93L950.137,2072.56" style="fill:none;stroke:black;stroke-width:2.26px;"/>
    </g>
    <g transform="matrix(1.32749,0,0,1.32749,-348.735,-69.5723)">
        <path d="M955.346,996.713L935.338,1027.06L885.208,1063.61L904.686,1021.2L909.545,994.554" style="fill:none;stroke:black;stroke-width:2.26px;"/>
    </g>
    <g transform="matrix(1.32749,0,0,1.32749,-348.735,-69.5723)">
        <path d="M885.208,1063.61L836.653,1091.77L796.497,1118.48L807.123,1062.51L851.022,1028.84L870.657,1008.04" style="fill:none;stroke:black;stroke-width:2.26px;"/>
    </g>
    <g transform="matrix(1.32749,0,0,1.32749,-348.735,-69.5723)">
        <path d="M885.208,1063.61L873.504,1040.65L850.804,1029.69" style="fill:none;stroke:black;stroke-width:2.26px;"/>
    </g>
    <g transform="matrix(1.32749,0,0,1.32749,-348.735,-69.5723)">
        <path d="M910.157,994.384L920.705,986.55" style="fill:none;stroke:black;stroke-width:2.26px;"/>
    </g>
    <g transform="matrix(1.32749,0,0,1.32749,-348.735,-69.5723)">
        <path d="M1337.65,1023.05L1326.67,1009.88L1305.25,995.225L1255.3,980.85L1229.98,982.721L1220.27,1005.02L1231.18,1020.63L1209.2,1017.41L1191.25,1005.93L1179.02,1001.22" style="fill:none;stroke:black;stroke-width:2.26px;"/>
    </g>
    <path d="M1285.64,1285.3L1318.98,1293.49" style="fill:none;stroke:black;stroke-width:3px;"/>
    <path d="M1344.16,1273.03L1318.98,1293.49" style="fill:none;stroke:black;stroke-width:3px;"/>
    <path d="M1344.16,1273.03L1338.98,1239.51" style="fill:none;stroke:black;stroke-width:3px;"/>
    <g transform="matrix(1.32749,0,0,1.32749,-348.735,-69.5723)">
        <path d="M1099.32,994.713L1113.12,962.374L1144.87,930.107L1176.03,923.044" style="fill:none;stroke:black;stroke-width:2.26px;"/>
    </g>
    <g transform="matrix(1.32749,0,0,1.32749,-348.735,-69.5723)">
        <path d="M1126.59,1027.43L1155.15,1064.18L1215.83,1100.96L1281.27,1116.6L1253.31,1065.7L1258.05,1042.44" style="fill:none;stroke:black;stroke-width:2.26px;"/>
    </g>
    <g transform="matrix(1.32749,0,0,1.32749,-348.735,-69.5723)">
        <path d="M1197.21,1019.55L1193.51,1058.52L1215.54,1101.03" style="fill:none;stroke:black;stroke-width:2.26px;"/>
    </g>
    <g transform="matrix(1.32749,0,0,1.32749,-348.735,-69.5723)">
        <path d="M1193.51,1058.52L1233.58,1089.45L1253.28,1066.19" style="fill:none;stroke:black;stroke-width:2.26px;"/>
    </g>
    <g transform="matrix(1.32749,0,0,1.32749,-348.735,-69.5723)">
        <path d="M1276.76,954.194L1296.64,937.583L1265.58,916.818" style="fill:none;stroke:black;stroke-width:2.26px;"/>
    </g>
    <g transform="matrix(1.32749,0,0,1.32749,-348.735,-69.5723)">
        <path d="M1160.49,977.246L1152.81,960.66L1163.93,935.562L1175.85,922.751" style="fill:none;stroke:black;stroke-width:2.26px;"/>
    </g>
    <g transform="matrix(1.32749,0,0,1.32749,-348.735,-69.5723)">
        <path d="M1113.5,962.889L1119.78,1002.38L1126.78,1026.38" style="fill:none;stroke:black;stroke-width:2.26px;"/>
    </g>
    <g transform="matrix(1.32749,0,0,1.32749,-348.735,-69.5723)">
        <path d="M1082.91,910.202L1038.18,946.48L1044.98,1036.54L1037.86,1110.42L1054.42,1154.83L1058.48,1194.37L1048.91,1251.86L1052.99,1277.21L1031.67,1296.33" style="fill:none;stroke:black;stroke-width:2.26px;"/>
    </g>
    <g transform="matrix(1.32749,0,0,1.32749,-348.735,-69.5723)">
        <path d="M1086.82,1261.13L1107.67,1255.97L1136.08,1265.48L1140.71,1289.32L1123.39,1299.67L1100.29,1288.48L1079.12,1276.59L1086.82,1261.13Z" style="fill:none;stroke:black;stroke-width:2.26px;"/>
    </g>
    <g transform="matrix(1.32749,0,0,1.32749,-348.735,-69.5723)">
        <path d="M1031.55,1296.93L1068.12,1309.72L1094.44,1309.59L1100.4,1288.56" style="fill:none;stroke:black;stroke-width:2.26px;"/>
    </g>
    <g transform="matrix(1.32749,0,0,1.32749,-348.735,-69.5723)">
        <path d="M1156.4,1206.26L1165.14,1237.86L1168.37,1268.64L1149.66,1301.46L1123.48,1300.2" style="fill:none;stroke:black;stroke-width:2.26px;"/>
    </g>
    <g transform="matrix(1.32749,0,0,1.32749,-348.735,-69.5723)">
        <path d="M1171.76,1228.77L1179.05,1271.88L1198.89,1314.72L1227.54,1358.43" style="fill:none;stroke:black;stroke-width:2.26px;"/>
    </g>
    <g transform="matrix(1.32749,0,0,1.32749,-348.735,-69.5723)">
        <path d="M1179.05,1271.88L1167.98,1268.76" style="fill:none;stroke:black;stroke-width:2.26px;"/>
    </g>
    <g transform="matrix(1.32749,0,0,1.32749,-348.735,-69.5723)">
        <path d="M1156.31,1206.49L1171.85,1228.31L1197.76,1239.9L1216.37,1257.65L1179.13,1272.45" style="fill:none;stroke:black;stroke-width:2.26px;"/>
    </g>
    <g transform="matrix(1.32749,0,0,1.32749,-348.735,-69.5723)">
        <path d="M1216.37,1257.65L1235.65,1280.02L1236.85,1309.87L1199.01,1315.14" style="fill:none;stroke:black;stroke-width:2.26px;"/>
    </g>
    <g transform="matrix(1.32749,0,0,1.32749,-348.735,-69.5723)">
        <path d="M1236.85,1309.87L1261.91,1330.55L1278.4,1373.28L1269.53,1398.94L1227.51,1359.41L1261.91,1330.55" style="fill:none;stroke:black;stroke-width:2.26px;"/>
    </g>
    <g transform="matrix(1.32749,0,0,1.32749,-348.735,-69.5723)">
        <path d="M1150.39,1301.59L1177.88,1331.85L1228.21,1359.04" style="fill:none;stroke:black;stroke-width:2.26px;"/>
    </g>
    <g transform="matrix(1.32749,0,0,1.32749,-348.735,-69.5723)">
        <path d="M1270.09,1399.03L1290.66,1435.85L1300.25,1486.79L1248.37,1455.52L1227.05,1401.56L1227.51,1359.33" style="fill:none;stroke:black;stroke-width:2.26px;"/>
    </g>
    <g transform="matrix(1.32749,0,0,1.32749,-348.735,-69.5723)">
        <path d="M1224.35,1447.52L1197.35,1401.5L1152.2,1367.68L1114.29,1317.27L1094.33,1309.51L1108.65,1378.66L1155.85,1406.82L1224.35,1447.52L1248.12,1455.66" style="fill:none;stroke:black;stroke-width:2.26px;"/>
    </g>
    <g transform="matrix(1.32749,0,0,1.32749,-348.735,-69.5723)">
        <path d="M1177.4,1331.02L1206.76,1383.67L1196.97,1401.39" style="fill:none;stroke:black;stroke-width:2.26px;"/>
    </g>
    <g transform="matrix(1.32749,0,0,1.32749,-348.735,-69.5723)">
        <path d="M1030.81,1296.69L1013.87,1293.16L993.059,1279.03L965.675,1267.28L943.233,1249.48L924.64,1251.68L900.894,1268.16L907.158,1294.79L936.197,1298.09L950.325,1280.43L965.675,1267.28" style="fill:none;stroke:black;stroke-width:2.26px;"/>
    </g>
    <g transform="matrix(1.32749,0,0,1.32749,-348.735,-69.5723)">
        <path d="M943.233,1249.48L935.312,1197.93L979.329,1132.85L1002.77,1080.69" style="fill:none;stroke:black;stroke-width:2.26px;"/>
    </g>
    <g transform="matrix(1.32749,0,0,1.32749,-348.735,-69.5723)">
        <path d="M1156.82,1207.18L1182.65,1201.02L1213.35,1234.31L1234.65,1280.34" style="fill:none;stroke:black;stroke-width:2.26px;"/>
    </g>
    <g transform="matrix(1.32749,0,0,1.32749,-348.735,-69.5723)">
        <path d="M1030.81,1296.69L1008.78,1300.12L975.874,1297.95L952.79,1305.11L936.365,1297.99" style="fill:none;stroke:black;stroke-width:2.26px;"/>
    </g>
    <g transform="matrix(1.32749,0,0,1.32749,-348.735,-69.5723)">
        <path d="M952.79,1305.11L941.654,1351.82L973.244,1415.37L1009.97,1407.76" style="fill:none;stroke:black;stroke-width:2.26px;"/>
    </g>
    <g transform="matrix(1.32749,0,0,1.32749,-348.735,-69.5723)">
        <path d="M973.244,1415.37L949.176,1449.38L986.205,1457.83L1023.46,1449.86L1040.33,1452.44" style="fill:none;stroke:black;stroke-width:2.26px;"/>
    </g>
    <g transform="matrix(1.32749,0,0,1.32749,-348.735,-69.5723)">
        <path d="M906.825,1295.69L885.621,1323.08L864.448,1356.02L890.471,1384.46L922.093,1352.19L941.227,1351.98" style="fill:none;stroke:black;stroke-width:2.26px;"/>
    </g>
    <g transform="matrix(1.32749,0,0,1.32749,-348.735,-69.5723)">
        <path d="M890.471,1384.46L923.076,1413.31L906.099,1446.83L949.537,1449.7" style="fill:none;stroke:black;stroke-width:2.26px;"/>
    </g>
    <g transform="matrix(1.32749,0,0,1.32749,-348.735,-69.5723)">
        <path d="M885.515,1323.13L823.622,1349.37L786.532,1403.42L816.667,1466.93L866.141,1429.6L906.044,1446.77" style="fill:none;stroke:black;stroke-width:2.26px;"/>
    </g>
    <g transform="matrix(1.32749,0,0,1.32749,-348.735,-69.5723)">
        <path d="M890.259,1384.7L842.605,1402.82L816.876,1466.69" style="fill:none;stroke:black;stroke-width:2.26px;"/>
    </g>
    <g transform="matrix(1.32749,0,0,1.32749,-348.735,-69.5723)">
        <path d="M1079.19,1276.86L1052.46,1277.48" style="fill:none;stroke:black;stroke-width:2.26px;"/>
    </g>
    <g transform="matrix(1.32749,0,0,1.32749,-348.735,-69.5723)">
        <path d="M993.534,1278.71L994.243,1235.18L987.664,1178.1L997.528,1116.89L1006.08,1052.13L1007.35,997.406L999.844,939.236L964.41,901.163L912.693,895.115" style="fill:none;stroke:black;stroke-width:2.26px;"/>
    </g>
    <g transform="matrix(1.32749,0,0,1.32749,-348.735,-69.5723)">
        <path d="M912.693,895.115L944.231,922.823L959.931,946.458L955.047,995.846L920.785,986.191L904.082,955.699L878.072,937.277L844.714,922.797L801.653,917.594L751.425,921.584L707.833,937.141L678.01,955.873L665.897,971.59L678.32,986.737L702.147,965.981L750.847,945.874L785.688,942.963L829.775,949.506L871.089,962.193L904.082,955.699L963.661,901.65L944.971,855.113L878.642,823.263L824.913,873.114L889.559,880.949L912.693,895.115Z" style="fill:none;stroke:black;stroke-width:2.26px;"/>
    </g>
    <g transform="matrix(1.32749,0,0,1.32749,-348.735,-69.5723)">
        <path d="M824.913,873.114C824.913,873.114 764.813,856.918 758.009,858.254C751.206,859.59 790.81,832.807 790.81,832.807L878.87,823.581" style="fill:none;stroke:black;stroke-width:2.26px;"/>
    </g>
    <g transform="matrix(1.32749,0,0,1.32749,-348.735,-69.5723)">
        <path d="M679.243,986.656L703.151,998.66L761.757,1019.96L825.279,1019.57L870.27,1007.82L909.657,993.569L871.288,962.618" style="fill:none;stroke:black;stroke-width:2.26px;"/>
    </g>
    <g transform="matrix(1.32749,0,0,1.32749,-348.735,-69.5723)">
        <path d="M751.516,945.746L722.705,967.512L710.673,982.248L743.323,1003.03L784.754,1007.15L831.673,1004.52L874.14,994.527L909.645,993.511" style="fill:none;stroke:black;stroke-width:2.26px;"/>
    </g>
    <g transform="matrix(1.32749,0,0,1.32749,-348.735,-69.5723)">
        <path d="M752.009,921.071L807.831,903.275L870.964,901.264L912.637,894.922" style="fill:none;stroke:black;stroke-width:2.26px;"/>
    </g>
    <g transform="matrix(1.32749,0,0,1.32749,-348.735,-69.5723)">
        <path d="M757.101,858.446L771.276,892.525L807.554,903.676" style="fill:none;stroke:black;stroke-width:2.26px;"/>
    </g>
    <g transform="matrix(1.32749,0,0,1.32749,-348.735,-69.5723)">
        <path d="M907.272,1294.87L893.08,1294.8L875.751,1280.95L870.093,1242.1L883.752,1197.05" style="fill:none;stroke:black;stroke-width:2.26px;"/>
    </g>
    <g transform="matrix(1.32749,0,0,1.32749,-348.735,-69.5723)">
        <path d="M883.752,1197.05L848.652,1213.54C848.652,1213.54 808.97,1254.13 808.409,1256.84C807.849,1259.56 826.91,1296.33 826.91,1296.33L858.853,1274.58L870.177,1242.82" style="fill:none;stroke:black;stroke-width:2.26px;"/>
    </g>
    <g transform="matrix(1.32749,0,0,1.32749,-348.735,-69.5723)">
        <path d="M826.91,1296.33L794.849,1323.77L771.439,1368.18L773.033,1301.93L808.139,1256.96" style="fill:none;stroke:black;stroke-width:2.26px;"/>
    </g>
    <g transform="matrix(1.32749,0,0,1.32749,-348.735,-69.5723)">
        <path d="M823.404,1349.99L771.439,1368.18L731.993,1439.5L715.208,1493.83L774.815,1473.77L779.187,1425.26L786.734,1404.23L731.993,1439.5" style="fill:none;stroke:black;stroke-width:2.26px;"/>
    </g>
    <g transform="matrix(1.32749,0,0,1.32749,-348.735,-69.5723)">
        <path d="M949.025,1450.07L974.155,1479.2L1002.54,1481.75L1026.41,1477.45L1040.54,1453.31" style="fill:none;stroke:black;stroke-width:2.26px;"/>
    </g>
    <g transform="matrix(1.32749,0,0,1.32749,-348.735,-69.5723)">
        <path d="M1173.45,1479.32L1124.66,1484.05L1082.37,1483.08L1041.97,1485.42L1025.74,1478.25" style="fill:none;stroke:black;stroke-width:2.26px;"/>
    </g>
    <g transform="matrix(1.32749,0,0,1.32749,-348.735,-69.5723)">
        <path d="M973.063,1479.58L934.154,1484.46L877.543,1483.04L853.801,1479.09L817.776,1467.3" style="fill:none;stroke:black;stroke-width:2.26px;"/>
    </g>
    <g transform="matrix(1.32749,0,0,1.32749,-348.735,-69.5723)">
        <path d="M1178.15,1463.72L1179.51,1476.52L1173.43,1479.44" style="fill:none;stroke:black;stroke-width:2.26px;"/>
    </g>
    <g transform="matrix(1.32749,0,0,1.32749,-348.735,-69.5723)">
        <path d="M824.772,949.679L831.874,968.082L825.706,987.73L808.264,1006.08" style="fill:none;stroke:black;stroke-width:2.26px;"/>
    </g>
    <g transform="matrix(1.32749,0,0,1.32749,-348.735,-69.5723)">
        <path d="M766.424,944.805L756.282,969.572L760.437,984.743L757.439,995.384L744.747,1003.52" style="fill:none;stroke:black;stroke-width:2.26px;"/>
    </g>
    <g transform="matrix(1.32749,0,0,1.32749,-348.735,-69.5723)">
        <path d="M1164.05,1515L1134.19,1523.83L1070.64,1530.27L1042.95,1540.72L998.156,1539.49L960.677,1528.53L921.006,1516.75L870.037,1517.76" style="fill:none;stroke:black;stroke-width:2.26px;"/>
    </g>
    <g transform="matrix(1.32749,0,0,1.32749,-348.735,-69.5723)">
        <path d="M878.298,823.56L804.411,801.716L730.067,800.279L790.886,833.246" style="fill:none;stroke:black;stroke-width:2.26px;"/>
    </g>
    <g transform="matrix(1.32749,0,0,1.32749,-348.735,-69.5723)">
        <path d="M757.383,857.751L705.075,854.653L649.725,872.272L686.579,816.553L729.562,800.681" style="fill:none;stroke:black;stroke-width:2.26px;"/>
    </g>
    <g transform="matrix(1.32749,0,0,1.32749,-348.735,-69.5723)">
        <path d="M649.725,872.272L725.446,827.19L790.129,833.736" style="fill:none;stroke:black;stroke-width:2.26px;"/>
    </g>
    <g transform="matrix(1.32749,0,0,1.32749,-348.735,-69.5723)">
        <path d="M1030.9,1297.02L1010.18,1354.24L1009.94,1407.54L1040.39,1452.51L1076.6,1388.09L1067.63,1309.9" style="fill:none;stroke:black;stroke-width:2.26px;"/>
    </g>
    <g transform="matrix(1.32749,0,0,1.32749,-348.735,-69.5723)">
        <path d="M1040.39,1452.51L1093.95,1430.03L1133.96,1447.33L1178.25,1463.19L1224.03,1447.63" style="fill:none;stroke:black;stroke-width:2.26px;"/>
    </g>
    <g transform="matrix(1.32749,0,0,1.32749,-348.735,-69.5723)">
        <path d="M1107.93,1379.19L1095.58,1414.02L1093.81,1430.25" style="fill:none;stroke:black;stroke-width:2.26px;"/>
    </g>
    <g transform="matrix(1.32749,0,0,1.32749,-348.735,-69.5723)">
        <path d="M1076.73,1388.57L1095.58,1414.02" style="fill:none;stroke:black;stroke-width:2.26px;"/>
    </g>
    <path d="M1330.96,1147.71L1358.66,1105.15L1463.93,1071.84" style="fill:none;stroke:black;stroke-width:3px;"/>
    <path d="M1453.15,1236.78L1495.04,1213.43L1552.4,1118.79" style="fill:none;stroke:black;stroke-width:3px;"/>
    <path d="M589.949,1173.95L540.131,1147.27L514.273,1088.9" style="fill:none;stroke:black;stroke-width:3px;"/>
    <path d="M1285.8,1234.5L1241.75,1243.04L1216.95,1259.14" style="fill:none;stroke:black;stroke-width:3px;"/>
    <path d="M1317.91,1232.29L1285.81,1234.24" style="fill:none;stroke:black;stroke-width:3px;"/>
</svg>
