<?xml version="1.0" encoding="UTF-8" standalone="no"?>
<!DOCTYPE svg PUBLIC "-//W3C//DTD SVG 1.1//EN" "http://www.w3.org/Graphics/SVG/1.1/DTD/svg11.dtd">
<svg width="100%" height="100%" viewBox="0 0 2732 6144" version="1.1" xmlns="http://www.w3.org/2000/svg" xmlns:xlink="http://www.w3.org/1999/xlink" xml:space="preserve" xmlns:serif="http://www.serif.com/" style="fill-rule:evenodd;clip-rule:evenodd;stroke-linecap:round;stroke-linejoin:round;stroke-miterlimit:1.5;">
    <path d="M-192.957,2588.79L290.613,1470.72L845.644,943.372L894.847,1998.06L1127.33,3086.86L293.997,2918.01L-68.647,2778.06L-192.957,2588.79Z" style="fill:none;stroke:black;stroke-width:3px;"/>
    <path d="M-68.631,693.035L589.85,1514.42L-31.016,1536.44L243.843,800.923L589.85,1514.42" style="fill:none;stroke:black;stroke-width:3px;"/>
    <g id="Layer1">
        <path d="M-199.595,1555.11L1175.62,1865.58L1479.04,2742.11L-270.406,2611.36L-199.595,1555.11Z" style="fill:none;stroke:black;stroke-width:3px;"/>
    </g>
    <g id="Layer2">
        <path d="M790.584,3020.12L161.074,3627.25L603.089,4115.05L790.584,3020.12Z" style="fill:none;stroke:black;stroke-width:3px;"/>
        <path d="M193.172,3253.35L885.799,3916.05L540.424,2788.54L193.172,3253.35Z" style="fill:none;stroke:black;stroke-width:3px;"/>
        <path d="M118.66,4442.42L236.867,5199.15L319.634,4707.14L263.611,4261.53L118.66,4442.42Z" style="fill:none;stroke:black;stroke-width:3px;"/>
        <path d="M664.037,4372.62L215.632,4641.39L368.265,4997.66L439.001,4804.78L664.037,4372.62Z" style="fill:none;stroke:black;stroke-width:3px;"/>
        <path d="M2336.99,4734.21L2163.41,5108.85L2260.38,5517.32L2487.52,5131.86L2400.11,4976.49L2336.99,4734.21Z" style="fill:none;stroke:black;stroke-width:3px;"/>
        <path d="M2538.61,4505.94L2358.22,5247.68L2503.53,5462.02L2538.61,4505.94Z" style="fill:none;stroke:black;stroke-width:3px;"/>
        <path d="M2437.65,3724.28L2490.27,2790.34L2631.53,3346.55L2437.65,3724.28Z" style="fill:none;stroke:black;stroke-width:3px;"/>
        <path d="M2524.77,4093.21L2529.99,3379.42L2276.69,3856.73L2342.86,4050.48L2524.77,4093.21Z" style="fill:none;stroke:black;stroke-width:3px;"/>
        <path d="M2518.03,2351.92L2637.22,2200.92L2521.77,1549.42L2428.38,1946.56L2518.03,2351.92Z" style="fill:none;stroke:black;stroke-width:3px;"/>
        <path d="M2930.5,435.077L2461.66,832.212L2699.59,1805.64L3017.89,1911.21L2930.5,435.077Z" style="fill:none;stroke:black;stroke-width:3px;"/>
        <path d="M2893.92,2587.16L2295.21,1584.76L2914.6,969.882" style="fill:none;stroke:black;stroke-width:3px;"/>
    </g>
</svg>
