<?xml version="1.0" encoding="UTF-8" standalone="no"?>
<!DOCTYPE svg PUBLIC "-//W3C//DTD SVG 1.1//EN" "http://www.w3.org/Graphics/SVG/1.1/DTD/svg11.dtd">
<svg width="100%" height="100%" viewBox="0 0 256 142" version="1.1" xmlns="http://www.w3.org/2000/svg" xmlns:xlink="http://www.w3.org/1999/xlink" xml:space="preserve" xmlns:serif="http://www.serif.com/" style="fill-rule:evenodd;clip-rule:evenodd;stroke-miterlimit:10;">
    <g transform="matrix(1.00392,0,0,1.00706,-0.318169,-0.327644)">
        <rect x="0.043" y="0.044" width="255.118" height="141.73" style="fill:rgb(64,63,65);"/>
    </g>
    <g transform="matrix(-1.00392,0,0,1.00706,255.843,-0.371644)">
        <rect x="0.043" y="0.044" width="255.119" height="141.73" style="fill:none;stroke:white;stroke-width:0.08px;"/>
    </g>
    <g transform="matrix(1,0,0,1,-0.362,-0.369333)">
        <text x="185.106px" y="104.006px" style="font-family:'HelveticaNeueLTPro-Md', 'Helvetica Neue LT Pro', sans-serif;font-weight:500;font-size:8.504px;fill:white;">+48 662 972 219</text>
        <text x="164.612px" y="119.107px" style="font-family:'HelveticaNeueLTPro-Lt', 'Helvetica Neue LT Pro', sans-serif;font-weight:300;font-size:7.087px;fill:white;">ofﬁce@marcel-badetko.com</text>
        <text x="145.963px" y="134.209px" style="font-family:'HelveticaNeueLTPro-Md', 'Helvetica Neue LT Pro', sans-serif;font-weight:500;font-size:8.504px;fill:white;">ww</text>
        <text x="159.195px" y="134.209px" style="font-family:'HelveticaNeueLTPro-Md', 'Helvetica Neue LT Pro', sans-serif;font-weight:500;font-size:8.504px;fill:white;">w</text>
        <text x="165.361px" y="134.209px" style="font-family:'HelveticaNeueLTPro-Md', 'Helvetica Neue LT Pro', sans-serif;font-weight:500;font-size:8.504px;fill:white;">.ma</text>
        <text x="179.852px" y="134.209px" style="font-family:'HelveticaNeueLTPro-Md', 'Helvetica Neue LT Pro', sans-serif;font-weight:500;font-size:8.504px;fill:white;">r</text>
        <text x="182.695px" y="134.209px" style="font-family:'HelveticaNeueLTPro-Md', 'Helvetica Neue LT Pro', sans-serif;font-weight:500;font-size:8.504px;fill:white;">cel-badetko.com</text>
    </g>
    <g transform="matrix(0.871248,-0.490844,-0.490844,-0.871248,106.422,15.3434)">
        <path d="M8.674,-0.413L18.192,2.018L-3.537,-36.551L-8.846,-31.51L8.674,-0.413Z" style="fill:white;fill-rule:nonzero;"/>
    </g>
    <g transform="matrix(1,0,0,1,134.374,33.1256)">
        <path d="M0,-9.881C-6.645,-9.881 -9.045,-4.235 -9.045,1.115C-9.045,6.463 -6.645,12.113 0,12.113C6.002,12.113 8.451,6.463 8.451,1.115C8.451,-4.235 6.002,-9.881 0,-9.881M-12.193,-28.47L-9.045,-21.68L-9.045,-6.883L-8.945,-6.883C-7.646,-10.582 -3.797,-12.531 0,-12.531C7.85,-12.531 11.6,-6.233 11.6,1.115C11.6,8.463 7.85,14.762 0,14.762C-4.197,14.762 -7.744,12.662 -9.195,9.113L-9.295,9.113L-9.295,14.014L-12.193,15.799L-12.193,-28.47Z" style="fill:white;fill-rule:nonzero;"/>
    </g>
    <g transform="matrix(1,0,0,1,73.097,76.4124)">
        <path d="M0,11.838L-6.75,0L6.75,3.916L3.012,6.725L2.25,10.916L0,11.838Z" style="fill:url(#_Radial1);fill-rule:nonzero;stroke:white;stroke-width:0.28px;stroke-linejoin:bevel;"/>
    </g>
    <g transform="matrix(1,0,0,1,128.097,93.7485)">
        <path d="M0,19.83L-0.916,0L-28.107,3.887L0,19.83Z" style="fill:url(#_Radial2);fill-rule:nonzero;stroke:white;stroke-width:0.28px;"/>
    </g>
    <g transform="matrix(0.853388,-0.521276,-0.521276,-0.853388,77.6262,86.8042)">
        <path d="M-4.135,14.703L52.276,14.703" style="fill:none;fill-rule:nonzero;stroke:white;stroke-width:0.28px;"/>
    </g>
    <g transform="matrix(0.257195,-0.96636,-0.96636,-0.257195,154.709,82.2645)">
        <path d="M-18.178,23.649L30.766,23.649" style="fill:none;fill-rule:nonzero;stroke:white;stroke-width:0.28px;"/>
    </g>
    <g transform="matrix(0.966139,-0.258023,-0.258023,-0.966139,77.6022,86.7552)">
        <path d="M-0.509,3.881L29.573,3.881" style="fill:none;fill-rule:nonzero;stroke:white;stroke-width:0.14px;"/>
    </g>
    <g transform="matrix(0.772531,-0.634977,-0.634977,-0.772531,91.0484,87.0251)">
        <path d="M-4.401,12.286L34.296,12.286" style="fill:none;fill-rule:nonzero;stroke:white;stroke-width:0.28px;stroke-linecap:round;stroke-linejoin:round;"/>
    </g>
    <g transform="matrix(0.226794,-0.973943,-0.973943,-0.226794,124.154,86.1936)">
        <path d="M-16.624,20.94L26.376,20.94" style="fill:none;fill-rule:nonzero;stroke:white;stroke-width:0.28px;"/>
    </g>
    <g transform="matrix(0.855096,-0.518469,-0.518469,-0.855096,112.369,58.2196)">
        <path d="M-0.969,3.468L12.41,3.469" style="fill:none;fill-rule:nonzero;stroke:white;stroke-width:0.14px;"/>
    </g>
    <g transform="matrix(0.171519,-0.985181,-0.985181,-0.171519,165.885,91.5978)">
        <path d="M-28.136,33.458L39.786,33.458" style="fill:none;fill-rule:nonzero;stroke:white;stroke-width:0.28px;stroke-linecap:round;"/>
    </g>
    <g transform="matrix(0.928234,-0.371997,-0.371997,-0.928234,78.6405,92.4471)">
        <path d="M-1.153,5.977L30.979,5.977" style="fill:none;fill-rule:nonzero;stroke:white;stroke-width:0.28px;"/>
    </g>
    <g transform="matrix(0.999674,-0.0255172,-0.0255172,-0.999674,124.865,45.845)">
        <path d="M-0.001,0.059L4.663,0.059" style="fill:none;fill-rule:nonzero;stroke:white;stroke-width:0.09px;"/>
    </g>
    <defs>
        <radialGradient id="_Radial1" cx="0" cy="0" r="1" gradientUnits="userSpaceOnUse" gradientTransform="matrix(17.4285,0,0,9.915,-10.6785,9.915)"><stop offset="0" style="stop-color:white;stop-opacity:1"/><stop offset="1" style="stop-color:rgb(229,229,229);stop-opacity:1"/></radialGradient>
        <radialGradient id="_Radial2" cx="0" cy="0" r="1" gradientUnits="userSpaceOnUse" gradientTransform="matrix(17.4285,0,0,9.915,-10.6785,9.915)"><stop offset="0" style="stop-color:white;stop-opacity:1"/><stop offset="1" style="stop-color:rgb(229,229,229);stop-opacity:1"/></radialGradient>
    </defs>
</svg>
